<svg width="160" height="50" viewBox="0 0 160 50" fill="none" xmlns="http://www.w3.org/2000/svg">
<path d="M25.1842 50C39.0929 50 50.3683 38.8071 50.3683 25C50.3683 11.1929 39.0929 0 25.1842 0C11.2754 0 0 11.1929 0 25C0 38.8071 11.2754 50 25.1842 50Z" fill="white"/>
<path d="M22.6153 48.0059C19.1439 47.6106 15.8085 46.4368 12.8615 44.5734C9.91434 42.7101 7.43262 40.2058 5.60403 37.2502C5.54316 37.2502 4.60576 35.4737 4.51648 35.2883C13.6267 39.6309 19.868 41.3752 25.6183 41.7982C27.0486 41.9222 28.4877 41.91 29.9157 41.7619C28.3655 44.1789 27.0751 46.2657 22.6113 48.0059H22.6153Z" fill="#FFD000"/>
<path d="M45.1862 36.7507C43.1703 40.204 40.2792 43.0735 36.8001 45.0742C33.3211 47.0748 29.3753 48.1369 25.3546 48.155C28.3207 46.636 30.9527 44.5463 33.0974 42.0077C33.967 40.9897 35.067 40.1905 36.3073 39.6753C38.6082 38.6843 42.4186 37.1817 45.1862 36.7507Z" fill="#2FB5E8"/>
<path d="M11.05 35.087C22.2421 32.8191 36.571 27.7554 47.2315 30.0918L47.755 30.2047C47.5379 31.1747 47.2587 32.13 46.919 33.0647C43.6726 34.0276 40.1705 35.6147 36.153 37.3388C33.215 38.6037 29.6602 38.8656 25.9187 38.5473C24.7622 38.4467 23.5975 38.2936 22.4247 38.0962C18.5584 37.396 14.7546 36.3897 11.05 35.087Z" fill="#A7DB25"/>
<path d="M48.1647 22.8528C48.2495 23.6557 48.2915 24.4625 48.2906 25.2698C48.2906 25.8982 48.2662 26.5186 48.2175 27.1309C47.0851 26.8679 45.935 26.6861 44.7763 26.5871C34.408 25.8701 19.2107 31.0505 9.06559 34.3981C7.74675 33.9066 6.52933 33.4353 5.46613 33.0325C4.83307 32.7706 4.05799 32.4524 3.24638 32.0938C1.7548 27.3334 1.86447 22.2204 3.55885 17.5273C11.9468 16.8021 18.4681 18.4981 27.1361 21.1528C34.7205 23.449 40.9496 24.444 48.1647 22.8528Z" fill="#51A31A"/>
<path d="M20.0142 16.4277C19.02 16.2222 18.0339 16.0249 17.0559 15.8999C12.816 15.3223 8.51925 15.2817 4.26904 15.7791C5.40006 13.3257 6.95781 11.0893 8.87082 9.17261C9.2401 9.29752 9.59318 9.43044 9.93409 9.57544C13.9312 11.2955 15.4692 12.7981 18.805 15.5092C19.2108 15.8274 19.5962 16.1336 20.0224 16.4237L20.0142 16.4277Z" fill="#2FB5E8"/>
<path d="M44.0783 12.085C45.8525 14.5742 47.1043 17.3922 47.759 20.3714C45.3106 20.7923 42.8219 20.9355 40.3409 20.7984C36.7171 20.5607 32.8863 19.6463 29.0189 18.6472C28.6217 18.4632 28.2034 18.328 27.7732 18.2444C24.3482 17.2695 22.7736 16.4195 20.2455 13.934C17.4779 11.2109 14.9295 8.66096 11.472 6.92874C13.0175 5.78486 14.7012 4.83755 16.4837 4.10889C22.3719 8.33863 29.6723 13.1123 35.528 13.6078C37.5003 13.7729 40.978 13.0196 44.0783 12.0931V12.085Z" fill="#017CC0"/>
<path d="M25.245 2.41695C28.4274 2.41325 31.576 3.0659 34.4911 4.33352C37.4062 5.60114 40.0241 7.45609 42.1791 9.78077C40.7629 10.0668 39.3142 10.2964 37.8452 10.4777C31.6526 11.2229 24.7742 6.95691 18.5817 3.36765C20.7437 2.72795 22.9889 2.40762 25.245 2.41695Z" fill="#2FB5E8"/>
<path d="M69.2396 24.6332C71.4334 24.6332 73.2243 25.4443 74.6122 27.0666C76.0001 28.6666 76.6941 30.7777 76.6941 33.3999C76.6941 35.9999 75.9889 38.111 74.5786 39.7332C73.1683 41.3332 71.3551 42.1332 69.1389 42.1332C67.8853 42.1332 66.7883 41.8555 65.8481 41.2999C64.9303 40.7222 64.2811 40.0222 63.9006 39.1999V41.6666H57.3191V18.2666H63.9006V27.5666C64.2811 26.7222 64.9415 26.0222 65.8817 25.4666C66.8443 24.911 67.9636 24.6332 69.2396 24.6332ZM64.505 35.9666C65.087 36.611 65.837 36.9332 66.7548 36.9332C67.6725 36.9332 68.4225 36.5999 69.0045 35.9332C69.5865 35.2666 69.8776 34.4222 69.8776 33.3999C69.8776 32.3555 69.5865 31.511 69.0045 30.8666C68.4225 30.2222 67.6725 29.8999 66.7548 29.8999C65.837 29.8999 65.087 30.2222 64.505 30.8666C63.923 31.511 63.6319 32.3555 63.6319 33.3999C63.6319 34.4443 63.923 35.2999 64.505 35.9666ZM79.3224 41.6666V25.0999H85.9039V28.7999C86.1952 27.5332 86.777 26.5443 87.6501 25.8332C88.5231 25.1222 89.5414 24.7666 90.7057 24.7666C91.1313 24.7666 91.5452 24.7999 91.9481 24.8666V31.0332C91.3882 30.9443 90.8291 30.8999 90.2692 30.8999C88.9034 30.8999 87.8289 31.2888 87.0456 32.0666C86.2842 32.8222 85.9039 34.1666 85.9039 36.0999V41.6666H79.3224ZM97.6977 24.5332C96.645 24.5332 95.7719 24.1888 95.0785 23.4999C94.3843 22.7888 94.0376 21.9443 94.0376 20.9666C94.0376 19.9666 94.3843 19.1222 95.0785 18.4332C95.7719 17.7443 96.645 17.3999 97.6977 17.3999C98.7269 17.3999 99.589 17.7443 100.283 18.4332C100.999 19.1222 101.358 19.9666 101.358 20.9666C101.358 21.9443 100.999 22.7888 100.283 23.4999C99.589 24.1888 98.7269 24.5332 97.6977 24.5332ZM94.407 41.6666V25.0999H100.988V41.6666H94.407ZM116.42 25.0999H123.002V40.1666C123.002 43.2777 121.86 45.5999 119.577 47.1332C118.167 48.0888 116.118 48.5666 113.432 48.5666C110.813 48.5666 108.764 48.1666 107.287 47.3666C106.324 46.8555 105.529 46.1666 104.903 45.2999C104.298 44.4332 103.995 43.5555 103.995 42.6666H110.645C110.824 43.6443 111.719 44.1332 113.331 44.1332C115.39 44.1332 116.42 43.1332 116.42 41.1332V38.5332C116.062 39.3555 115.401 40.0222 114.439 40.5332C113.476 41.0443 112.425 41.2999 111.282 41.2999C108.954 41.2999 107.096 40.5443 105.709 39.0332C104.32 37.4999 103.627 35.511 103.627 33.0666C103.627 30.5777 104.332 28.5555 105.742 26.9999C107.153 25.4222 109.01 24.6332 111.316 24.6332C112.503 24.6332 113.554 24.8999 114.473 25.4332C115.413 25.9666 116.062 26.6777 116.42 27.5666V25.0999ZM113.566 36.6666C114.528 36.6666 115.29 36.3332 115.85 35.6666C116.409 34.9999 116.689 34.1666 116.689 33.1666C116.689 32.1666 116.409 31.3332 115.85 30.6666C115.29 29.9999 114.528 29.6666 113.566 29.6666C112.648 29.6666 111.898 29.9999 111.316 30.6666C110.734 31.311 110.443 32.1443 110.443 33.1666C110.443 34.1888 110.734 35.0332 111.316 35.6999C111.898 36.3443 112.648 36.6666 113.566 36.6666ZM138.826 24.6332C142.9 24.6332 144.937 26.9443 144.937 31.5666V41.6666H138.222V33.2332C138.222 31.1443 137.449 30.0999 135.905 30.0999C134.247 30.0999 133.42 31.1888 133.42 33.3666V41.6666H126.838V18.3332H133.42V27.5332C134.315 25.5999 136.117 24.6332 138.826 24.6332ZM158.321 36.8332C158.724 36.8332 159.283 36.7888 160 36.6999V41.6666C158.746 41.8888 157.381 41.9999 155.903 41.9999C155.03 41.9999 154.258 41.9222 153.586 41.7666C152.915 41.611 152.243 41.3332 151.572 40.9332C150.9 40.511 150.374 39.8666 149.993 38.9999C149.635 38.111 149.456 37.011 149.456 35.6999V30.0999H147.005V25.0999H149.456V20.2666H156.038V25.0999H159.832V30.0999H156.038V34.3332C156.038 35.9999 156.798 36.8332 158.321 36.8332Z" fill="white"/>
</svg>
