<svg width="1371" height="649" viewBox="0 0 1371 649" fill="none" xmlns="http://www.w3.org/2000/svg">
<circle cx="140" cy="200" r="199.5" stroke="#7EC845" stroke-opacity="0.5"/>
<circle cx="140" cy="200" r="179.5" stroke="#7EC845" stroke-opacity="0.5"/>
<circle cx="140" cy="200" r="159.5" stroke="#7EC845" stroke-opacity="0.5"/>
<circle cx="140" cy="200" r="139.5" stroke="#7EC845" stroke-opacity="0.5"/>
<circle cx="140" cy="200" r="119.5" stroke="#7EC845" stroke-opacity="0.5"/>
<circle cx="140" cy="200" r="99.5" stroke="#7EC845" stroke-opacity="0.5"/>
<circle cx="140" cy="200" r="79.5" stroke="#7EC845" stroke-opacity="0.5"/>
<circle cx="140" cy="200" r="59.5" stroke="#7EC845" stroke-opacity="0.5"/>
<circle cx="140" cy="200" r="39.5" stroke="#7EC845" stroke-opacity="0.5"/>
<circle cx="140" cy="200" r="19.5" stroke="#7EC845" stroke-opacity="0.5"/>
<line x1="1020.5" y1="299.5" x2="1020.5" y2="648.5" stroke="#D1C1B4" stroke-linecap="round"/>
<line x1="1028.74" y1="299.5" x2="1028.74" y2="648.5" stroke="#D1C1B4" stroke-linecap="round"/>
<line x1="1043.83" y1="299.5" x2="1043.83" y2="648.5" stroke="#D1C1B4" stroke-linecap="round"/>
<line x1="1061.68" y1="299.5" x2="1061.68" y2="648.5" stroke="#D1C1B4" stroke-linecap="round"/>
<line x1="1067.17" y1="299.5" x2="1067.17" y2="648.5" stroke="#D1C1B4" stroke-linecap="round"/>
<line x1="1075.4" y1="299.5" x2="1075.4" y2="648.5" stroke="#D1C1B4" stroke-linecap="round"/>
<line x1="1080.89" y1="299.5" x2="1080.89" y2="648.5" stroke="#D1C1B4" stroke-linecap="round"/>
<line x1="1093.24" y1="299.5" x2="1093.24" y2="648.5" stroke="#D1C1B4" stroke-linecap="round"/>
<line x1="1097.36" y1="299.5" x2="1097.36" y2="648.5" stroke="#D1C1B4" stroke-linecap="round"/>
<line x1="1109.72" y1="299.5" x2="1109.72" y2="648.5" stroke="#D1C1B4" stroke-linecap="round"/>
<line x1="1116.58" y1="299.5" x2="1116.58" y2="648.5" stroke="#D1C1B4" stroke-linecap="round"/>
<line x1="1123.44" y1="299.5" x2="1123.44" y2="648.5" stroke="#D1C1B4" stroke-linecap="round"/>
<line x1="1130.3" y1="299.5" x2="1130.3" y2="648.5" stroke="#D1C1B4" stroke-linecap="round"/>
<line x1="1036.97" y1="299.5" x2="1036.97" y2="648.5" stroke="#D1C1B4" stroke-linecap="round"/>
<line x1="1144.03" y1="299.5" x2="1144.03" y2="648.5" stroke="#D1C1B4" stroke-linecap="round"/>
<line x1="1152.27" y1="299.5" x2="1152.27" y2="648.5" stroke="#D1C1B4" stroke-linecap="round"/>
<line x1="1167.36" y1="299.5" x2="1167.36" y2="648.5" stroke="#D1C1B4" stroke-linecap="round"/>
<line x1="1185.21" y1="299.5" x2="1185.21" y2="648.5" stroke="#D1C1B4" stroke-linecap="round"/>
<line x1="1190.7" y1="299.5" x2="1190.7" y2="648.5" stroke="#D1C1B4" stroke-linecap="round"/>
<line x1="1198.93" y1="299.5" x2="1198.93" y2="648.5" stroke="#D1C1B4" stroke-linecap="round"/>
<line x1="1204.42" y1="299.5" x2="1204.42" y2="648.5" stroke="#D1C1B4" stroke-linecap="round"/>
<line x1="1216.77" y1="299.5" x2="1216.77" y2="648.5" stroke="#D1C1B4" stroke-linecap="round"/>
<line x1="1220.89" y1="299.5" x2="1220.89" y2="648.5" stroke="#D1C1B4" stroke-linecap="round"/>
<line x1="1233.25" y1="299.5" x2="1233.25" y2="648.5" stroke="#D1C1B4" stroke-linecap="round"/>
<line x1="1240.11" y1="299.5" x2="1240.11" y2="648.5" stroke="#D1C1B4" stroke-linecap="round"/>
<line x1="1246.97" y1="299.5" x2="1246.97" y2="648.5" stroke="#D1C1B4" stroke-linecap="round"/>
<line x1="1253.83" y1="299.5" x2="1253.83" y2="648.5" stroke="#D1C1B4" stroke-linecap="round"/>
<line x1="1160.5" y1="299.5" x2="1160.5" y2="648.5" stroke="#D1C1B4" stroke-linecap="round"/>
<line x1="1260.7" y1="299.5" x2="1260.7" y2="648.5" stroke="#D1C1B4" stroke-linecap="round"/>
<line x1="1268.93" y1="299.5" x2="1268.93" y2="648.5" stroke="#D1C1B4" stroke-linecap="round"/>
<line x1="1284.03" y1="299.5" x2="1284.03" y2="648.5" stroke="#D1C1B4" stroke-linecap="round"/>
<line x1="1301.87" y1="299.5" x2="1301.87" y2="648.5" stroke="#D1C1B4" stroke-linecap="round"/>
<line x1="1307.36" y1="299.5" x2="1307.36" y2="648.5" stroke="#D1C1B4" stroke-linecap="round"/>
<line x1="1315.6" y1="299.5" x2="1315.6" y2="648.5" stroke="#D1C1B4" stroke-linecap="round"/>
<line x1="1321.09" y1="299.5" x2="1321.09" y2="648.5" stroke="#D1C1B4" stroke-linecap="round"/>
<line x1="1333.44" y1="299.5" x2="1333.44" y2="648.5" stroke="#D1C1B4" stroke-linecap="round"/>
<line x1="1337.56" y1="299.5" x2="1337.56" y2="648.5" stroke="#D1C1B4" stroke-linecap="round"/>
<line x1="1349.91" y1="299.5" x2="1349.91" y2="648.5" stroke="#D1C1B4" stroke-linecap="round"/>
<line x1="1356.77" y1="299.5" x2="1356.77" y2="648.5" stroke="#D1C1B4" stroke-linecap="round"/>
<line x1="1363.64" y1="299.5" x2="1363.64" y2="648.5" stroke="#D1C1B4" stroke-linecap="round"/>
<line x1="1370.5" y1="299.5" x2="1370.5" y2="648.5" stroke="#D1C1B4" stroke-linecap="round"/>
<line x1="1277.17" y1="299.5" x2="1277.17" y2="648.5" stroke="#D1C1B4" stroke-linecap="round"/>
</svg>
