<svg width="207" height="150" viewBox="0 0 207 150" fill="none" xmlns="http://www.w3.org/2000/svg">
<path d="M88.5694 140.282C127.307 140.282 158.71 108.879 158.71 70.1409C158.71 31.4032 127.307 0 88.5694 0C49.8317 0 18.4285 31.4032 18.4285 70.1409C18.4285 108.879 49.8317 140.282 88.5694 140.282Z" fill="#F2F2F2"/>
<path d="M27.8307 150C43.2012 150 55.6614 148.006 55.6614 145.547C55.6614 143.088 43.2012 141.094 27.8307 141.094C12.4602 141.094 0 143.088 0 145.547C0 148.006 12.4602 150 27.8307 150Z" fill="#F2F2F2"/>
<path d="M163.599 145.474C187.382 145.474 206.662 142.389 206.662 138.584C206.662 134.778 187.382 131.694 163.599 131.694C139.817 131.694 120.537 134.778 120.537 138.584C120.537 142.389 139.817 145.474 163.599 145.474Z" fill="#F2F2F2"/>
<path d="M154.032 72.3571C154.032 72.3571 154.398 73.579 152.321 74.6788C150.243 75.7787 149.632 79.9338 152.076 81.1559C154.521 82.378 155.254 83.9666 154.032 85.0665C152.81 86.1664 150.61 89.0993 153.543 89.8325C156.476 90.5657 156.843 92.0322 155.987 92.6432C155.132 93.2543 157.942 91.5433 157.942 91.5433C157.942 91.5433 158.431 94.4763 160.997 93.7431C163.564 93.0099 170.774 79.0784 167.108 77.1231C163.442 75.1678 154.032 72.3571 154.032 72.3571Z" fill="#2F2E41"/>
<path d="M158.461 84.1573C158.461 84.1573 159.729 88.594 157.51 88.9109C156.134 89.1254 154.829 89.6691 153.708 90.4955L157.827 95.883H165.433L170.187 91.1292C170.187 91.1292 163.849 86.3756 165.116 83.5234C166.384 80.6713 158.461 84.1573 158.461 84.1573Z" fill="#FFB9B9"/>
<path opacity="0.1" d="M158.461 84.1573C158.461 84.1573 159.729 88.594 157.51 88.9109C156.134 89.1254 154.829 89.6691 153.708 90.4955L157.827 95.883H165.433L170.187 91.1292C170.187 91.1292 163.849 86.3756 165.116 83.5234C166.384 80.6713 158.461 84.1573 158.461 84.1573Z" fill="black"/>
<path d="M160.363 139.3L167.652 141.835L172.722 142.152L172.405 137.715L161.947 134.622L160.363 139.3Z" fill="#FFB9B9"/>
<path d="M169.711 138.349C169.711 138.349 169.711 142.786 170.345 142.786C170.979 142.786 179.536 141.835 182.071 142.786C184.606 143.737 188.41 140.251 186.508 138.349C184.606 136.448 181.505 133.595 179.57 134.229C177.634 134.863 169.711 136.448 169.711 136.448V138.349Z" fill="#575A89"/>
<path d="M146.418 134.229C146.418 134.229 142.615 141.835 145.151 142.469C147.686 143.103 150.538 142.152 150.855 141.835C151.172 141.518 155.609 140.251 156.243 140.884C156.876 141.518 156.877 138.349 156.877 138.349L146.418 134.229Z" fill="#575A89"/>
<path d="M149.588 123.771C149.588 123.771 143.566 132.011 148.003 134.229C152.44 136.448 173.673 136.448 175.257 134.229C176.842 132.011 177.476 125.039 175.257 124.405C173.039 123.771 149.588 123.771 149.588 123.771Z" fill="#2F2E41"/>
<path opacity="0.2" d="M149.588 123.771C149.588 123.771 143.566 132.011 148.003 134.229C152.44 136.448 173.673 136.448 175.257 134.229C176.842 132.011 177.476 125.039 175.257 124.405C173.039 123.771 149.588 123.771 149.588 123.771Z" fill="black"/>
<path d="M160.996 86.3756C165.022 86.3756 168.285 83.1123 168.285 79.0866C168.285 75.0611 165.022 71.7976 160.996 71.7976C156.971 71.7976 153.708 75.0611 153.708 79.0866C153.708 83.1123 156.971 86.3756 160.996 86.3756Z" fill="#FFB9B9"/>
<path d="M149.588 90.4955L155.926 89.2279C155.926 89.2279 157.51 94.2984 162.581 93.3478C167.652 92.397 168.919 89.2279 168.919 89.2279C168.919 89.2279 172.722 90.8124 173.039 90.8124C173.356 90.8124 177.476 92.397 177.476 93.3478C177.476 94.2984 172.722 103.806 172.722 103.806L173.356 120.919L149.905 120.285L151.489 103.489L149.588 90.4955Z" fill="#7EC845"/>
<path d="M146.102 98.7353C146.102 98.7353 144.2 115.532 145.468 116.799C146.735 118.067 151.806 121.553 151.806 121.553V117.75L149.271 112.996L151.806 101.904L146.102 98.7353Z" fill="#FFB9B9"/>
<path d="M178.902 98.2599C178.902 98.2599 177.793 115.531 177.793 116.165C177.793 116.799 174.941 119.018 173.99 119.018C173.039 119.018 172.405 117.433 172.405 117.433L174.624 114.898L173.039 101.904L178.902 98.2599Z" fill="#FFB9B9"/>
<path d="M175.891 122.504C175.891 122.504 190.151 114.581 190.469 122.504C190.787 130.426 183.18 133.595 183.18 133.595C183.18 133.595 163.532 139.487 162.739 137.334C161.947 135.18 160.363 131.694 161.63 131.377C162.898 131.06 164.482 130.426 165.116 131.06C165.75 131.694 173.673 126.306 173.673 126.306L175.891 122.504Z" fill="#2F2E41"/>
<path opacity="0.2" d="M182.547 121.553C182.547 121.553 179.694 122.82 178.743 123.771C177.793 124.722 173.673 126.306 173.673 126.306" stroke="black" stroke-width="2" stroke-miterlimit="10"/>
<path d="M151.489 91.1292L149.588 90.4955C149.588 90.4955 142.615 97.7845 144.834 99.6858C147.052 101.587 148.32 102.221 148.954 102.855C149.588 103.489 152.757 103.806 152.757 103.806L151.489 91.1292Z" fill="#7EC845"/>
<path d="M174.624 92.7139L177.476 93.3476C177.476 93.3476 179.694 98.1014 180.328 98.7351C180.962 99.369 179.377 99.0521 178.427 100.32C177.476 101.587 176.525 103.806 174.624 103.806C172.722 103.806 170.187 100.637 170.187 100.637L174.624 92.7139Z" fill="#7EC845"/>
<path d="M150.221 125.356C150.221 125.356 138.179 116.799 134.059 123.137C129.939 129.476 151.806 138.032 154.975 139.3C158.144 140.568 160.996 141.835 160.996 141.835C160.996 141.835 163.849 134.863 163.849 133.595C163.849 132.328 161.63 132.328 160.996 132.328C160.363 132.328 157.51 131.694 156.877 130.743C156.243 129.793 150.221 125.356 150.221 125.356Z" fill="#2F2E41"/>
<path opacity="0.2" d="M143.566 123.137C143.566 123.137 146.735 125.673 149.588 126.306C152.44 126.94 153.39 128.525 153.39 128.525" stroke="black" stroke-width="2" stroke-miterlimit="10"/>
<path d="M148.035 111.222L148.288 124.64C148.297 125.083 148.48 125.505 148.798 125.814C149.116 126.122 149.544 126.293 149.987 126.288L174.957 126.007C175.383 126.002 175.791 125.836 176.098 125.543C176.406 125.249 176.591 124.849 176.615 124.424L177.373 111.287C177.387 111.058 177.353 110.83 177.275 110.615C177.196 110.4 177.075 110.203 176.918 110.037C176.761 109.871 176.572 109.738 176.362 109.648C176.151 109.557 175.925 109.51 175.696 109.51H149.715C149.492 109.51 149.271 109.555 149.065 109.641C148.859 109.727 148.672 109.854 148.516 110.013C148.36 110.173 148.237 110.362 148.154 110.569C148.071 110.777 148.031 110.998 148.035 111.222Z" fill="#575A89"/>
<path d="M161.386 69.9303C161.386 69.9303 161.792 71.284 159.49 72.5026C157.189 73.7209 156.512 78.3239 159.22 79.6776C161.927 81.0314 162.74 82.7915 161.386 84.0098C160.032 85.2282 157.595 88.4774 160.844 89.2896C164.093 90.1019 164.5 91.7264 163.552 92.4034C162.604 93.0804 165.718 91.1851 165.718 91.1851C165.718 91.1851 166.26 94.4341 169.103 93.6218C171.945 92.8096 174.782 78.0441 171.613 74.2412C168.666 70.705 161.386 69.9303 161.386 69.9303Z" fill="#2F2E41"/>
<path d="M160.521 68.5367C160.522 66.5534 166.455 67.9786 169 70.7477C170.761 72.6654 173.437 75.5506 171.195 77.5843C168.953 79.6178 175.038 82.2839 176.671 83.0922C178.303 83.9004 181.525 86.3722 178.616 88.0304C175.706 89.6886 175.753 91.3626 176.848 91.759C177.943 92.1552 174.433 91.1697 174.433 91.1697C174.433 91.1697 174.788 94.4445 171.831 94.4287C168.875 94.4131 160.392 78.1639 162.418 73.6472C164.303 69.4478 160.521 68.5367 160.521 68.5367Z" fill="#2F2E41"/>
<path d="M161.806 68.1021C153.871 67.6243 153.075 73.5974 153.075 73.5974C153.13 77.054 158.619 75.3697 160.144 75.8849C161.983 74.5618 165.528 72.0582 168.064 70.2716C166.223 68.9754 164.055 68.2236 161.806 68.1021Z" fill="#2F2E41"/>
<path d="M159.546 106.217C159.546 106.217 152.428 72.858 107.876 48.6586" stroke="#3F3D56" stroke-width="2" stroke-miterlimit="10"/>
<path d="M109.711 47.931L109.801 48.2968L107.999 48.7338L108.566 50.4994L108.208 50.6142L107.517 48.4638L109.711 47.931Z" fill="#3F3D56"/>
<path d="M12.8761 140.303C12.8761 144.528 10.3645 146.003 7.26594 146.003C7.19416 146.003 7.1225 146.002 7.05095 146.001C6.90739 145.998 6.76519 145.991 6.62471 145.981C3.82836 145.783 1.65582 144.232 1.65582 140.303C1.65582 136.236 6.85235 131.105 7.2427 130.725L7.24338 130.725C7.25842 130.71 7.26594 130.703 7.26594 130.703C7.26594 130.703 12.8761 136.078 12.8761 140.303Z" fill="#7EC845"/>
<path d="M7.06157 145.357L9.11344 142.49L7.05643 145.672L7.05098 146.001C6.90741 145.998 6.76523 145.991 6.62474 145.981L6.8459 141.754L6.84419 141.721L6.84795 141.715L6.86878 141.316L4.80664 138.126L6.87527 141.017L6.88007 141.101L7.04722 137.907L5.28177 134.611L7.06875 137.347L7.24273 130.725L7.24341 130.703V130.725L7.21435 135.946L8.97196 133.876L7.20717 136.396L7.16069 139.255L8.80172 136.511L7.15386 139.676L7.12789 141.266L9.51029 137.446L7.119 141.821L7.06157 145.357Z" fill="#3F3D56"/>
<path d="M39.6349 139.208L40.835 138.317C40.835 138.317 41.6293 142.754 40.743 143.419C39.8566 144.084 36.5325 145.192 36.5325 146.521C36.5325 147.851 28.9979 149.624 28.7764 147.629C28.5547 145.635 29.4411 144.527 29.4411 144.527C29.4411 144.527 32.9867 140.981 33.4299 140.316C33.8732 139.651 34.9813 138.322 34.9813 138.322L39.6349 139.208Z" fill="#2F2E41"/>
<path d="M21.9066 84.0288C21.9066 84.0288 21.9398 84.2238 21.9974 84.5805C22.0506 84.8974 22.1237 85.3451 22.2125 85.8969C23.1431 91.5766 25.8578 108.297 25.6739 108.848C25.4523 109.513 23.9012 111.951 25.6739 112.616C25.8446 112.68 26.0285 112.888 26.2258 113.216C26.6064 113.923 26.9202 114.663 27.163 115.428C28.2202 118.495 29.3503 123.403 30.004 126.803C30.29 128.296 30.485 129.497 30.5425 130.127C30.5625 130.272 30.5647 130.42 30.5491 130.566C30.3276 131.452 31.8788 134.555 32.5435 135.441C33.2085 136.327 34.3164 137.214 34.0949 138.1C33.8732 138.987 39.6349 141.424 40.2998 139.873C40.9646 138.322 40.9646 137.435 41.1861 136.992C41.4078 136.549 41.6293 133.447 40.5214 133.003C39.4134 132.56 40.0781 124.804 38.9702 123.253C38.6001 122.736 38.035 120.988 37.4432 118.885C37.2106 118.061 36.9758 117.183 36.7452 116.303C35.8101 112.698 34.9813 109.07 34.9813 109.07L35.2029 83.1424L23.0147 81.5912L22.7022 82.2804L22.0796 83.6477L21.9066 84.0288Z" fill="#2F2E41"/>
<path d="M21.2418 126.577C21.2418 126.577 19.4689 124.804 18.5826 126.577C17.6961 128.35 16.8097 135.219 15.2585 136.77C13.7073 138.322 11.7128 146.078 13.9289 146.521C16.1449 146.964 18.5826 145.856 18.8042 144.527C19.0257 143.197 23.6794 136.327 23.6794 135.662C23.6794 134.998 20.5771 132.56 20.5771 132.56L21.2418 126.577Z" fill="#2F2E41"/>
<path d="M48.4991 71.8404C48.4991 71.8404 45.6183 97.7681 44.9533 100.206C44.2886 102.643 40.743 111.951 39.6348 113.502C38.5269 115.053 31.4355 127.685 30.5491 128.35C29.6628 129.014 27.8899 130.787 27.8899 130.787C27.8899 130.787 24.5658 134.111 24.1226 134.776C23.6794 135.441 19.9121 133.447 19.6906 132.117C19.4689 130.787 19.9121 128.571 20.1338 127.685C20.3553 126.798 19.6906 125.469 20.3553 124.804C21.0202 124.139 24.3441 120.815 24.3441 119.264C24.3441 117.713 30.1058 108.627 32.322 106.632C34.5381 104.638 34.0948 101.314 34.0948 101.314V87.7961L21.9065 84.0288C21.9065 84.0288 22.5714 73.3918 24.1226 73.3918C25.6738 73.3918 46.0615 69.846 48.4991 71.8404Z" fill="#2F2E41"/>
<path d="M30.5491 34.8326C34.5879 34.8326 37.8622 31.5585 37.8622 27.5197C37.8622 23.4808 34.5879 20.2068 30.5491 20.2068C26.5103 20.2068 23.2362 23.4808 23.2362 27.5197C23.2362 31.5585 26.5103 34.8326 30.5491 34.8326Z" fill="#9F616A"/>
<path d="M32.9867 33.2814C32.9867 33.2814 33.8732 36.6054 34.9813 37.4919C36.0893 38.3783 32.1005 42.1456 32.1005 42.1456L24.5659 42.5887L23.2362 38.3783C23.2362 38.3783 25.6738 33.5031 25.0091 30.4005C24.3442 27.2981 32.9867 33.2814 32.9867 33.2814Z" fill="#9F616A"/>
<path d="M36.0893 37.0487C36.0893 37.0487 34.0949 37.2702 33.6517 37.9351C33.2085 38.5999 30.1059 40.5943 27.6683 40.1511C25.2306 39.7079 23.6794 39.0431 23.2362 39.2646C22.793 39.4863 21.9066 44.1401 21.9066 44.1401L24.3442 51.2313L23.901 70.7325L23.2362 76.051C23.2362 76.051 21.9066 74.2781 27.225 75.3863C32.5435 76.4942 39.4134 74.4998 41.6293 74.2781C43.8454 74.0566 47.6127 73.3919 47.8342 72.0622C48.056 70.7325 47.1695 65.8573 47.1695 65.8573L43.6239 51.0098L41.4078 43.0319L36.0893 37.0487Z" fill="#7EC845"/>
<path d="M33.9932 36.0485C33.9932 36.0485 35.8676 35.0543 36.5325 35.9407C37.1973 36.8272 45.6183 38.1567 45.6183 38.8216C45.6183 39.4863 47.391 57.4362 46.948 58.9876C46.5048 60.5388 47.8342 62.3116 47.8342 62.3116L49.3856 68.9596C49.3856 68.9596 53.5959 81.5912 51.8232 82.0344C50.0504 82.4776 48.4992 82.0344 47.8342 82.0344C47.1695 82.0344 47.391 73.6134 45.6183 71.3974C43.8454 69.1813 41.4078 63.6411 40.9646 62.5332C40.5213 61.4252 34.9813 46.1345 35.2029 44.3616C35.4246 42.5889 33.9932 36.0485 33.9932 36.0485Z" fill="#D0CDE1"/>
<path d="M24.7874 37.0487C24.7874 37.0487 23.0147 37.0487 22.793 37.4919C22.5715 37.9352 20.3554 40.816 19.4689 41.4807C18.5826 42.1457 15.4801 45.0263 15.4801 45.6913C15.4801 46.356 21.9066 51.2313 21.9066 51.2313C21.9066 51.2313 24.5659 64.3061 23.2362 68.7381C21.9066 73.1701 19.9121 83.8071 20.7986 84.472C21.685 85.1368 23.6794 85.3583 23.6794 84.472C23.6794 83.5856 25.0091 74.0566 26.1171 72.0622C27.2252 70.0678 30.5491 57.4362 29.2196 53.8906C27.89 50.345 24.7874 37.0487 24.7874 37.0487Z" fill="#D0CDE1"/>
<path d="M54.0392 58.9875C54.0392 58.9875 54.2609 65.8572 51.8232 69.4028C49.3854 72.9486 47.8342 76.9374 47.8342 76.9374C47.8342 76.9374 43.8454 75.8295 43.1807 74.4998C42.5158 73.1701 38.3052 74.2781 38.3052 73.835C38.3052 73.3918 43.4022 71.1757 43.8454 70.7325C44.2887 70.2893 45.8398 70.2893 46.7263 69.4028C47.6127 68.5164 47.8342 66.522 47.8342 66.522L48.7207 60.7603L54.0392 58.9875Z" fill="#9F616A"/>
<path d="M35.5859 23.0108C36.1485 22.9596 36.7288 22.9034 37.226 22.6352C38.34 22.0344 38.6354 20.3234 37.7873 19.3837C37.5536 19.1447 37.292 18.9345 37.0083 18.7574L35.3238 17.6108C34.5787 17.1037 33.8162 16.5883 32.9472 16.3493C32.1614 16.1331 31.3312 16.1553 30.5177 16.2058C28.9383 16.304 27.3493 16.5068 25.8638 17.0521C24.3784 17.5973 22.9927 18.5096 22.0931 19.8114C20.6668 21.875 20.6472 24.6582 21.4327 27.0406C22.2183 29.4229 23.7105 31.4974 25.1808 33.53L25.9437 29.8077C26.0116 29.4761 26.0994 29.1126 26.3753 28.9165C27.0605 28.4289 27.8988 29.4301 28.7399 29.4237C29.2804 29.4195 29.7341 28.975 29.9389 28.4748C30.1439 27.9746 30.1572 27.4208 30.2046 26.8824C30.305 25.7419 30.7037 24.1554 31.7836 23.5264C32.7899 22.9404 34.4548 23.1134 35.5859 23.0108Z" fill="#2F2E41"/>
<path opacity="0.1" d="M35.1758 84.2077C35.1758 84.2077 34.4272 105.857 33.984 106.521C33.5409 107.186 33.984 84.1396 33.984 84.1396L35.1758 84.2077Z" fill="black"/>
<path d="M43.8454 38.8216H45.6183C45.6183 38.8216 53.1527 49.0153 52.2664 49.6801C51.38 50.345 52.2664 52.1177 52.2664 52.1177L54.0391 55.4418C54.0391 55.4418 56.2553 57.4362 55.5903 57.8794C54.9256 58.3227 54.0391 60.0955 54.0391 60.0955C54.0391 60.0955 49.6071 59.4308 48.2774 62.0899L45.4034 58.4614L43.8454 38.8216Z" fill="#D0CDE1"/>
<path d="M44.4719 42.1003L38.3887 44.6124L43.0699 55.9489L49.1533 53.4368L44.4719 42.1003Z" fill="#2F2E41"/>
<path d="M43.7591 48.7493C44.431 48.4717 44.7691 47.7464 44.5141 47.1292C44.2593 46.5119 43.5078 46.2364 42.836 46.514C42.1639 46.7913 41.826 47.5166 42.0808 48.134C42.3358 48.7513 43.087 49.0268 43.7591 48.7493Z" fill="#7EC845"/>
<path d="M39.4134 56.5497C39.4134 56.5497 23.4579 69.846 20.7986 65.6355C18.1393 61.4252 23.6794 57.8794 23.6794 57.8794C23.6794 57.8794 28.5547 58.1011 34.0949 54.5553L39.6349 52.1177C39.6349 52.1177 44.6926 44.8969 46.4162 47.6465C48.1396 50.3961 43.4742 55.1817 39.4134 56.5497Z" fill="#9F616A"/>
<path d="M17.9177 44.8048L15.4801 45.6913V52.3394L14.5937 53.6691C14.5937 53.6691 14.8153 56.3282 15.4801 56.993C16.1449 57.6579 17.4745 57.4362 17.0313 58.9876C16.765 59.9989 16.6898 61.051 16.8097 62.0899C16.8097 62.0899 20.7986 67.1869 21.0203 66.522C21.2418 65.8572 24.3442 57.6579 24.7874 57.6579C25.2306 57.6579 20.3554 44.8048 20.3554 44.8048H17.9177Z" fill="#D0CDE1"/>
<path d="M47.0587 78.3778C47.0587 78.3778 49.35 76.1617 48.2043 76.051C47.0587 75.9402 43.0697 73.7241 42.405 74.8322C41.7402 75.9402 47.0587 78.3778 47.0587 78.3778Z" fill="#2F2E41"/>
<path d="M90.6379 36.1047C92.4034 36.1047 93.8346 35.3471 93.8346 34.4123C93.8346 33.4777 92.4034 32.7199 90.6379 32.7199C88.8723 32.7199 87.4411 33.4777 87.4411 34.4123C87.4411 35.3471 88.8723 36.1047 90.6379 36.1047Z" fill="#57B894"/>
<path d="M102.861 40.0536C95.6525 37.3313 88.4439 37.3313 81.2356 40.0536V31.2155C88.2869 29.0878 95.8095 29.0878 102.861 31.2155V40.0536Z" stroke="#3F3D56" stroke-width="2" stroke-miterlimit="10"/>
<path d="M99.8521 38.2259C94.6494 36.261 89.447 36.261 84.2443 38.2259V31.8472C89.3336 30.3114 94.7628 30.3114 99.8521 31.8472V38.2259Z" stroke="#3F3D56" stroke-width="2" stroke-miterlimit="10"/>
<path d="M91.7661 35.3525C93.5317 35.3525 94.9629 34.5949 94.9629 33.6601C94.9629 32.7255 93.5317 31.9677 91.7661 31.9677C90.0005 31.9677 88.5693 32.7255 88.5693 33.6601C88.5693 34.5949 90.0005 35.3525 91.7661 35.3525Z" stroke="#3F3D56" stroke-width="2" stroke-miterlimit="10"/>
<path d="M92.9884 46.7037C94.7182 46.3505 95.9691 45.3219 95.7822 44.4061C95.5953 43.4904 94.0413 43.0342 92.3114 43.3873C90.5816 43.7403 89.3307 44.7689 89.5176 45.6847C89.7046 46.6004 91.2586 47.0566 92.9884 46.7037Z" fill="#57B894"/>
<path d="M105.754 48.1285C98.1469 46.9027 91.0841 48.344 84.5657 52.453L82.7985 43.7935C89.2819 40.2985 96.6523 38.7943 103.987 39.469L105.754 48.1285Z" stroke="#3F3D56" stroke-width="2" stroke-miterlimit="10"/>
<path d="M102.441 46.9395C96.9504 46.0545 91.8528 47.095 87.1481 50.0605L85.8726 43.8106C90.5519 41.2882 95.8716 40.2024 101.165 40.6894L102.441 46.9395Z" stroke="#3F3D56" stroke-width="2" stroke-miterlimit="10"/>
<path d="M93.9435 45.7411C95.6733 45.388 96.9242 44.3594 96.7373 43.4436C96.5503 42.5278 94.9965 42.0716 93.2665 42.4246C91.5367 42.7777 90.286 43.8063 90.4729 44.7221C90.6598 45.6379 92.2136 46.0941 93.9435 45.7411Z" stroke="#3F3D56" stroke-width="2" stroke-miterlimit="10"/>
<path d="M95.1762 55.7865C95.241 54.8541 93.8659 53.9989 92.1044 53.8763C90.3432 53.7537 88.8629 54.4102 88.798 55.3427C88.7332 56.2752 90.1083 57.1304 91.8696 57.2528C93.6308 57.3755 95.1113 56.719 95.1762 55.7865Z" fill="#57B894"/>
<path d="M103.789 62.0409C96.7869 58.8246 89.5959 58.3242 82.2159 60.5397L82.8293 51.7228C90.0115 50.0897 97.5158 50.6119 104.402 53.224L103.789 62.0409Z" stroke="#3F3D56" stroke-width="2" stroke-miterlimit="10"/>
<path d="M100.914 60.0087C95.8606 57.6873 90.6706 57.3262 85.3442 58.9252L85.787 52.5617C90.9707 51.383 96.3868 51.7599 101.357 53.6452L100.914 60.0087Z" stroke="#3F3D56" stroke-width="2" stroke-miterlimit="10"/>
<path d="M96.3538 55.1144C96.4187 54.1821 95.0435 53.3268 93.2823 53.2042C91.5209 53.0816 90.0406 53.7383 89.9757 54.6706C89.9108 55.6031 91.286 56.4584 93.0472 56.581C94.8085 56.7034 96.289 56.0469 96.3538 55.1144Z" stroke="#3F3D56" stroke-width="2" stroke-miterlimit="10"/>
<path d="M78.0241 40.259C78.0241 40.259 64.2035 38.3682 54.3338 44.1521" stroke="#3F3D56" stroke-width="2" stroke-miterlimit="10"/>
<path d="M54.6663 42.2085L55.0253 42.3221L54.4642 44.0895L56.2683 44.52L56.1805 44.8861L53.9835 44.3612L54.6663 42.2085Z" fill="#3F3D56"/>
<path d="M48.2148 128.142C48.2148 128.493 48.1372 128.813 47.9817 129.104C47.8312 129.39 47.6206 129.618 47.3498 129.789L48.1923 131.444H46.3946L45.7176 130.097H45.2813V131.444H43.7168V126.178H46.2592C46.8209 126.178 47.2872 126.364 47.6582 126.735C48.0292 127.106 48.2148 127.575 48.2148 128.142ZM45.2813 127.397V128.886H45.9282C46.1289 128.886 46.2943 128.816 46.4247 128.676C46.56 128.535 46.6277 128.357 46.6277 128.142C46.6277 127.926 46.56 127.748 46.4247 127.608C46.2943 127.467 46.1313 127.397 45.9357 127.397H45.2813ZM52.7627 129.383C52.7627 129.568 52.7501 129.751 52.7251 129.932H49.9721C49.9821 130.127 50.0498 130.28 50.1752 130.391C50.3055 130.501 50.4761 130.556 50.6867 130.556C51.0026 130.556 51.1982 130.463 51.2734 130.278H52.7025C52.6373 130.674 52.4216 130.99 52.0557 131.226C51.6895 131.456 51.2332 131.572 50.6867 131.572C50.0047 131.572 49.4682 131.399 49.077 131.053C48.6908 130.701 48.4978 130.21 48.4978 129.578C48.4978 128.956 48.6934 128.467 49.0846 128.112C49.4757 127.75 49.9996 127.57 50.6566 127.57C51.2783 127.57 51.7849 127.738 52.176 128.074C52.5672 128.41 52.7627 128.846 52.7627 129.383ZM49.9721 129.119H51.2884C51.2834 128.914 51.2256 128.753 51.1154 128.638C51.0051 128.523 50.8471 128.465 50.6416 128.465C50.4409 128.465 50.2805 128.525 50.1602 128.646C50.0447 128.766 49.9821 128.924 49.9721 129.119ZM54.9862 131.572C54.3844 131.572 53.913 131.459 53.5721 131.233C53.2311 131.007 53.0606 130.707 53.0606 130.33H54.5273C54.5273 130.436 54.57 130.521 54.6552 130.586C54.7404 130.651 54.8532 130.684 54.9937 130.684C55.0939 130.684 55.1742 130.661 55.2344 130.616C55.2996 130.566 55.3322 130.501 55.3322 130.421C55.3322 130.3 55.247 130.218 55.0764 130.172L54.1889 129.969C53.8479 129.894 53.5847 129.761 53.3991 129.571C53.2185 129.375 53.1283 129.132 53.1283 128.841C53.1283 128.45 53.2838 128.142 53.5946 127.916C53.9105 127.685 54.3393 127.57 54.8809 127.57C55.4826 127.57 55.9414 127.673 56.2574 127.878C56.5733 128.079 56.7312 128.367 56.7312 128.743H55.2795C55.2795 128.528 55.1466 128.42 54.8809 128.42C54.7855 128.42 54.7079 128.44 54.6477 128.48C54.5875 128.52 54.5574 128.575 54.5574 128.646C54.5574 128.786 54.6627 128.881 54.8733 128.931L55.7534 129.157C56.4454 129.332 56.7914 129.691 56.7914 130.233C56.7914 130.644 56.6284 130.97 56.3025 131.211C55.9766 131.451 55.5377 131.572 54.9862 131.572ZM61.3936 129.383C61.3936 129.568 61.381 129.751 61.356 129.932H58.603C58.613 130.127 58.6807 130.28 58.8061 130.391C58.9364 130.501 59.107 130.556 59.3176 130.556C59.6335 130.556 59.8291 130.463 59.9043 130.278H61.3334C61.2682 130.674 61.0527 130.99 60.6866 131.226C60.3204 131.456 59.8643 131.572 59.3176 131.572C58.6356 131.572 58.0991 131.399 57.7079 131.053C57.3219 130.701 57.1288 130.21 57.1288 129.578C57.1288 128.956 57.3243 128.467 57.7155 128.112C58.1066 127.75 58.6307 127.57 59.2875 127.57C59.9094 127.57 60.4158 127.738 60.8069 128.074C61.1981 128.41 61.3936 128.846 61.3936 129.383ZM58.603 129.119H59.9193C59.9143 128.914 59.8567 128.753 59.7463 128.638C59.636 128.523 59.478 128.465 59.2725 128.465C59.0718 128.465 58.9114 128.525 58.7911 128.646C58.6758 128.766 58.613 128.924 58.603 129.119ZM61.9328 131.444V126.178H63.407V131.444H61.9328ZM64.2613 131.444V126.178H65.7356V131.444H64.2613ZM70.5388 129.383C70.5388 129.568 70.5262 129.751 70.5012 129.932H67.7482C67.7582 130.127 67.8259 130.28 67.9513 130.391C68.0816 130.501 68.2522 130.556 68.4628 130.556C68.7787 130.556 68.9743 130.463 69.0495 130.278H70.4787C70.4134 130.674 70.1979 130.99 69.8318 131.226C69.4657 131.456 69.0095 131.572 68.4628 131.572C67.7808 131.572 67.2443 131.399 66.8531 131.053C66.4671 130.701 66.274 130.21 66.274 129.578C66.274 128.956 66.4695 128.467 66.8607 128.112C67.2518 127.75 67.7759 127.57 68.4327 127.57C69.0546 127.57 69.561 127.738 69.9521 128.074C70.3433 128.41 70.5388 128.846 70.5388 129.383ZM67.7482 129.119H69.0646C69.0595 128.914 69.0019 128.753 68.8916 128.638C68.7812 128.523 68.6232 128.465 68.4177 128.465C68.217 128.465 68.0566 128.525 67.9363 128.646C67.821 128.766 67.7582 128.924 67.7482 129.119ZM71.078 131.444V127.705H72.5522V128.54C72.6175 128.254 72.7478 128.031 72.9434 127.871C73.1389 127.71 73.367 127.63 73.6279 127.63C73.7232 127.63 73.8159 127.638 73.9062 127.653V129.044C73.7807 129.024 73.6555 129.014 73.5301 129.014C73.2241 129.014 72.9834 129.102 72.808 129.277C72.6374 129.448 72.5522 129.751 72.5522 130.188V131.444H71.078Z" fill="#444053"/>
<path d="M174.446 63.1381C174.777 63.1782 175.043 63.306 175.243 63.5217C175.444 63.7374 175.544 64.0182 175.544 64.3642C175.544 64.8055 175.391 65.159 175.085 65.4247C174.779 65.6856 174.366 65.8159 173.844 65.8159H171.212V60.5506H173.784C174.301 60.5506 174.709 60.6734 175.01 60.9192C175.311 61.1649 175.461 61.4959 175.461 61.912C175.461 62.243 175.369 62.5162 175.183 62.7319C175.003 62.9476 174.757 63.083 174.446 63.1381ZM173.273 61.5585H172.776V62.6717H173.273C173.463 62.6717 173.613 62.6215 173.724 62.5213C173.839 62.4211 173.897 62.2831 173.897 62.1076C173.897 61.9371 173.842 61.8043 173.731 61.709C173.621 61.6087 173.468 61.5585 173.273 61.5585ZM173.31 64.7252C173.511 64.7252 173.666 64.6725 173.776 64.5672C173.892 64.4619 173.949 64.3215 173.949 64.146C173.949 63.9755 173.892 63.8401 173.776 63.7398C173.661 63.6345 173.508 63.5819 173.318 63.5819H172.776V64.7252H173.31ZM177.486 65.9212C177.014 65.9212 176.666 65.7833 176.44 65.5075C176.22 65.2316 176.109 64.848 176.109 64.3566V62.0775H177.606V64.0332C177.606 64.4695 177.774 64.6876 178.11 64.6876C178.466 64.6876 178.644 64.4544 178.644 63.9881V62.0775H180.126V65.8159H178.644V65.2593C178.448 65.7006 178.062 65.9212 177.486 65.9212ZM183.485 62.0775H184.959V65.5676C184.959 66.1745 184.771 66.6357 184.395 66.9517C184.049 67.2324 183.558 67.3729 182.921 67.3729C182.249 67.3729 181.753 67.245 181.432 66.9893C181.286 66.8689 181.166 66.7185 181.071 66.538C180.98 66.3625 180.935 66.182 180.935 65.9964H182.409C182.425 66.2521 182.595 66.38 182.921 66.38C183.297 66.38 183.485 66.1794 183.485 65.7783V65.0938C183.274 65.5201 182.886 65.7331 182.319 65.7331C181.397 65.7331 180.935 65.2015 180.935 64.1385V62.0775H182.409V63.9655C182.409 64.4018 182.58 64.6199 182.921 64.6199C183.297 64.6199 183.485 64.3617 183.485 63.8452V62.0775ZM189.762 63.7549C189.762 63.9405 189.749 64.1235 189.725 64.304H186.972C186.982 64.4995 187.05 64.6524 187.175 64.7628C187.305 64.8732 187.476 64.9283 187.687 64.9283C188.002 64.9283 188.198 64.8356 188.273 64.65H189.702C189.636 65.0462 189.422 65.3621 189.055 65.5977C188.688 65.8285 188.233 65.9437 187.687 65.9437C187.005 65.9437 186.468 65.7707 186.077 65.4247C185.691 65.0737 185.498 64.5823 185.498 63.9505C185.498 63.3286 185.693 62.8397 186.084 62.4837C186.476 62.1227 186.999 61.9421 187.656 61.9421C188.279 61.9421 188.784 62.1101 189.176 62.4461C189.567 62.7821 189.762 63.2184 189.762 63.7549ZM186.972 63.4916H188.288C188.282 63.2861 188.226 63.1255 188.115 63.0102C188.005 62.895 187.847 62.8372 187.641 62.8372C187.441 62.8372 187.28 62.8974 187.16 63.0178C187.045 63.1381 186.982 63.2961 186.972 63.4916ZM190.302 65.8159V62.0775H191.776V62.9124C191.842 62.6266 191.972 62.4034 192.167 62.243C192.363 62.0826 192.59 62.0023 192.852 62.0023C192.948 62.0023 193.04 62.0098 193.13 62.0249V63.4164C193.004 63.3963 192.88 63.3863 192.754 63.3863C192.448 63.3863 192.207 63.4741 192.032 63.6496C191.861 63.8201 191.776 64.1235 191.776 64.5597V65.8159H190.302Z" fill="#444053"/>
</svg>
