<svg width="219" height="151" viewBox="0 0 219 151" fill="none" xmlns="http://www.w3.org/2000/svg">
<path d="M165.194 35.7905H51.0261V108.908H165.194V35.7905Z" fill="#E6E6E6"/>
<path d="M161.93 44.9617H54.2914V104.583H161.93V44.9617Z" fill="white"/>
<path d="M165.145 35.7261H50.9779V40.5764H165.145V35.7261Z" fill="#7EC845"/>
<path d="M54.5819 39.1048C55.0784 39.1048 55.4809 38.7023 55.4809 38.2058C55.4809 37.7094 55.0784 37.3069 54.5819 37.3069C54.0855 37.3069 53.683 37.7094 53.683 38.2058C53.683 38.7023 54.0855 39.1048 54.5819 39.1048Z" fill="white"/>
<path d="M57.9942 39.1048C58.4907 39.1048 58.8931 38.7023 58.8931 38.2058C58.8931 37.7094 58.4907 37.3069 57.9942 37.3069C57.4977 37.3069 57.0952 37.7094 57.0952 38.2058C57.0952 38.7023 57.4977 39.1048 57.9942 39.1048Z" fill="white"/>
<path d="M61.4068 39.1048C61.9032 39.1048 62.3057 38.7023 62.3057 38.2058C62.3057 37.7094 61.9032 37.3069 61.4068 37.3069C60.9103 37.3069 60.5078 37.7094 60.5078 38.2058C60.5078 38.7023 60.9103 39.1048 61.4068 39.1048Z" fill="white"/>
<path d="M88.5873 49.8655H67.5348V72.7056H88.5873V49.8655Z" fill="#E6E6E6"/>
<path d="M118.636 49.8655H97.5837V72.7056H118.636V49.8655Z" fill="#E6E6E6"/>
<path d="M148.686 49.8655H127.633V72.7056H148.686V49.8655Z" fill="#E6E6E6"/>
<path d="M88.5873 76.8398H67.5348V99.6798H88.5873V76.8398Z" fill="#E6E6E6"/>
<path d="M118.636 76.8398H97.5837V99.6798H118.636V76.8398Z" fill="#E6E6E6"/>
<path d="M148.686 76.8398H127.633V99.6798H148.686V76.8398Z" fill="#E6E6E6"/>
<path d="M102.672 82.7099L106.519 81.1891L106.966 88.7927C106.966 88.7927 107.771 91.1185 107.503 92.0131C107.503 92.0131 107.682 93.5338 107.234 93.6232C106.787 93.7127 105.535 93.8916 105.445 93.8021C105.356 93.7127 105.356 93.4443 105.356 93.4443C105.356 93.4443 104.461 94.0705 104.372 94.7861C104.372 94.7861 100.615 95.949 100.525 94.8756C100.436 93.8021 102.404 92.9076 102.404 92.9076L103.925 90.5818L102.672 82.7099Z" fill="white"/>
<path d="M110.812 82.7099L114.659 81.1891L115.106 88.7927C115.106 88.7927 115.911 91.1185 115.643 92.0131C115.643 92.0131 115.822 93.5338 115.374 93.6232C114.927 93.7127 113.675 93.8916 113.585 93.8021C113.496 93.7127 113.496 93.4443 113.496 93.4443C113.496 93.4443 112.601 94.0705 112.512 94.7861C112.512 94.7861 108.755 95.949 108.665 94.8756C108.576 93.8021 110.544 92.9076 110.544 92.9076L112.065 90.5818L110.812 82.7099Z" fill="white"/>
<path d="M111.189 53.3473C111.189 53.3473 110.37 55.6358 111.319 56.6678L110.528 59.3864C110.528 59.3864 113.339 67.8193 112.536 68.9972C112.536 68.9972 109.537 70.4964 103.541 68.4618L105.977 59.0117L105.629 55.0228L106.111 53.1488L107.181 53.0417C107.181 53.0417 106.539 55.4511 107.717 55.8259C108.895 56.2007 110.044 53.1019 110.044 53.1019L111.189 53.3473Z" fill="#3F3D56"/>
<path d="M73.3643 68.1212L74.3978 68.5441L79.3308 62.0607L80.8812 69.6716L81.9148 69.4837C82.5778 62.9221 83.1185 56.2293 82.4551 53.0638L78.6261 52.8994L76.8878 58.4432L76.0422 62.2016L73.3643 68.1212Z" fill="white"/>
<path d="M136.096 53.0114C136.096 53.0114 134.685 54.9724 134.754 55.7637C134.823 56.555 135.717 69.4566 135.717 69.4566L137.816 69.5599L137.197 60.2707L137.713 57.7592L138.986 69.4566L141.566 69.5255L139.261 54.3531L138.814 53.0114L136.096 53.0114Z" fill="white"/>
<path d="M144.069 84.6034C143.694 84.1539 143.05 83.9109 142.432 83.7796C142.45 83.7234 140.552 83.3312 140.52 83.412L139.804 82.842L137.606 83.9836L136.37 83.1426L135.796 83.3463C135.82 83.2451 134.015 83.5576 134.015 83.5576C133.67 83.57 133.23 83.5916 132.737 83.6295C131.01 83.7623 130.877 88.2331 130.877 88.2331C131.672 87.9082 132.519 87.7309 133.377 87.7099L133.843 93.0581C136.243 92.8522 138.76 93.0918 141.368 93.6778L142.592 89.4739L145.441 88.3659C145.441 88.3659 144.954 85.6657 144.069 84.6034Z" fill="#3F3D56"/>
<path d="M82.9301 82.057C82.6215 81.6867 82.0911 81.4865 81.5816 81.3783C81.5969 81.332 80.0323 81.0088 80.0062 81.0754L79.4165 80.6057L77.6051 81.5464L76.587 80.8534L76.1142 81.0212C76.1334 80.9378 74.6462 81.1954 74.6462 81.1954C74.3621 81.2056 73.9992 81.2234 73.593 81.2546C72.1706 81.364 72.0612 85.0478 72.0612 85.0478C72.7156 84.7801 73.4135 84.634 74.1204 84.6167L74.5049 95.4033C76.4823 95.2337 78.5562 95.4311 80.7053 95.9139L81.7133 86.0701L84.0608 85.1572C84.0608 85.1572 83.6596 82.9324 82.9301 82.057Z" fill="white"/>
<path d="M159.528 144.208L145.287 147.123L144.962 147.09L132.447 145.827V129.967L147.767 127.377L158.881 128.673L158.885 128.743V128.777L159.528 144.208Z" fill="#E6E6E6"/>
<path opacity="0.1" d="M159.527 144.208L145.286 147.123L144.962 147.09V130.831L158.884 128.744L159.527 144.208Z" fill="black"/>
<path opacity="0.05" d="M158.885 128.777L158.881 128.781L144.962 130.831L132.447 129.967L147.767 127.377L158.881 128.673L158.885 128.743V128.777Z" fill="black"/>
<path d="M142.828 136.067L134.17 135.502L133.905 139.566L142.563 140.131L142.828 136.067Z" fill="white"/>
<path d="M140.71 137.26L136.115 136.96L136.023 138.374L140.618 138.674L140.71 137.26Z" fill="#7EC845"/>
<path d="M178.829 144.208L164.588 147.123L164.264 147.09L151.749 145.827V129.967L167.069 127.377L178.182 128.673L178.186 128.743V128.777L178.829 144.208Z" fill="#7EC845"/>
<path opacity="0.1" d="M178.829 144.208L164.588 147.123L164.263 147.09V130.831L178.186 128.744L178.829 144.208Z" fill="black"/>
<path opacity="0.05" d="M178.186 128.777L178.182 128.781L164.264 130.831L151.749 129.967L167.069 127.377L178.182 128.673L178.186 128.743V128.777Z" fill="black"/>
<path d="M162.13 136.067L153.472 135.502L153.206 139.566L161.865 140.131L162.13 136.067Z" fill="white"/>
<path d="M160.012 137.26L155.417 136.96L155.325 138.374L159.919 138.674L160.012 137.26Z" fill="#7EC845"/>
<path d="M189.134 65.0543C189.134 65.0543 191.647 71.5454 187.04 71.5454C182.434 71.5454 194.16 78.0364 198.766 74.2674C203.373 70.4984 200.651 70.289 200.651 70.289C200.651 70.289 194.578 70.9172 194.788 65.473L189.134 65.0543Z" fill="#FFB8B8"/>
<path d="M192.408 67.0082C196.498 67.0082 199.813 63.6927 199.813 59.6028C199.813 55.513 196.498 52.1974 192.408 52.1974C188.318 52.1974 185.002 55.513 185.002 59.6028C185.002 63.6927 188.318 67.0082 192.408 67.0082Z" fill="#2F2E41"/>
<path d="M187.878 92.0657L179.921 112.586C179.921 112.586 175.943 118.868 177.408 125.149C178.874 131.431 182.902 142.864 182.902 142.864C182.902 142.864 185.945 143.638 185.735 140.916C185.526 138.194 185.866 124.997 182.725 121.437L195.416 106.932L195.835 123.474C195.835 123.474 194.997 131.012 195.207 134.362C195.416 137.713 195.835 143.366 195.835 143.366L198.348 142.947C198.348 142.947 201.737 127.525 201.318 122.5C201.318 122.5 209.098 98.0819 201.141 92.219L187.878 92.0657Z" fill="#2F2E41"/>
<path d="M183.777 142.83C183.777 142.83 182.752 142.569 182.634 143.508C182.516 144.448 180.361 148.627 182.611 148.836C184.861 149.045 185.639 146.94 186.016 145.46C186.393 143.98 186.536 143.896 186.85 143.612C187.165 143.329 187.914 141.775 186.974 141.657C186.035 141.539 185.553 140.615 185.553 140.615C185.553 140.615 185.257 143.206 183.777 142.83Z" fill="#2F2E41"/>
<path d="M197.475 142.103C197.475 142.103 195.575 141.831 195.711 142.51C195.847 143.189 195.439 146.039 195.711 146.31C195.982 146.581 196.525 147.124 196.525 147.531C196.525 147.939 196.661 149.296 198.968 148.889C201.275 148.481 200.732 146.446 200.597 146.174C200.461 145.903 198.832 144.546 198.968 143.731C199.104 142.917 198.29 141.56 197.475 142.103Z" fill="#2F2E41"/>
<path d="M192.499 67.8203C195.332 67.8203 197.628 65.5239 197.628 62.6911C197.628 59.8582 195.332 57.5618 192.499 57.5618C189.666 57.5618 187.37 59.8582 187.37 62.6911C187.37 65.5239 189.666 67.8203 192.499 67.8203Z" fill="#FFB8B8"/>
<path d="M197.405 69.7656C197.405 69.7656 199.194 73.3052 193.802 73.4055C192.144 73.4364 190.172 72.2283 189.359 70.7837C188.879 69.9327 188.758 71.108 187.983 71.0219C186.514 70.8588 184.946 71.4679 183.542 72.2142C183.361 72.3105 183.219 72.4666 183.14 72.6561C183.061 72.8456 183.05 73.0565 183.11 73.253C184.174 76.7846 187.214 93.773 187.683 94.698C188.881 97.06 201.849 93.1043 201.849 93.1043C202.027 86.6774 199.694 77.6858 203.797 71.1464C202.895 70.4682 201.856 69.9936 200.753 69.7553C199.649 69.5169 198.507 69.5204 197.405 69.7656Z" fill="#575A89"/>
<path d="M197.296 58.7469L193.537 56.7785L188.348 57.5837L187.274 62.3261L189.947 62.2232L190.694 60.4809V62.1945L191.927 62.147L192.643 59.3732L193.09 62.3261L197.474 62.2364L197.296 58.7469Z" fill="#2F2E41"/>
<path d="M192.797 54.1461C194.448 54.1461 195.785 52.8083 195.785 51.158C195.785 49.5077 194.448 48.1699 192.797 48.1699C191.147 48.1699 189.809 49.5077 189.809 51.158C189.809 52.8083 191.147 54.1461 192.797 54.1461Z" fill="#2F2E41"/>
<path d="M189.03 50.2485C189.03 49.5347 189.285 48.8446 189.75 48.3028C190.214 47.761 190.858 47.4035 191.563 47.2947C191.137 47.2296 190.703 47.2572 190.289 47.3757C189.875 47.4942 189.491 47.7008 189.164 47.9813C188.838 48.2619 188.575 48.6097 188.396 49.001C188.216 49.3923 188.123 49.8178 188.123 50.2485C188.123 50.6791 188.216 51.1046 188.396 51.4959C188.575 51.8872 188.838 52.235 189.164 52.5156C189.491 52.7961 189.875 53.0027 190.289 53.1212C190.703 53.2397 191.137 53.2673 191.563 53.2022C190.858 53.0935 190.214 52.7359 189.75 52.1941C189.285 51.6523 189.03 50.9622 189.03 50.2485Z" fill="#2F2E41"/>
<path d="M206.276 121.365L192.035 124.28L191.711 124.247L179.196 122.984V107.124L194.516 104.534L205.629 105.83L205.633 105.9V105.933L206.276 121.365Z" fill="#E6E6E6"/>
<path opacity="0.1" d="M206.276 121.365L192.035 124.28L191.711 124.247V107.988L205.634 105.9L206.276 121.365Z" fill="black"/>
<path opacity="0.05" d="M205.633 105.933L205.629 105.937L191.711 107.988L179.196 107.124L194.516 104.534L205.629 105.83L205.633 105.9V105.933Z" fill="black"/>
<path d="M189.578 113.224L180.919 112.659L180.654 116.723L189.312 117.288L189.578 113.224Z" fill="white"/>
<path d="M187.459 114.417L182.865 114.117L182.772 115.531L187.367 115.83L187.459 114.417Z" fill="#7EC845"/>
<path d="M184.092 103.051C184.092 103.051 178.858 107.239 181.161 108.704C183.464 110.17 186.186 103.051 186.186 103.051H184.092Z" fill="#FFB8B8"/>
<path d="M184.319 72.0317C184.048 71.7261 180.623 73.4724 181.131 75.7504L181.37 91.5343C181.37 91.5343 180.114 104.516 183.255 104.516C186.395 104.516 186.025 104.953 186.444 103.906C186.862 102.859 186.975 93.9896 186.975 93.9896L184.319 72.0317Z" fill="#575A89"/>
<path d="M200.513 101.634C200.513 101.634 203.235 108.753 205.539 107.288C207.842 105.822 202.607 101.634 202.607 101.634H200.513Z" fill="#FFB8B8"/>
<path d="M201.141 92.7502C201.141 92.7502 199.837 101.443 200.256 102.49C200.675 103.536 200.304 103.1 203.445 103.1C206.586 103.1 205.329 90.1178 205.329 90.1178L205.568 74.3339C206.076 72.0559 202.652 70.3096 202.381 70.6152L199.37 80.8858L201.141 92.7502Z" fill="#575A89"/>
<path d="M14.3092 128.516C9.23681 128.516 5.01001 130.664 5.01001 137.143C5.01001 142.277 7.85226 145.509 14.4399 145.509C22.194 145.509 22.691 140.411 22.691 140.411H18.9339C18.9339 140.411 18.1284 143.156 14.2108 143.156C11.02 143.156 8.72516 141.005 8.72516 137.99H23.0842V136.098C23.0842 133.115 21.1868 128.516 14.3092 128.516ZM14.1779 130.935C17.2152 130.935 19.2858 132.792 19.2858 135.575H8.80815C8.80815 132.62 11.511 130.935 14.1779 130.935Z" fill="#E53238"/>
<path d="M23.0813 122.242V142.255C23.0813 143.391 23 144.986 23 144.986H26.5835C26.5835 144.986 26.7123 143.841 26.7123 142.794C26.7123 142.794 28.4828 145.558 33.297 145.558C38.3665 145.558 41.8101 142.045 41.8101 137.013C41.8101 132.331 38.6471 128.565 33.3052 128.565C28.3029 128.565 26.7485 131.261 26.7485 131.261V122.242H23.0813ZM32.3802 131.041C35.8229 131.041 38.0122 133.591 38.0122 137.013C38.0122 140.682 35.4837 143.083 32.4049 143.083C28.7306 143.083 26.7485 140.219 26.7485 137.045C26.7485 134.088 28.5269 131.041 32.3802 131.041Z" fill="#0064D2"/>
<path d="M50.7165 128.516C43.0857 128.516 42.5963 132.686 42.5963 133.353H46.3945C46.3945 133.353 46.5936 130.918 50.4546 130.918C52.9634 130.918 54.9076 132.065 54.9076 134.268V135.052H50.4546C44.5429 135.052 41.4176 136.778 41.4176 140.281C41.4176 143.728 44.3052 145.603 48.2077 145.603C53.5261 145.603 55.2393 142.67 55.2393 142.67C55.2393 143.837 55.3293 144.986 55.3293 144.986H58.7057C58.7057 144.986 58.575 143.562 58.575 142.65V134.77C58.575 129.604 54.3993 128.516 50.7165 128.516ZM54.9076 137.405V138.451C54.9076 139.814 54.0642 143.205 49.0998 143.205C46.3813 143.205 45.2157 141.851 45.2157 140.281C45.2157 137.423 49.1408 137.405 54.9076 137.405Z" fill="#F5AF02"/>
<path d="M56.5295 129.17H60.8024L66.9347 141.432L73.0529 129.17H76.9238L65.7795 151H61.7192L64.9349 144.915L56.5295 129.17Z" fill="#86B817"/>
<path d="M218.417 5.98227C218.405 5.94161 218.393 5.90095 218.377 5.86029C208.726 5.86436 199.079 5.86029 189.432 5.86436C189.407 5.89282 189.391 5.92128 189.387 5.95787C189.387 13.4269 189.387 20.8917 189.383 28.3608C189.444 28.7592 189.664 29.121 189.957 29.3935C189.97 29.3976 189.998 29.4015 190.01 29.4057C190.161 29.5641 190.377 29.6415 190.581 29.7147C190.731 29.7066 190.878 29.7716 191.029 29.7553H203.006C203.12 29.7512 203.238 29.7716 203.348 29.7269C203.352 29.7107 203.356 29.6822 203.36 29.6659C203.364 29.6456 203.368 29.6009 203.373 29.5765C203.629 28.1454 203.878 26.7101 204.151 25.2789L204.175 25.096C203.067 25.0918 201.955 25.096 200.847 25.0918C200.578 25.0837 200.301 25.0918 200.032 25.0592C199.572 25.0389 199.107 25.0552 198.647 25.0105C198.077 25.0105 197.51 24.9576 196.94 24.9576C196.492 24.9129 196.04 24.9292 195.587 24.9088C195.294 24.8723 194.993 24.8885 194.695 24.8763C194.211 24.8235 193.718 24.8601 193.233 24.8072C192.72 24.8113 192.206 24.7665 191.693 24.7543C191.697 24.7502 191.701 24.734 191.701 24.7299C191.872 24.734 192.039 24.7218 192.21 24.7178C192.589 24.6689 192.972 24.7015 193.351 24.6486C193.746 24.6486 194.137 24.5958 194.532 24.5958C194.883 24.5469 195.237 24.5754 195.587 24.5266C195.999 24.5266 196.402 24.4738 196.814 24.4697C197.152 24.425 197.494 24.4494 197.832 24.4046C198.227 24.4087 198.619 24.3477 199.014 24.3518C199.401 24.307 199.796 24.3192 200.183 24.2785C200.146 24.1282 200.118 23.9777 200.085 23.8272C200.057 23.7337 199.943 23.7541 199.869 23.7418C198.985 23.6157 198.105 23.4898 197.225 23.3678C197.282 23.323 197.36 23.3433 197.425 23.3352C198.109 23.2823 198.79 23.2214 199.474 23.1726C199.629 23.1645 199.78 23.136 199.934 23.1319C199.865 22.9206 199.824 22.6888 199.731 22.4936C198.268 22.27 196.806 22.0708 195.347 21.8309C195.726 21.7699 196.109 21.7415 196.488 21.7008L196.52 21.6886C197.73 21.5624 198.944 21.4201 200.154 21.3023C201.69 21.2942 203.222 21.2982 204.758 21.3023C204.807 21.2942 204.892 21.3185 204.9 21.2494C205.027 20.5908 205.149 19.9322 205.275 19.2734C205.45 18.3587 205.727 17.456 206.155 16.6225C206.827 15.2808 207.891 14.1423 209.186 13.3861C210.396 12.6787 211.797 12.3371 213.191 12.2721C213.643 12.2314 214.099 12.2436 214.547 12.3005C214.841 12.3697 215.142 12.451 215.374 12.6502C215.566 12.8047 215.68 13.0324 215.765 13.2601C215.953 13.8008 216.059 14.3619 216.148 14.9271C216.152 15.1548 216.193 15.4109 216.071 15.6183C215.957 15.8216 215.729 15.9191 215.513 15.9801C214.727 16.1834 213.904 15.9923 213.117 16.1834C212.47 16.3217 211.867 16.6794 211.455 17.1958C210.97 17.7975 210.714 18.5456 210.571 19.2938C210.461 19.9606 210.323 20.6274 210.213 21.2982C210.987 21.3024 211.765 21.2942 212.543 21.3024C212.853 21.3024 213.17 21.4731 213.297 21.7658C213.46 22.1399 213.423 22.5628 213.37 22.9572C213.305 23.4003 213.199 23.8394 212.999 24.246C212.832 24.5916 212.555 24.9088 212.176 25.0307C211.981 25.108 211.769 25.0917 211.561 25.0917C210.877 25.0917 210.192 25.0998 209.508 25.0917C209.398 25.5919 209.325 26.1041 209.227 26.6124C209.048 27.6003 208.872 28.5924 208.693 29.5845C208.689 29.6171 208.685 29.6862 208.685 29.7227C209.007 29.739 209.329 29.7227 209.651 29.7308C212.038 29.7308 214.429 29.7267 216.821 29.7308C217.077 29.739 217.338 29.678 217.562 29.5519C217.696 29.5032 217.778 29.3852 217.896 29.3202C218.01 29.2552 218.043 29.1211 218.14 29.0356C218.246 28.8486 218.356 28.6535 218.365 28.4338C218.377 28.4338 218.409 28.4298 218.426 28.4257C218.413 20.9446 218.426 13.4635 218.417 5.98227Z" fill="url(#paint0_linear_1_1561)" stroke="#FCD109" stroke-width="0.094"/>
<path d="M193.184 1.06267C193.53 0.952887 193.893 1.02607 194.247 1.00168C200.9 1.00574 207.553 1.00168 214.205 1.00168C214.6 0.985414 214.947 1.20904 215.313 1.32288C215.606 1.44079 215.912 1.5343 216.205 1.66035C216.266 1.68474 216.311 1.7376 216.356 1.78232C216.352 2.31902 216.356 2.85978 216.356 3.40054C216.36 3.54284 216.336 3.68921 216.385 3.82745C216.47 3.83965 216.515 3.9047 216.572 3.95756C216.841 4.07953 217.069 4.27876 217.313 4.4414C217.68 4.70161 218.071 4.9293 218.43 5.19765C218.446 5.30336 218.434 5.41314 218.401 5.51072C218.365 5.62456 218.389 5.74654 218.377 5.86038C208.726 5.86445 199.079 5.86038 189.432 5.86445C189.411 5.73027 189.448 5.5961 189.391 5.47006C189.383 5.36435 189.346 5.22611 189.448 5.15292C189.855 4.86831 190.287 4.61216 190.686 4.31129C190.935 4.15272 191.175 3.99009 191.416 3.82745C191.465 3.74613 191.448 3.64449 191.448 3.55504C191.448 2.96549 191.448 2.37594 191.452 1.78639C191.591 1.60749 191.831 1.58716 192.023 1.49771C192.41 1.35134 192.801 1.20904 193.184 1.06267ZM193.208 1.13178C192.687 1.33101 192.161 1.52211 191.64 1.72133C191.571 1.73353 191.534 1.79452 191.497 1.84738C191.501 1.8799 191.505 1.93683 191.505 1.96935C191.501 2.45726 191.505 2.94516 191.501 3.43306C191.505 3.55504 191.489 3.67701 191.534 3.78679C191.481 3.83965 191.424 3.8925 191.359 3.93316C190.768 4.31535 190.198 4.73007 189.607 5.1082C189.505 5.16919 189.391 5.2505 189.424 5.38468C189.403 5.45786 189.44 5.51885 189.517 5.49852C190.797 5.49039 192.072 5.50665 193.351 5.48632C195.253 5.48632 197.152 5.49039 199.054 5.48632L199.083 5.47413C199.168 5.49445 199.254 5.48632 199.344 5.48632C202.79 5.48632 206.237 5.49039 209.687 5.48632C210.771 5.49039 211.858 5.48632 212.946 5.48632C214.739 5.48632 216.535 5.50259 218.328 5.49445C218.381 5.48226 218.397 5.44566 218.377 5.38061C218.372 5.31556 218.397 5.22611 218.328 5.18545C218.043 5.05128 217.798 4.84392 217.525 4.68128C217.428 4.59997 217.301 4.55524 217.228 4.44546C216.947 4.28689 216.686 4.09173 216.409 3.9169C216.356 3.88437 216.315 3.83152 216.27 3.78679C216.295 3.70141 216.303 3.60789 216.303 3.51845C216.299 3.00208 216.303 2.48572 216.299 1.96935C216.311 1.88804 216.307 1.79452 216.234 1.74166C215.745 1.56683 215.26 1.3798 214.775 1.2009C214.625 1.12772 214.458 1.08706 214.295 1.06267H193.473C193.384 1.06673 193.298 1.11146 193.208 1.13178Z" fill="#F8F3B5" stroke="#F8F3B5" stroke-width="0.094"/>
<path d="M191.505 1.96936C191.864 2.1198 192.247 2.20518 192.609 2.35155C192.805 2.4288 192.866 2.64023 192.951 2.81099C192.866 2.89638 192.764 2.9655 192.662 3.03055C192.287 3.28263 191.904 3.52659 191.534 3.7868C191.489 3.67702 191.505 3.55505 191.501 3.43307C191.505 2.94517 191.501 2.45726 191.505 1.96936ZM215.195 2.35155C215.557 2.20925 215.936 2.11167 216.299 1.96936C216.303 2.48572 216.299 3.00209 216.303 3.51845C216.303 3.6079 216.295 3.70142 216.27 3.7868C215.953 3.56724 215.631 3.35989 215.313 3.14439C215.158 3.03055 214.987 2.94517 214.849 2.80693C214.934 2.63616 214.999 2.4288 215.195 2.35155Z" fill="#F7B402" stroke="#F7B402" stroke-width="0.094"/>
<path d="M197.722 2.51828C198.17 2.41257 198.671 2.81102 198.635 3.2786C198.639 3.73804 198.154 4.1121 197.71 4.00638C197.53 3.9454 197.359 3.85188 197.249 3.69331C197.107 3.47782 197.074 3.18915 197.188 2.95333C197.27 2.72564 197.49 2.57114 197.722 2.51828ZM209.345 2.77443C209.532 2.56707 209.83 2.44916 210.107 2.52235C210.314 2.58333 210.518 2.71751 210.608 2.9208C210.787 3.27046 210.648 3.7421 210.298 3.92507C209.988 4.09583 209.597 4.01452 209.361 3.7665C209.121 3.49409 209.104 3.04684 209.345 2.77443Z" fill="#BDA727" stroke="#BDA727" stroke-width="0.094"/>
<path d="M192.662 3.03057C192.764 2.96551 192.866 2.89639 192.952 2.81101L192.98 2.83947C193.009 3.0509 192.988 3.26639 192.996 3.47781C192.984 4.11209 193.009 4.75043 192.98 5.3847C191.795 5.3847 190.609 5.37657 189.424 5.3847C189.391 5.25053 189.505 5.16921 189.607 5.10822C190.198 4.7301 190.768 4.31538 191.359 3.93319C191.424 3.89253 191.481 3.83967 191.534 3.78682C191.905 3.5266 192.287 3.28265 192.662 3.03057ZM214.808 2.94925C214.808 2.89639 214.82 2.85167 214.848 2.80695C214.987 2.94519 215.158 3.03057 215.313 3.14441C215.631 3.3599 215.953 3.56726 216.27 3.78682C216.315 3.83154 216.356 3.8844 216.409 3.91693C216.686 4.09176 216.946 4.28692 217.228 4.44549C217.301 4.55527 217.427 4.59999 217.525 4.68131C217.798 4.84394 218.042 5.0513 218.328 5.18548C218.397 5.22613 218.372 5.31558 218.376 5.38064C217.191 5.3847 216.009 5.37657 214.824 5.3847C214.804 5.22207 214.816 5.05943 214.812 4.90086C214.812 4.25033 214.804 3.59979 214.808 2.94925Z" fill="#F7E62D" stroke="#F7E62D" stroke-width="0.094"/>
<path d="M218.376 5.37983C217.19 5.3839 216.009 5.37577 214.824 5.3839C214.803 5.22126 214.815 5.05863 214.811 4.90006C214.811 4.24952 214.803 3.59899 214.807 2.94845C214.807 2.89559 214.819 2.85087 214.848 2.80614C214.934 2.63538 214.999 2.42802 215.194 2.35077C215.557 2.20846 215.936 2.11088 216.298 1.96858C216.311 1.88726 216.306 1.79374 216.233 1.74089C215.744 1.56606 215.259 1.37903 214.775 1.20013C214.624 1.12694 214.457 1.08628 214.294 1.06189H193.472C193.383 1.06596 193.297 1.11068 193.207 1.13101C192.686 1.33024 192.161 1.52133 191.639 1.72056C191.57 1.73276 191.533 1.79374 191.496 1.8466C191.501 1.87913 191.505 1.93605 191.505 1.96858C191.863 2.11901 192.246 2.2044 192.609 2.35077C192.804 2.42802 192.865 2.63944 192.951 2.81021L192.979 2.83867C193.008 3.0501 192.987 3.26559 192.996 3.47701C192.983 4.11129 193.008 4.74963 192.979 5.3839C191.794 5.3839 190.608 5.37577 189.423 5.3839C189.402 5.45709 189.439 5.51807 189.516 5.49774C190.796 5.48961 192.071 5.50588 193.35 5.48555C195.253 5.48555 197.151 5.48961 199.054 5.48555L199.082 5.47335C199.168 5.49368 199.253 5.48555 199.343 5.48555C202.789 5.48555 206.236 5.48961 209.686 5.48555C210.77 5.48961 211.858 5.48555 212.945 5.48555C214.738 5.48555 216.534 5.50181 218.327 5.49368C218.38 5.48148 218.396 5.44489 218.376 5.37983ZM197.188 2.95251C197.269 2.72483 197.489 2.57032 197.721 2.51747C198.17 2.41176 198.671 2.81021 198.634 3.27778C198.638 3.73723 198.153 4.11129 197.709 4.00557C197.53 3.94459 197.359 3.85107 197.249 3.6925C197.106 3.47701 197.074 3.18833 197.188 2.95251ZM209.344 2.77362C209.532 2.56626 209.829 2.44835 210.106 2.52153C210.314 2.58252 210.517 2.7167 210.607 2.91999C210.786 3.26965 210.648 3.74129 210.297 3.92426C209.988 4.09502 209.597 4.0137 209.36 3.76569C209.12 3.49327 209.104 3.04603 209.344 2.77362Z" fill="url(#paint1_radial_1_1561)" stroke="#FCD109" stroke-width="0.094"/>
<path d="M210.383 7.16734C210.44 7.17954 210.086 6.828 210.155 6.81174C210.22 6.81987 210.467 6.62841 210.766 6.78462C211.065 6.94083 210.991 7.30639 210.957 7.44195C210.917 7.60328 210.814 7.70623 210.732 7.78754C210.687 7.82414 210.587 7.88106 210.526 7.87699C210.563 7.67777 210.444 7.64524 210.436 7.44195L210.383 7.16734Z" fill="url(#paint2_linear_1_1561)" stroke="#FCD109" stroke-width="0.094"/>
<path d="M197.36 7.38789C197.352 7.59119 197.234 7.62371 197.27 7.82294C197.209 7.82701 197.109 7.77008 197.064 7.73349C196.983 7.65217 196.88 7.54923 196.839 7.38789C196.805 7.25238 196.731 6.88682 197.03 6.73057C197.329 6.57431 197.576 6.76578 197.641 6.75769C197.71 6.77395 197.357 7.12548 197.413 7.11328L197.36 7.38789Z" fill="url(#paint3_linear_1_1561)" stroke="#FCD109" stroke-width="0.094"/>
<path d="M209.85 9.77203C209.911 9.71893 209.952 9.71893 210.033 9.71893C209.544 10.7761 208.974 11.8332 208.117 12.6562C208.025 12.7379 207.928 12.8137 207.827 12.883C207.728 12.9547 207.632 13.022 207.536 13.0905C207.443 13.1554 207.35 13.2207 207.259 13.2888C207.027 13.4148 206.823 13.5897 206.566 13.6669C206.098 13.8905 205.593 14.041 205.084 14.1467C204.884 14.1793 204.68 14.228 204.477 14.2321C204.224 14.3053 203.955 14.2524 203.698 14.2687C203.556 14.2931 203.43 14.2118 203.291 14.228C203.171 14.2111 203.051 14.1907 202.932 14.167C202.811 14.1423 202.691 14.1139 202.572 14.0816C200.704 13.5002 198.871 12.0771 198.337 10.1526C198.313 10.0229 198.301 9.89141 198.301 9.75959C198.358 9.87344 198.417 9.98647 198.478 10.0984C199.238 11.7519 200.745 13.0529 202.526 13.4453C202.67 13.511 202.827 13.488 202.965 13.5449C203.091 13.5449 203.214 13.5408 203.336 13.5815C203.755 13.5896 204.175 13.5856 204.595 13.5856C204.652 13.5896 204.705 13.5612 204.762 13.549C205.461 13.5253 206.146 13.3349 206.784 13.0463C206.912 12.9885 207.038 12.9269 207.161 12.8618C207.269 12.805 207.375 12.7434 207.478 12.6773C207.579 12.6124 207.677 12.5433 207.772 12.4701C208.526 11.8738 209.178 11.1013 209.62 10.213C209.705 10.0531 209.782 9.90507 209.85 9.77203Z" fill="#BDA727" stroke="#BDA727" stroke-width="0.094"/>
<path d="M209.186 13.3864C210.396 12.6789 211.797 12.3374 213.19 12.2724C213.643 12.2317 214.099 12.2439 214.547 12.3008C214.84 12.3699 215.142 12.4513 215.374 12.6505C215.256 12.6586 215.142 12.6058 215.024 12.5895C214.69 12.5244 214.343 12.5488 214.005 12.5407C213.023 12.5407 212.033 12.618 211.084 12.8863C210.587 13.0367 210.09 13.2116 209.638 13.4718C208.856 13.9028 208.151 14.472 207.581 15.1551C206.562 16.322 205.963 17.8019 205.674 19.3104C205.536 20.1194 205.377 20.9244 205.25 21.7376C205.047 21.7579 204.839 21.7458 204.635 21.7458C203.739 21.7417 202.843 21.7376 201.947 21.7296C201.755 21.7376 201.568 21.693 201.376 21.7051C199.747 21.7132 198.117 21.701 196.488 21.701L196.52 21.6888C197.73 21.5627 198.944 21.4204 200.154 21.3026C201.69 21.2945 203.222 21.2984 204.758 21.3026C204.806 21.2945 204.892 21.3187 204.9 21.2497C205.026 20.591 205.149 19.9324 205.275 19.2736C205.45 18.359 205.727 17.4563 206.155 16.6228C206.827 15.2811 207.89 14.1426 209.186 13.3864Z" fill="#0D69B3" stroke="#0D69B3" stroke-width="0.094"/>
<path d="M211.085 12.8861C212.034 12.6177 213.024 12.5405 214.005 12.5405C214.344 12.5486 214.69 12.5242 215.024 12.5893C215.142 12.6055 215.256 12.6584 215.374 12.6502C215.566 12.8047 215.68 13.0324 215.765 13.2601C215.953 13.8009 216.059 14.362 216.148 14.9271C216.152 15.1548 216.193 15.411 216.071 15.6183C215.957 15.8216 215.729 15.9192 215.513 15.9802C214.727 16.1835 213.904 15.9923 213.117 16.1835C212.47 16.3217 211.867 16.6795 211.455 17.1959C210.97 17.7976 210.714 18.5456 210.571 19.2939C210.461 19.9607 210.323 20.6274 210.213 21.2983C210.164 21.4488 210.135 21.6114 210.107 21.77C210.877 21.7822 211.647 21.77 212.417 21.7781C212.71 21.77 213.003 21.7862 213.297 21.7659C213.46 22.14 213.423 22.5629 213.37 22.9572C213.305 23.4004 213.199 23.8395 212.999 24.246C212.832 24.5916 212.555 24.9088 212.176 25.0308C211.981 25.108 211.769 25.0918 211.561 25.0918C210.877 25.0918 210.192 25.0999 209.508 25.0918C209.398 25.5919 209.325 26.1042 209.227 26.6124C209.048 27.6004 208.872 28.5924 208.693 29.5846C208.689 29.6171 208.685 29.6862 208.685 29.7228V29.7269C206.905 29.7269 205.129 29.731 203.348 29.7269C203.352 29.7107 203.356 29.6821 203.36 29.6659C203.365 29.6455 203.369 29.6008 203.373 29.5765C203.377 29.609 203.381 29.67 203.385 29.6984C203.495 29.7107 203.695 29.7675 203.723 29.609C204 28.1128 204.257 26.6084 204.542 25.1121C204.432 25.0877 204.318 25.0877 204.204 25.108C204.188 25.165 204.171 25.2218 204.151 25.2788L204.175 25.0958C203.067 25.0917 201.955 25.0958 200.847 25.0917C200.578 25.0836 200.301 25.0917 200.032 25.0592C199.572 25.0388 199.107 25.0551 198.647 25.0103C198.077 25.0103 197.511 24.9575 196.94 24.9575C196.492 24.9128 196.04 24.929 195.588 24.9087C195.294 24.8722 194.993 24.8884 194.696 24.8762C194.211 24.8233 193.718 24.86 193.233 24.807C192.72 24.8112 192.206 24.7664 191.693 24.7542C191.697 24.7502 191.701 24.7339 191.701 24.7298C191.872 24.7339 192.039 24.7217 192.21 24.7176C192.589 24.6688 192.972 24.7013 193.351 24.6485C193.746 24.6485 194.137 24.5956 194.533 24.5956C194.883 24.5469 195.237 24.5753 195.588 24.5265C195.999 24.5265 196.402 24.4736 196.814 24.4696C197.152 24.4249 197.494 24.4493 197.832 24.4046C198.228 24.4086 198.619 24.3476 199.014 24.3517C199.401 24.3069 199.796 24.3191 200.183 24.2784C200.146 24.128 200.118 23.9777 200.085 23.8271C200.057 23.7336 199.943 23.7539 199.869 23.7418C198.985 23.6156 198.105 23.4896 197.225 23.3677C197.282 23.3228 197.36 23.3432 197.425 23.3352C198.109 23.2822 198.79 23.2212 199.474 23.1725C199.629 23.1644 199.78 23.1359 199.935 23.1319C199.865 22.9204 199.825 22.6887 199.731 22.4935C198.268 22.2699 196.806 22.0706 195.347 21.8308C195.726 21.7698 196.109 21.7413 196.488 21.7006C198.118 21.7006 199.747 21.7129 201.377 21.7047C201.568 21.6926 201.756 21.7373 201.947 21.7292C202.843 21.7373 203.74 21.7414 204.636 21.7454C204.84 21.7454 205.047 21.7576 205.251 21.7373C205.377 20.9241 205.536 20.119 205.675 19.31C205.964 17.8015 206.563 16.3216 207.581 15.1547C208.152 14.4716 208.856 13.9024 209.639 13.4714C210.09 13.2113 210.588 13.0365 211.085 12.8861Z" fill="#107BD4" stroke="#107BD4" stroke-width="0.094"/>
<path d="M210.212 21.2985C210.987 21.3026 211.765 21.2944 212.543 21.3026C212.852 21.3026 213.17 21.4733 213.296 21.766C213.003 21.7864 212.71 21.7702 212.416 21.7783C211.646 21.7702 210.876 21.7824 210.107 21.7702C210.135 21.6116 210.164 21.4489 210.212 21.2985ZM204.204 25.1082C204.318 25.0879 204.432 25.0879 204.542 25.1123C204.256 26.6086 204 28.1129 203.723 29.6092C203.694 29.7677 203.495 29.7109 203.385 29.6986C203.381 29.6702 203.377 29.6092 203.372 29.5766C203.629 28.1455 203.878 26.7102 204.151 25.2791C204.171 25.222 204.187 25.1652 204.204 25.1082Z" fill="#0D69B3" stroke="#0D69B3" stroke-width="0.094"/>
<path d="M210.569 7.28125C210.536 7.22026 210.532 7.14708 210.532 7.07796L210.5 7.08202C210.451 6.90313 210.3 6.73236 210.105 6.72423C209.958 6.71203 209.774 6.7161 209.689 6.85434C209.526 7.07389 209.603 7.35444 209.595 7.60246C209.595 7.61872 209.599 7.64718 209.599 7.66344C209.599 7.83014 209.579 7.99278 209.55 8.15541C209.526 8.2042 209.514 8.25706 209.514 8.31398C209.445 8.69617 209.306 9.0743 209.119 9.4199C209.082 9.46869 209.053 9.52154 209.041 9.57846C208.919 9.78989 208.772 9.98505 208.622 10.1802C208.597 10.2005 208.577 10.2249 208.557 10.2493C208.451 10.3794 208.337 10.4892 208.218 10.6031C208.19 10.6193 208.169 10.6397 208.145 10.6559C208.007 10.7901 207.852 10.9161 207.685 11.0178C207.664 11.03 207.644 11.0462 207.619 11.0625C206.576 11.7496 205.31 12.0342 204.075 12.0464C203.028 12.079 201.973 11.8553 201.028 11.404C201.012 11.3959 200.971 11.3796 200.955 11.3715C200.796 11.2861 200.633 11.2129 200.486 11.1072C200.453 11.091 200.421 11.0706 200.384 11.0544C200.233 10.9649 200.091 10.8673 199.956 10.7535C199.912 10.7128 199.863 10.6803 199.814 10.6437C199.667 10.5258 199.516 10.3998 199.39 10.2575C199.358 10.2209 199.325 10.1883 199.292 10.1558C198.849 9.69637 198.502 9.13528 198.319 8.52541C198.144 8.04157 198.168 7.51301 198.148 7.00477C198.001 6.78115 197.692 6.65511 197.447 6.79335C197.345 6.86653 197.333 7.00071 197.256 7.09422C197.129 8.43596 197.704 9.77363 198.62 10.7413C198.62 10.7738 198.637 10.7942 198.665 10.8064C198.828 10.9568 198.987 11.1113 199.15 11.2577C199.178 11.2861 199.211 11.3146 199.248 11.339C199.411 11.4732 199.586 11.5951 199.757 11.7212C199.79 11.7456 199.822 11.7659 199.859 11.7862C200.083 11.9163 200.295 12.0708 200.535 12.1603C200.551 12.1725 200.58 12.1928 200.596 12.2009C201.37 12.5709 202.205 12.823 203.061 12.9043C203.155 12.9043 203.248 12.9125 203.342 12.9328C203.749 12.9572 204.157 12.945 204.564 12.9369C205.823 12.8271 207.123 12.5221 208.174 11.7822L208.186 11.7984C208.218 11.77 208.247 11.7456 208.28 11.7212C208.447 11.5992 208.61 11.4691 208.773 11.3349C208.809 11.3065 208.85 11.2739 208.887 11.2373C209.066 11.0422 209.274 10.8633 209.424 10.6397L209.449 10.6519C209.461 10.6315 209.481 10.5909 209.494 10.5705C209.632 10.3835 209.759 10.1883 209.881 9.99318C209.889 9.98098 209.909 9.96065 209.917 9.94846L209.901 9.93219C209.913 9.91593 209.942 9.8834 209.954 9.86714C210.178 9.41176 210.378 8.93606 210.447 8.43189C210.476 8.41969 210.492 8.3953 210.492 8.36684C210.496 8.2042 210.553 8.0497 210.537 7.88707C210.573 7.68784 210.577 7.48455 210.569 7.28125Z" fill="white" stroke="white" stroke-width="0.094"/>
<path d="M210.658 7.06257C210.019 7.10075 209.42 6.88254 208.839 6.68311M196.943 7.14389C197.273 7.24728 198.032 6.98715 198.247 7.22521L196.943 7.14389ZM197.133 8.14677C197.449 8.03687 198.128 7.77666 198.409 7.92994L197.133 8.14677ZM197.459 9.1497C197.612 9.19914 197.913 8.93092 198.063 8.85232C198.286 8.73535 198.515 8.6457 198.763 8.6076L197.459 9.1497ZM197.948 10.2068C198.106 9.98304 198.294 9.79719 198.522 9.63821C198.748 9.4807 199.366 9.05984 199.632 9.2039L197.948 10.2068ZM198.409 10.9658C198.589 10.8237 198.661 10.5723 198.85 10.423C199.077 10.2424 199.426 10.21 199.659 10.0984L198.409 10.9658ZM199.177 11.5282C199.23 11.1351 199.63 10.6607 200.012 10.6947L199.177 11.5282ZM199.767 12.0771C199.969 12.057 200.14 11.6065 200.276 11.4538C200.48 11.2251 200.692 11.1547 200.962 11.0742L199.767 12.0771ZM200.935 12.565C200.922 12.2806 201.217 11.465 201.56 11.5079L200.935 12.565ZM201.804 12.8361C201.79 12.4999 201.964 11.4888 202.375 11.4537L201.804 12.8361ZM202.701 13.3782C202.623 12.9081 202.628 12.228 202.999 11.8874L202.701 13.3782ZM203.814 13.4866C203.773 13.0948 203.383 12.3026 203.814 11.9958V13.4866ZM205.009 13.2156C204.823 13 204.715 12.1499 204.792 11.9145L205.009 13.2156ZM206.15 13.0258C206.006 12.7655 205.828 12.521 205.774 12.2188C205.741 12.0382 205.798 11.7809 205.77 11.6434L206.15 13.0258ZM207.1 12.6192C206.789 12.4158 206.702 11.6682 206.802 11.3453L207.1 12.6192ZM208.024 12.2126C207.802 11.7381 207.566 11.3702 207.562 10.8302L208.024 12.2126ZM208.92 11.3453C208.576 11.114 208.136 10.6937 208.187 10.2339L208.92 11.3453ZM209.871 10.6134C209.347 10.4977 208.719 10.0304 208.404 9.61049L209.871 10.6134ZM210.305 9.71892C209.928 9.63813 208.68 9.15247 208.757 8.6618L210.305 9.71892ZM210.713 8.77023C210.187 8.5778 209.421 8.40479 209.002 8.03838L210.713 8.77023ZM210.984 7.90282C210.653 7.93112 210.178 7.77105 209.841 7.71307C209.468 7.64871 209.121 7.52295 208.757 7.442L210.984 7.90282Z" stroke="#D1D1D1" stroke-width="2"/>
<path d="M24.5257 29.6835C12.6326 35.3324 5.25168 30.6061 0.526889 27.7354C0.234521 27.5545 -0.262403 27.7777 0.168746 28.272C1.74281 30.1768 6.90135 34.768 13.6347 34.768C20.3728 34.768 24.3813 31.0987 24.8827 30.4586C25.3808 29.8239 25.029 29.4738 24.5256 29.6835H24.5257ZM27.8659 27.8425C27.5465 27.4274 25.9238 27.35 24.9026 27.4752C23.8798 27.5968 22.3446 28.2207 22.4781 28.5952C22.5466 28.7356 22.6864 28.6726 23.389 28.6096C24.0935 28.5394 26.0672 28.2908 26.4785 28.8274C26.8917 29.3676 25.849 31.9413 25.6586 32.3564C25.4746 32.7715 25.7289 32.8785 26.0745 32.6021C26.4153 32.3257 27.0324 31.6101 27.4465 30.5973C27.8577 29.579 28.1085 28.1585 27.8657 27.8425H27.8659Z" fill="#FF9900"/>
<path fill-rule="evenodd" clip-rule="evenodd" d="M16.5293 18.1568C16.5293 19.639 16.5668 20.8751 15.8161 22.1914C15.2103 23.2617 14.2505 23.9198 13.1783 23.9198C11.7145 23.9198 10.862 22.8068 10.862 21.1641C10.862 17.9213 13.7733 17.3328 16.5293 17.3328V18.1568ZM20.3734 27.4301C20.1214 27.6548 19.7568 27.6709 19.4727 27.521C18.2074 26.4723 17.9822 25.9854 17.2852 24.9847C15.1942 27.1144 13.7144 27.7511 11.0015 27.7511C7.79527 27.7511 5.29675 25.7766 5.29675 21.8222C5.29675 18.7348 6.97502 16.6318 9.36075 15.6044C11.4304 14.6947 14.3203 14.5342 16.5293 14.2827V13.7904C16.5293 12.886 16.5989 11.8159 16.0682 11.0347C15.6016 10.3337 14.7116 10.0447 13.9288 10.0447C12.4759 10.0447 11.1784 10.7884 10.862 12.3295C10.7976 12.6721 10.5457 13.0092 10.2026 13.0252L6.50307 12.6293C6.19217 12.5596 5.84905 12.3082 5.93483 11.8319C6.7873 7.35855 10.8351 6.01001 14.4595 6.01001C16.3146 6.01001 18.738 6.50235 20.2018 7.90435C22.0569 9.63266 21.8799 11.9389 21.8799 14.4485V20.3775C21.8799 22.1593 22.6198 22.9405 23.3168 23.9038C23.5634 24.2462 23.6171 24.6584 23.306 24.9151C22.5286 25.5625 21.1453 26.7666 20.3841 27.4408L20.3733 27.4301" fill="black"/>
<path d="M24.5257 29.6835C12.6326 35.3324 5.25168 30.6061 0.526889 27.7354C0.234521 27.5545 -0.262403 27.7777 0.168746 28.272C1.74281 30.1768 6.90135 34.768 13.6347 34.768C20.3728 34.768 24.3813 31.0987 24.8827 30.4586C25.3808 29.8239 25.029 29.4738 24.5256 29.6835H24.5257ZM27.8659 27.8425C27.5465 27.4274 25.9238 27.35 24.9026 27.4752C23.8798 27.5968 22.3446 28.2207 22.4781 28.5952C22.5466 28.7356 22.6864 28.6726 23.389 28.6096C24.0935 28.5394 26.0672 28.2908 26.4785 28.8274C26.8917 29.3676 25.849 31.9413 25.6586 32.3564C25.4746 32.7715 25.7289 32.8785 26.0745 32.6021C26.4153 32.3257 27.0324 31.6101 27.4465 30.5973C27.8577 29.579 28.1085 28.1585 27.8657 27.8425H27.8659Z" fill="#FF9900"/>
<path fill-rule="evenodd" clip-rule="evenodd" d="M16.5293 18.1568C16.5293 19.639 16.5668 20.8751 15.8161 22.1914C15.2103 23.2617 14.2505 23.9198 13.1783 23.9198C11.7145 23.9198 10.862 22.8068 10.862 21.1641C10.862 17.9213 13.7733 17.3328 16.5293 17.3328V18.1568ZM20.3734 27.4301C20.1214 27.6548 19.7568 27.6709 19.4727 27.521C18.2074 26.4723 17.9822 25.9854 17.2852 24.9847C15.1942 27.1144 13.7144 27.7511 11.0015 27.7511C7.79527 27.7511 5.29675 25.7766 5.29675 21.8222C5.29675 18.7348 6.97502 16.6318 9.36075 15.6044C11.4304 14.6947 14.3203 14.5342 16.5293 14.2827V13.7904C16.5293 12.886 16.5989 11.8159 16.0682 11.0347C15.6016 10.3337 14.7116 10.0447 13.9288 10.0447C12.4759 10.0447 11.1784 10.7884 10.862 12.3295C10.7976 12.6721 10.5457 13.0092 10.2026 13.0252L6.50307 12.6293C6.19217 12.5596 5.84905 12.3082 5.93483 11.8319C6.7873 7.35855 10.8351 6.01001 14.4595 6.01001C16.3146 6.01001 18.738 6.50235 20.2018 7.90435C22.0569 9.63266 21.8799 11.9389 21.8799 14.4485V20.3775C21.8799 22.1593 22.6198 22.9405 23.3168 23.9038C23.5634 24.2462 23.6171 24.6584 23.306 24.9151C22.5286 25.5625 21.1453 26.7666 20.3841 27.4408L20.3733 27.4301" fill="black"/>
<defs>
<linearGradient id="paint0_linear_1_1561" x1="203.904" y1="5.86025" x2="203.904" y2="29.758" gradientUnits="userSpaceOnUse">
<stop stop-color="#F7E830"/>
<stop offset="1" stop-color="#FDCB06"/>
</linearGradient>
<radialGradient id="paint1_radial_1_1561" cx="0" cy="0" r="1" gradientUnits="userSpaceOnUse" gradientTransform="translate(203.779 16.7593) scale(19.4764 19.4381)">
<stop offset="0.596" stop-color="#F29405"/>
<stop offset="0.736" stop-color="#F7D01E"/>
<stop offset="1" stop-color="#FDCB06"/>
</radialGradient>
<linearGradient id="paint2_linear_1_1561" x1="210.567" y1="6.72278" x2="210.573" y2="7.85443" gradientUnits="userSpaceOnUse">
<stop stop-color="#FADA1C"/>
<stop offset="1" stop-color="#FDCB06"/>
</linearGradient>
<linearGradient id="paint3_linear_1_1561" x1="197.23" y1="6.66872" x2="197.223" y2="7.80038" gradientUnits="userSpaceOnUse">
<stop stop-color="#FADA1C"/>
<stop offset="1" stop-color="#FDCB06"/>
</linearGradient>
</defs>
</svg>
