<svg width="288" height="150" viewBox="0 0 288 150" fill="none" xmlns="http://www.w3.org/2000/svg">
<path d="M279.92 150H224.086C223.798 150 223.522 149.885 223.318 149.682C223.115 149.478 223 149.202 223 148.914V91.0857C223 90.7979 223.115 90.5219 223.318 90.3184C223.522 90.1148 223.798 90.0003 224.086 90H279.92C280.208 90.0003 280.484 90.1148 280.688 90.3184C280.891 90.5219 281.006 90.7979 281.006 91.0857V148.914C281.006 149.202 280.891 149.478 280.688 149.682C280.484 149.885 280.208 150 279.92 150ZM224.086 90.3785C223.898 90.3788 223.718 90.4533 223.586 90.5859C223.453 90.7185 223.379 90.8982 223.379 91.0857V148.914C223.379 149.102 223.453 149.282 223.586 149.414C223.718 149.547 223.898 149.621 224.086 149.621H279.92C280.108 149.621 280.287 149.547 280.42 149.414C280.553 149.282 280.627 149.102 280.627 148.914V91.0857C280.627 90.8982 280.553 90.7185 280.42 90.5859C280.287 90.4533 280.108 90.3788 279.92 90.3785H224.086Z" fill="#3F3D56"/>
<path d="M262.527 114.304C263.775 116.608 264.232 119.258 263.828 121.847C263.424 124.435 262.181 126.82 260.291 128.634C258.401 130.449 255.967 131.593 253.364 131.89C250.761 132.188 248.132 131.623 245.881 130.282C243.63 128.941 241.881 126.899 240.903 124.468C239.925 122.037 239.772 119.353 240.467 116.827C241.162 114.301 242.668 112.072 244.751 110.484C246.835 108.896 249.383 108.036 252.003 108.036C252.098 108.036 252.192 108.037 252.287 108.039L252.16 102.928C252.108 102.927 252.056 102.926 252.003 102.926C248.233 102.927 244.57 104.176 241.585 106.478C238.599 108.78 236.46 112.005 235.501 115.651C234.541 119.296 234.815 123.157 236.281 126.63C237.746 130.104 240.32 132.994 243.601 134.851C246.882 136.707 250.685 137.426 254.417 136.894C258.149 136.362 261.6 134.609 264.231 131.909C266.863 129.21 268.526 125.715 268.963 121.971C269.399 118.226 268.583 114.443 266.643 111.211L262.527 114.304Z" fill="#7EC845"/>
<path d="M262.527 114.304L266.643 111.211C265.14 108.706 263.019 106.629 260.483 105.178C257.947 103.728 255.082 102.953 252.16 102.928L252.287 108.039C254.394 108.088 256.451 108.694 258.25 109.794C260.048 110.894 261.524 112.45 262.527 114.304Z" fill="#E6E6E6"/>
<path d="M260.694 134.656L260.483 134.865L266.479 140.918L266.69 140.709L260.694 134.656Z" fill="#3F3D56"/>
<path d="M264.544 97.607L260.376 105.038L260.636 105.183L264.803 97.7524L264.544 97.607Z" fill="#3F3D56"/>
<path d="M271.071 143.151H262.223C262.065 143.151 261.915 143.089 261.803 142.977C261.692 142.866 261.63 142.715 261.629 142.558V141.312C261.63 141.155 261.692 141.004 261.803 140.893C261.915 140.782 262.065 140.719 262.223 140.719H271.071C271.229 140.719 271.379 140.782 271.491 140.893C271.602 141.004 271.664 141.155 271.665 141.312V142.558C271.664 142.715 271.602 142.866 271.491 142.977C271.379 143.089 271.229 143.151 271.071 143.151Z" fill="#7EC845"/>
<path d="M268.828 97.7858H259.979C259.822 97.7856 259.671 97.7231 259.56 97.6119C259.449 97.5007 259.386 97.3499 259.386 97.1927V95.9464C259.386 95.7892 259.449 95.6384 259.56 95.5272C259.671 95.416 259.822 95.3535 259.979 95.3533H268.828C268.985 95.3535 269.136 95.416 269.247 95.5272C269.359 95.6384 269.421 95.7892 269.421 95.9464V97.1927C269.421 97.3499 269.359 97.5007 269.247 97.6119C269.136 97.7231 268.985 97.7856 268.828 97.7858Z" fill="#E6E6E6"/>
<path d="M285.65 78.4618H185.639C185.205 78.4613 184.788 78.2884 184.481 77.981C184.173 77.6737 184 77.257 184 76.8223V36.6395C184 36.2048 184.173 35.7881 184.481 35.4807C184.788 35.1734 185.205 35.0005 185.639 35H285.65C286.085 35.0005 286.502 35.1734 286.809 35.4807C287.116 35.7881 287.289 36.2048 287.29 36.6395V76.8223C287.289 77.257 287.116 77.6737 286.809 77.981C286.502 78.2884 286.085 78.4613 285.65 78.4618ZM185.639 35.6C185.364 35.6003 185.1 35.7099 184.905 35.9048C184.71 36.0996 184.6 36.3639 184.6 36.6395V76.8223C184.6 77.0979 184.71 77.3621 184.905 77.557C185.1 77.7519 185.364 77.8615 185.639 77.8618H285.65C285.926 77.8615 286.19 77.7518 286.385 77.557C286.58 77.3621 286.689 77.0979 286.69 76.8223V36.6395C286.689 36.3639 286.58 36.0997 286.385 35.9048C286.19 35.7099 285.926 35.6003 285.65 35.6H185.639Z" fill="#3F3D56"/>
<path d="M224.625 68.4892H214.935C214.688 68.4888 214.448 68.4004 214.26 68.24C214.071 68.0795 213.946 67.8573 213.905 67.613C213.273 63.5078 213.273 59.33 213.905 55.2248C213.946 54.9804 214.071 54.7583 214.26 54.5978C214.448 54.4373 214.688 54.349 214.935 54.3485H224.625C224.782 54.348 224.937 54.3834 225.078 54.4518C225.22 54.5203 225.344 54.6201 225.44 54.7436C225.54 54.8689 225.609 55.0151 225.643 55.1711C225.677 55.3272 225.675 55.4889 225.637 55.644C224.73 59.4406 224.73 63.3972 225.637 67.1937C225.675 67.3488 225.677 67.5106 225.643 67.6666C225.609 67.8227 225.54 67.9689 225.44 68.0942C225.344 68.2177 225.22 68.3175 225.078 68.3859C224.937 68.4544 224.782 68.4897 224.625 68.4892Z" fill="#E6E6E6"/>
<path d="M257.069 68.4892H247.379C247.131 68.4887 246.892 68.4004 246.703 68.2399C246.514 68.0795 246.389 67.8573 246.349 67.613C245.717 63.5078 245.717 59.33 246.349 55.2248C246.389 54.9805 246.514 54.7583 246.703 54.5978C246.892 54.4374 247.131 54.349 247.379 54.3485H257.069C257.226 54.348 257.381 54.3834 257.522 54.4519C257.663 54.5203 257.787 54.6202 257.884 54.7437C257.983 54.869 258.052 55.0152 258.086 55.1712C258.12 55.3272 258.118 55.4889 258.08 55.644C257.174 59.4406 257.174 63.3972 258.08 67.1937C258.118 67.3488 258.12 67.5105 258.086 67.6666C258.052 67.8226 257.983 67.9688 257.884 68.094C257.787 68.2176 257.663 68.3174 257.522 68.3859C257.381 68.4544 257.226 68.4897 257.069 68.4892Z" fill="#E6E6E6"/>
<path d="M208.143 59.1133H198.453C198.206 59.1128 197.966 59.0245 197.778 58.864C197.589 58.7035 197.464 58.4813 197.424 58.237C196.792 54.1318 196.792 49.954 197.424 45.8488C197.464 45.6045 197.589 45.3823 197.778 45.2218C197.966 45.0613 198.206 44.973 198.453 44.9725H208.143C208.3 44.972 208.455 45.0074 208.597 45.0758C208.738 45.1443 208.862 45.2441 208.959 45.3676C209.058 45.4929 209.127 45.6391 209.161 45.7951C209.195 45.9512 209.193 46.1129 209.155 46.268C208.248 50.0646 208.248 54.0212 209.155 57.8177C209.193 57.9729 209.195 58.1346 209.161 58.2907C209.127 58.4467 209.058 58.5929 208.959 58.7182C208.862 58.8417 208.738 58.9415 208.597 59.01C208.455 59.0784 208.3 59.1138 208.143 59.1133Z" fill="#7EC845"/>
<path d="M240.913 59.1133H231.223C231.066 59.1138 230.911 59.0784 230.77 59.0099C230.629 58.9415 230.505 58.8416 230.408 58.7181C230.309 58.5928 230.24 58.4466 230.206 58.2906C230.172 58.1346 230.174 57.9728 230.212 57.8178C231.118 54.0212 231.118 50.0646 230.212 46.2681C230.174 46.1129 230.172 45.9512 230.206 45.7952C230.24 45.6392 230.309 45.493 230.408 45.3678C230.505 45.2442 230.629 45.1444 230.77 45.0759C230.911 45.0074 231.066 44.972 231.223 44.9725H240.913C241.161 44.973 241.4 45.0613 241.589 45.2218C241.777 45.3823 241.903 45.6045 241.943 45.8488C242.575 49.954 242.575 54.1318 241.943 58.237C241.903 58.4813 241.777 58.7035 241.589 58.864C241.4 59.0245 241.161 59.1128 240.913 59.1133Z" fill="#7EC845"/>
<path d="M272.836 59.1133H263.146C262.989 59.1138 262.834 59.0784 262.693 59.0099C262.552 58.9415 262.428 58.8416 262.331 58.7181C262.232 58.5928 262.163 58.4466 262.129 58.2906C262.095 58.1346 262.097 57.9728 262.135 57.8178C263.041 54.0212 263.041 50.0646 262.135 46.2681C262.097 46.1129 262.095 45.9512 262.129 45.7952C262.163 45.6392 262.232 45.493 262.331 45.3678C262.428 45.2442 262.552 45.1444 262.693 45.0759C262.834 45.0074 262.989 44.972 263.146 44.9725H272.836C273.084 44.973 273.323 45.0614 273.512 45.2218C273.7 45.3823 273.826 45.6045 273.866 45.8488C274.498 49.954 274.498 54.1318 273.866 58.237C273.826 58.4813 273.7 58.7035 273.512 58.864C273.323 59.0244 273.084 59.1128 272.836 59.1133Z" fill="#FF6584"/>
<path d="M31.8829 28.554L32.5188 29.4886L34.017 28.4702L34.9743 30.2807L33.664 31.1723L36.8436 35.8479L34.7842 37.2464L31.6023 32.5687L30.6677 33.2046L29.5203 31.5254L30.4549 30.8894L29.8235 29.9639C29.8235 29.9639 28.4453 28.3005 29.9208 26.8883L31.9802 25.4897L32.9986 26.9879L32.064 27.6238C31.9185 27.7247 31.8182 27.8783 31.7843 28.0521C31.7505 28.2258 31.7859 28.4059 31.8829 28.554Z" fill="url(#paint0_linear_1_1724)"/>
<path d="M32.3356 27.8752L32.9715 28.8099L34.4696 27.7915L35.4269 29.602L34.1166 30.4936L37.2962 35.1691L35.2368 36.5677L32.0549 31.8899L31.1203 32.5259L29.9729 30.8467L30.9076 30.2107L30.2762 29.2851C30.2762 29.2851 28.8979 27.6218 30.3735 26.2096L32.4329 24.811L33.4513 26.3092L32.5166 26.9451C32.3711 27.046 32.2708 27.1996 32.237 27.3734C32.2032 27.5471 32.2385 27.7272 32.3356 27.8752Z" fill="#3B5998"/>
<path d="M79.7607 7.24028L80.8922 7.01397C80.8922 7.01397 79.9417 8.07762 79.7607 8.14551C79.7438 8.37151 79.7438 8.59844 79.7607 8.82444C77.5881 18.1483 69.5768 14.0295 69.5768 14.0295C72.4962 14.0974 72.7452 12.898 72.7452 12.898C71.0478 12.649 70.7084 11.5401 70.7084 11.5401C70.8607 11.6205 71.0372 11.6418 71.2043 11.6C71.3713 11.5583 71.517 11.4564 71.6136 11.3138C69.7805 10.8386 70.0295 9.05074 70.0295 9.05074C70.3562 9.28664 70.738 9.4347 71.1384 9.48073C70.9347 9.23179 69.2148 7.17239 70.2558 6.10874C70.2558 6.10874 71.5231 8.37182 74.8498 8.5755L75.0761 8.53024C75.0376 8.36724 75.0224 8.19962 75.0309 8.03236C75.0309 7.40214 75.2812 6.79774 75.7268 6.35211C76.1725 5.90648 76.7769 5.65613 77.4071 5.65613C78.9912 5.65613 79.3307 6.56136 79.3307 6.56136L80.4622 5.88244C80.4396 5.88244 80.3265 7.01397 79.7607 7.24028Z" fill="url(#paint1_linear_1_1724)"/>
<path d="M80.2132 6.56133L81.3447 6.33502C81.3447 6.33502 80.3943 7.39867 80.2132 7.46656C80.1963 7.69255 80.1963 7.91949 80.2132 8.14548C78.0407 17.4694 70.0294 13.3506 70.0294 13.3506C72.9487 13.4185 73.1977 12.219 73.1977 12.219C71.5004 11.9701 71.1609 10.8612 71.1609 10.8612C71.3132 10.9415 71.4897 10.9628 71.6568 10.9211C71.8238 10.8793 71.9696 10.7774 72.0661 10.6349C70.233 10.1596 70.482 8.37179 70.482 8.37179C70.8087 8.60769 71.1905 8.75575 71.5909 8.80178C71.3872 8.55284 69.6673 6.49343 70.7083 5.42979C70.7083 5.42979 71.9756 7.69287 75.3023 7.89654L75.5286 7.85128C75.4902 7.68828 75.4749 7.52067 75.4834 7.3534C75.4834 6.72319 75.7337 6.11878 76.1794 5.67315C76.625 5.22752 77.2294 4.97717 77.8596 4.97717C79.4438 4.97717 79.7832 5.8824 79.7832 5.8824L80.9148 5.20348C80.8921 5.20348 80.779 6.33502 80.2132 6.56133Z" fill="#00ACED"/>
<path d="M158.93 16.3516L160.17 12.0857C160.17 12.0857 160.19 11.1261 159.33 10.9225C158.47 10.7188 158.149 10.7663 157.626 11.1103L156.323 15.5867L154.15 14.953L156.112 8.21809L158.285 8.85175L157.993 9.85203C157.993 9.85203 159.125 8.6707 160.539 9.20252C161.861 9.6823 162.619 10.798 162.325 12.622L162.368 12.6356L161.1 16.9807L158.93 16.3516ZM153.763 6.59546C153.505 6.52027 153.276 6.37031 153.103 6.16455C152.931 5.95879 152.823 5.70648 152.794 5.43951C152.764 5.17255 152.815 4.90292 152.939 4.66473C153.063 4.42654 153.255 4.23048 153.491 4.10135C153.726 3.97222 153.995 3.91582 154.262 3.93927C154.53 3.96272 154.784 4.06498 154.994 4.23312C155.203 4.40125 155.358 4.62771 155.439 4.88385C155.519 5.13999 155.522 5.41431 155.447 5.67213C155.397 5.84331 155.314 6.00298 155.202 6.14202C155.091 6.28107 154.953 6.39677 154.796 6.48251C154.64 6.56824 154.468 6.62235 154.291 6.64173C154.114 6.66111 153.934 6.64539 153.763 6.59546ZM152.632 14.5162L150.459 13.8826L152.421 7.14765L154.594 7.78131L152.632 14.5162Z" fill="url(#paint2_linear_1_1724)"/>
<path d="M159.383 15.6726L160.623 11.4067C160.623 11.4067 160.643 10.4472 159.783 10.2435C158.923 10.0398 158.602 10.0874 158.079 10.4313L156.775 14.9077L154.603 14.2741L156.565 7.53913L158.738 8.1728L158.446 9.17308C158.446 9.17308 159.577 7.99175 160.992 8.52357C162.313 9.00334 163.071 10.119 162.777 11.9431L162.82 11.9567L161.553 16.3018L159.383 15.6726ZM154.216 5.91651C153.958 5.84131 153.728 5.69135 153.556 5.48559C153.383 5.27984 153.275 5.02752 153.246 4.76056C153.217 4.49359 153.268 4.22396 153.392 3.98577C153.516 3.74758 153.708 3.55153 153.943 3.4224C154.179 3.29327 154.447 3.23686 154.715 3.26032C154.982 3.28377 155.237 3.38603 155.446 3.55416C155.656 3.72229 155.81 3.94875 155.891 4.20489C155.972 4.46103 155.975 4.73536 155.9 4.99317C155.85 5.16435 155.767 5.32402 155.655 5.46307C155.543 5.60211 155.405 5.71781 155.249 5.80355C155.093 5.88929 154.921 5.9434 154.744 5.96278C154.566 5.98216 154.387 5.96644 154.216 5.91651ZM153.084 13.8373L150.912 13.2036L152.874 6.46869L155.046 7.10236L153.084 13.8373Z" fill="#0077B5"/>
<path d="M200.383 24.7791C200.134 25.9785 199.953 27.6079 197.441 28.1737C197.441 28.1737 195.97 28.5584 195.494 27.4948C195.2 28.6489 194.906 29.7126 194.725 29.9842C194.385 30.5376 194.007 31.0669 193.593 31.5683C193.593 31.5683 193.797 29.5315 193.82 29.0789C193.842 28.3774 194.499 25.2317 194.499 25.2317C194.499 25.2317 193.888 23.0139 195.404 22.7423C195.404 22.7423 196.649 22.4481 196.309 24.1002C196.309 24.1002 196.06 25.1864 195.743 26.4311L195.856 26.5895C195.945 26.7649 196.072 26.9174 196.229 27.0352C196.386 27.153 196.569 27.2328 196.762 27.2685C197.373 27.3364 198.98 26.2501 199.025 24.3265C199.07 22.4029 198.663 21.8597 196.988 21.3845C195.313 20.9092 193.888 21.7239 193.367 23.1949C192.779 24.8696 193.254 25.277 193.593 25.6843L193.367 26.8159C193.367 26.8159 191.738 26.2727 191.783 24.5528C191.828 22.8328 192.801 20.2529 196.309 20.2529C199.817 20.2529 200.632 23.557 200.383 24.7791Z" fill="url(#paint3_linear_1_1724)"/>
<path d="M200.835 24.1004C200.586 25.2998 200.405 26.9292 197.893 27.495C197.893 27.495 196.422 27.8797 195.947 26.8161C195.653 27.9702 195.359 29.0339 195.178 29.3055C194.837 29.8589 194.459 30.3882 194.046 30.8896C194.046 30.8896 194.25 28.8528 194.272 28.4002C194.295 27.6987 194.951 24.553 194.951 24.553C194.951 24.553 194.34 22.3352 195.857 22.0636C195.857 22.0636 197.101 21.7694 196.762 23.4215C196.762 23.4215 196.513 24.5077 196.196 25.7524L196.309 25.9108C196.397 26.0862 196.525 26.2387 196.682 26.3565C196.839 26.4743 197.021 26.5541 197.214 26.5898C197.825 26.6577 199.432 25.5714 199.477 23.6478C199.523 21.7241 199.115 21.181 197.441 20.7058C195.766 20.2305 194.34 21.0452 193.82 22.5162C193.231 24.1909 193.707 24.5983 194.046 25.0056L193.82 26.1371C193.82 26.1371 192.19 25.594 192.236 23.8741C192.281 22.1541 193.254 19.5742 196.762 19.5742C200.27 19.5742 201.084 22.8783 200.835 24.1004Z" fill="#BD081C"/>
<path d="M118.572 5.88255H117.101V7.35355C117.099 7.44286 117.063 7.52788 116.999 7.59105C116.936 7.65422 116.851 7.69072 116.762 7.69302H116.536C116.446 7.69072 116.361 7.65422 116.298 7.59105C116.235 7.52788 116.198 7.44286 116.196 7.35355V5.88255H114.725C114.636 5.88026 114.551 5.84376 114.488 5.78059C114.424 5.71742 114.388 5.6324 114.386 5.54309V5.31678C114.388 5.22748 114.424 5.14246 114.488 5.07928C114.551 5.01611 114.636 4.97961 114.725 4.97732H116.196V3.50632C116.198 3.41701 116.235 3.33199 116.298 3.26882C116.361 3.20565 116.446 3.16915 116.536 3.16686H116.762C116.851 3.16915 116.936 3.20565 116.999 3.26882C117.063 3.33199 117.099 3.41701 117.101 3.50632V4.97732H118.572C118.662 4.97961 118.747 5.01611 118.81 5.07928C118.873 5.14246 118.91 5.22748 118.912 5.31678V5.54309C118.91 5.6324 118.873 5.71742 118.81 5.78059C118.747 5.84376 118.662 5.88026 118.572 5.88255ZM113.458 1.9018C113.764 2.29682 113.932 2.78225 113.933 3.28228C113.921 3.75613 113.768 4.21563 113.494 4.60243C113.22 4.98924 112.837 5.28593 112.394 5.45483C112.462 5.68114 112.688 5.93008 113.254 6.33743C114.34 7.12951 114.386 8.60051 114.386 8.60051V8.71367C114.386 9.89046 112.96 10.8636 111.217 10.8636C109.475 10.8636 108.049 9.89046 108.049 8.71367C108.049 7.58213 109.339 6.65426 110.991 6.56374V5.63588C109.724 5.47746 108.728 4.48171 108.728 3.28228C108.728 1.96969 109.882 0.906046 111.331 0.906046H111.444C111.444 0.906046 114.046 0.702369 114.386 0.679738C114.725 0.657108 114.612 1.13235 114.612 1.13235L113.458 1.9018ZM109.633 8.59825C109.633 9.34506 110.403 9.95609 111.331 9.95609C112.258 9.95609 113.028 9.34506 113.028 8.59825C113.028 7.85143 112.258 7.2404 111.331 7.2404C110.403 7.2404 109.633 7.85143 109.633 8.59825ZM112.394 3.05371C112.213 2.19374 111.579 1.58271 110.991 1.69586C110.403 1.80901 110.086 2.62372 110.267 3.48369C110.448 4.34366 111.082 4.95469 111.67 4.84154C112.258 4.72839 112.575 3.93857 112.394 3.05371Z" fill="url(#paint4_linear_1_1724)"/>
<path d="M119.025 5.2036H117.554V6.6746C117.552 6.76391 117.515 6.84893 117.452 6.9121C117.389 6.97527 117.304 7.01177 117.215 7.01406H116.988C116.899 7.01177 116.814 6.97527 116.751 6.9121C116.688 6.84893 116.651 6.76391 116.649 6.6746V5.2036H115.178C115.088 5.20131 115.003 5.16481 114.94 5.10164C114.877 5.03846 114.841 4.95345 114.838 4.86414V4.63783C114.841 4.54852 114.877 4.4635 114.94 4.40033C115.003 4.33716 115.088 4.30066 115.178 4.29837H116.649V2.82737C116.651 2.73806 116.688 2.65304 116.751 2.58987C116.814 2.5267 116.899 2.4902 116.988 2.48791H117.215C117.304 2.4902 117.389 2.5267 117.452 2.58987C117.515 2.65304 117.552 2.73806 117.554 2.82737V4.29837H119.025C119.114 4.30066 119.199 4.33716 119.263 4.40033C119.326 4.4635 119.362 4.54852 119.364 4.63783V4.86414C119.362 4.95345 119.326 5.03846 119.263 5.10164C119.199 5.16481 119.114 5.20131 119.025 5.2036ZM113.91 1.22285C114.217 1.61787 114.384 2.1033 114.386 2.60332C114.373 3.07718 114.22 3.53667 113.946 3.92348C113.672 4.31029 113.29 4.60697 112.847 4.77588C112.915 5.00218 113.141 5.25112 113.707 5.65848C114.793 6.45056 114.838 7.92156 114.838 7.92156V8.03471C114.838 9.21151 113.413 10.1846 111.67 10.1846C109.927 10.1846 108.502 9.21151 108.502 8.03471C108.502 6.90317 109.792 5.97531 111.444 5.88479V4.95692C110.176 4.79851 109.181 3.80276 109.181 2.60332C109.181 1.29074 110.335 0.227091 111.783 0.227091H111.896C111.896 0.227091 114.499 0.0234141 114.838 0.000783326C115.178 -0.0218474 115.065 0.453399 115.065 0.453399L113.91 1.22285ZM110.086 7.91929C110.086 8.66611 110.855 9.27714 111.783 9.27714C112.711 9.27714 113.48 8.66611 113.48 7.91929C113.48 7.17248 112.711 6.56144 111.783 6.56144C110.855 6.56144 110.086 7.17248 110.086 7.91929ZM112.847 2.37475C112.666 1.51478 112.032 0.903751 111.444 1.0169C110.855 1.13006 110.538 1.94477 110.72 2.80474C110.901 3.66471 111.534 4.27574 112.123 4.16258C112.711 4.04943 113.028 3.25961 112.847 2.37475Z" fill="#D34836"/>
<path d="M222.787 141.029H8.70001V150H222.787V141.029Z" fill="url(#paint5_linear_1_1724)"/>
<path d="M221.816 141.029H9.42648V148.545H221.816V141.029Z" fill="#F5F5F5"/>
<path d="M133.11 109.792C133.11 109.792 136.19 130.574 154.356 137.503H80.7677C98.9334 130.576 102.013 109.792 102.013 109.792H133.11Z" fill="#E0E0E0"/>
<path d="M154.68 137.503H80.3988V141.893H154.68V137.503Z" fill="url(#paint6_linear_1_1724)"/>
<path d="M154.354 137.503H80.7677V140.891H154.354V137.503Z" fill="#F5F5F5"/>
<path d="M177.399 35.0761H57.725C57.406 35.0788 57.0907 35.1443 56.7971 35.269C56.5035 35.3937 56.2373 35.575 56.0139 35.8027C55.7905 36.0303 55.6141 36.2998 55.4949 36.5957C55.3757 36.8916 55.3161 37.2081 55.3194 37.527V107.977C55.3194 113.157 59.4291 117.355 64.4984 117.355H170.619C175.688 117.355 179.798 113.157 179.798 107.977V37.527C179.804 36.884 179.555 36.2646 179.106 35.805C178.656 35.3455 178.042 35.0833 177.399 35.0761Z" fill="url(#paint7_linear_1_1724)"/>
<path d="M59.2639 37.052H175.86C176.505 37.052 177.124 37.3083 177.58 37.7646C178.036 38.2208 178.293 38.8396 178.293 39.4848V104.25H56.8289V39.4848C56.8289 39.1651 56.8919 38.8486 57.0143 38.5533C57.1367 38.258 57.3161 37.9897 57.5422 37.7638C57.7684 37.5378 58.0368 37.3587 58.3322 37.2365C58.6277 37.1144 58.9443 37.0517 59.2639 37.052Z" fill="white"/>
<path d="M168.982 115.334H66.1414C63.6716 115.334 61.3029 114.353 59.5564 112.606C57.81 110.86 56.8289 108.491 56.8289 106.021V104.249H178.295V106.021C178.295 108.491 177.314 110.86 175.567 112.606C173.821 114.353 171.452 115.334 168.982 115.334Z" fill="#F5F5F5"/>
<path d="M172.75 42.4946H62.8328V96.7406H172.75V42.4946Z" fill="#7EC845"/>
<path d="M56.3812 100.537C55.9195 100.443 55.484 100.249 55.1055 99.9685C54.727 99.688 54.4146 99.3279 54.1903 98.9135C53.966 98.4992 53.8352 98.0407 53.8073 97.5704C53.7794 97.1001 53.8549 96.6293 54.0285 96.1914L40.7281 67.634L47.4754 65.7377L58.4394 94.4398C59.1558 94.7804 59.7225 95.3718 60.0319 96.1022C60.3414 96.8326 60.3722 97.6511 60.1185 98.4027C59.8648 99.1543 59.3442 99.7867 58.6554 100.18C57.9666 100.573 57.1574 100.701 56.3812 100.537Z" fill="#A0616A"/>
<path d="M30.6237 146.107H34.3017L36.0513 131.92H30.6231L30.6237 146.107Z" fill="#A0616A"/>
<path d="M41.3949 149.521L29.8356 149.522L29.8354 145.056L36.9286 145.056C38.1131 145.056 39.2491 145.526 40.0866 146.364C40.9242 147.201 41.3948 148.337 41.3949 149.521Z" fill="#2F2E41"/>
<path d="M11.5062 142.142L14.8869 143.59L22.0815 131.239L17.0916 129.101L11.5062 142.142Z" fill="#A0616A"/>
<path d="M20.0626 149.522L9.43704 144.971L11.1954 140.865L17.7157 143.658C18.8045 144.125 19.6634 145.004 20.1036 146.104C20.5437 147.204 20.529 148.433 20.0626 149.522Z" fill="#2F2E41"/>
<path d="M39.7172 54.2367C43.7866 54.2367 47.0855 50.9378 47.0855 46.8684C47.0855 42.799 43.7866 39.5001 39.7172 39.5001C35.6478 39.5001 32.3488 42.799 32.3488 46.8684C32.3488 50.9378 35.6478 54.2367 39.7172 54.2367Z" fill="#A0616A"/>
<path d="M34.3939 142.638L30.345 141.867C30.0122 141.805 29.7149 141.62 29.5128 141.349C29.3106 141.078 29.2184 140.74 29.2547 140.403L31.9395 114.226C31.9652 113.976 31.9004 113.725 31.7571 113.519C31.6138 113.313 31.4014 113.165 31.1583 113.102C30.9153 113.039 30.6577 113.065 30.4323 113.176C30.207 113.287 30.0287 113.474 29.9298 113.705L18.2084 141.055C18.138 141.219 18.0356 141.368 17.9072 141.493C17.7788 141.617 17.627 141.715 17.4605 141.78C17.2941 141.845 17.1163 141.877 16.9376 141.873C16.7588 141.869 16.5827 141.829 16.4193 141.757L13.1262 140.293C12.8188 140.158 12.5732 139.912 12.4376 139.605C12.302 139.298 12.2864 138.951 12.3937 138.633L20.4104 114.582C20.433 114.515 20.4486 114.445 20.457 114.374L23.0592 92.4C23.0876 92.1602 23.1798 91.9323 23.3262 91.7402C23.4726 91.5481 23.6679 91.3988 23.8917 91.3078L32.1083 87.97C32.3513 87.8713 32.6179 87.8455 32.8754 87.8958C33.1329 87.9461 33.3702 88.0703 33.5582 88.2533L43.9293 98.3517C44.0909 98.5084 44.2106 98.7031 44.2775 98.918C44.3443 99.1329 44.356 99.3612 44.3117 99.5819L35.9706 141.575C35.9088 141.881 35.7432 142.157 35.5018 142.355C35.2603 142.553 34.9578 142.661 34.6455 142.662C34.5611 142.662 34.4768 142.654 34.3939 142.638Z" fill="#2F2E41"/>
<path d="M29.778 93.6118C28.3427 91.9498 27.2951 91.1954 26.5786 91.3143C25.8677 91.4292 25.4576 92.4223 25.0234 93.4738C24.4307 94.9091 23.7589 96.5359 22.1031 96.6631C21.8453 96.7074 21.5802 96.6782 21.3382 96.579C21.0962 96.4798 20.8869 96.3145 20.7344 96.102C19.4319 94.1649 22.556 87.7548 22.8414 87.1788L22.6949 56.8606C22.6929 56.616 22.7576 56.3755 22.8819 56.1648C23.0063 55.9542 23.1857 55.7814 23.4008 55.665C31.9858 51.0355 43.578 59.0869 45.8145 60.7483C45.9934 60.8808 46.1367 61.0557 46.2315 61.2572C46.3263 61.4587 46.3696 61.6805 46.3576 61.9029C46.0877 66.9806 44.7415 92.599 44.7415 98.3137C44.7415 99.8957 44.1959 100.901 43.1197 101.301C42.7563 101.43 42.3728 101.493 41.9873 101.487C38.7036 101.487 33.3255 97.7192 29.778 93.6118Z" fill="#CCCCCC"/>
<path d="M41.7588 78.8901C41.5793 78.7735 41.4305 78.6154 41.3249 78.4292C41.2192 78.243 41.16 78.0341 41.152 77.8202L40.5705 64.2405C40.5346 63.4045 40.7975 62.5829 41.312 61.9229C41.8265 61.263 42.559 60.8076 43.3785 60.6383C44.1981 60.469 45.0511 60.5969 45.785 60.999C46.5188 61.4011 47.0857 62.0513 47.384 62.8331L51.7362 74.2381C51.8635 74.5726 51.8528 74.944 51.7066 75.2707C51.5604 75.5974 51.2905 75.8527 50.9563 75.9807L42.982 79.0237C42.7824 79.1011 42.567 79.1293 42.3541 79.1061C42.1413 79.0828 41.9371 79.0088 41.7588 78.8901V78.8901Z" fill="#CCCCCC"/>
<path d="M21.4947 100.109C21.1037 99.8456 20.7752 99.5001 20.5322 99.0964C20.2892 98.6928 20.1377 98.2407 20.0884 97.7722C20.039 97.3036 20.0929 96.8299 20.2464 96.3845C20.3999 95.939 20.6492 95.5327 20.9768 95.194L19.5697 63.7227L26.5303 64.5423L25.7223 95.2566C26.2547 95.8446 26.5531 96.6074 26.5607 97.4006C26.5683 98.1938 26.2847 98.9623 25.7636 99.5604C25.2425 100.158 24.5201 100.545 23.7333 100.646C22.9465 100.747 22.15 100.556 21.4947 100.109H21.4947Z" fill="#A0616A"/>
<path d="M16.6613 72.1029C16.5351 71.9299 16.4524 71.7291 16.4201 71.5175C16.3878 71.3058 16.4069 71.0895 16.4757 70.8868L20.774 57.9921C21.0386 57.1981 21.5771 56.5243 22.2931 56.0911C23.0091 55.6579 23.8558 55.4936 24.6819 55.6277C25.5079 55.7617 26.2593 56.1853 26.8016 56.8227C27.3438 57.4601 27.6416 58.2697 27.6415 59.1065V71.3136C27.6411 71.6716 27.4988 72.0147 27.2457 72.2678C26.9926 72.5209 26.6495 72.6632 26.2915 72.6636H17.7565C17.5424 72.6648 17.3311 72.6144 17.1405 72.5169C16.9499 72.4193 16.7855 72.2773 16.6613 72.1029Z" fill="#CCCCCC"/>
<path d="M34.9588 51.8243C34.683 52.0404 34.3385 52.1498 33.9885 52.1324C33.6385 52.1149 33.3065 51.9718 33.0535 51.7293C31.4743 50.2532 30.1416 48.4881 29.4671 46.4439C28.6942 44.1015 28.8917 41.3581 30.3717 39.3849C31.6229 37.7169 33.6033 36.7745 35.554 36.0378C36.3155 35.7158 37.12 35.5069 37.942 35.4177C38.7723 35.3315 39.6042 35.5651 40.2684 36.0709C40.592 36.3293 40.8302 36.6793 40.952 37.0751C41.0738 37.471 41.0734 37.8944 40.951 38.29C41.9514 37.3814 43.1718 36.75 44.4914 36.4585C45.3267 36.2371 46.2094 36.2736 47.0235 36.5634C48.1547 37.0286 48.8896 38.165 49.2282 39.3404C49.5082 40.237 49.5309 41.1942 49.2937 42.1031C49.1718 42.5549 48.9565 42.9762 48.6617 43.3396C48.3668 43.703 47.9989 44.0005 47.5819 44.2128C46.5469 44.7004 45.3186 44.5163 44.2364 44.1451C43.1542 43.7739 42.1281 43.2262 41.0088 42.9894C39.8895 42.7526 38.5971 42.8907 37.8051 43.7164C37.2473 44.2978 37.0277 45.1157 36.8282 45.8963L35.7906 49.9565C35.6761 50.5479 35.457 51.1141 35.1436 51.6286C35.0911 51.7018 35.029 51.7677 34.9588 51.8243Z" fill="#2F2E41"/>
<path d="M64.8413 110.411H55.1514C54.9038 110.41 54.6644 110.322 54.4758 110.161C54.2873 110.001 54.1618 109.779 54.1217 109.534C53.4896 105.429 53.4896 101.252 54.1217 97.1463C54.1618 96.902 54.2873 96.6798 54.4758 96.5193C54.6644 96.3589 54.9038 96.2705 55.1514 96.27H64.8413C64.9984 96.2695 65.1534 96.3049 65.2947 96.3734C65.436 96.4418 65.5599 96.5417 65.6568 96.6652C65.7558 96.7905 65.8249 96.9367 65.8589 97.0927C65.8929 97.2487 65.8908 97.4104 65.8529 97.5655C64.9465 101.362 64.9465 105.319 65.8529 109.115C65.8908 109.27 65.8929 109.432 65.8589 109.588C65.8249 109.744 65.7558 109.89 65.6568 110.016C65.5599 110.139 65.436 110.239 65.2947 110.307C65.1534 110.376 64.9984 110.411 64.8413 110.411Z" fill="#7EC845"/>
<path d="M48.6 149.897H0.3C0.220435 149.897 0.144129 149.866 0.0878677 149.81C0.0316068 149.753 0 149.677 0 149.597C0 149.518 0.0316068 149.442 0.0878677 149.385C0.144129 149.329 0.220435 149.297 0.3 149.297H48.6C48.6796 149.297 48.7559 149.329 48.8121 149.385C48.8684 149.442 48.9 149.518 48.9 149.597C48.9 149.677 48.8684 149.753 48.8121 149.81C48.7559 149.866 48.6796 149.897 48.6 149.897Z" fill="#3F3D56"/>
<defs>
<linearGradient id="paint0_linear_1_1724" x1="33.0416" y1="37.251" x2="33.0416" y2="25.4762" gradientUnits="userSpaceOnUse">
<stop stop-color="#808080" stop-opacity="0.25"/>
<stop offset="0.54" stop-color="#808080" stop-opacity="0.12"/>
<stop offset="1" stop-color="#808080" stop-opacity="0.1"/>
</linearGradient>
<linearGradient id="paint1_linear_1_1724" x1="4833.35" y1="1718.68" x2="4833.35" y2="1338.12" gradientUnits="userSpaceOnUse">
<stop stop-color="#808080" stop-opacity="0.25"/>
<stop offset="0.54" stop-color="#808080" stop-opacity="0.12"/>
<stop offset="1" stop-color="#808080" stop-opacity="0.1"/>
</linearGradient>
<linearGradient id="paint2_linear_1_1724" x1="9451.63" y1="2530.42" x2="9451.63" y2="1778.02" gradientUnits="userSpaceOnUse">
<stop stop-color="#808080" stop-opacity="0.25"/>
<stop offset="0.54" stop-color="#808080" stop-opacity="0.12"/>
<stop offset="1" stop-color="#808080" stop-opacity="0.1"/>
</linearGradient>
<linearGradient id="paint3_linear_1_1724" x1="8445.68" y1="2940.64" x2="8445.68" y2="2374.87" gradientUnits="userSpaceOnUse">
<stop stop-color="#808080" stop-opacity="0.25"/>
<stop offset="0.54" stop-color="#808080" stop-opacity="0.12"/>
<stop offset="1" stop-color="#808080" stop-opacity="0.1"/>
</linearGradient>
<linearGradient id="paint4_linear_1_1724" x1="6256.38" y1="1468.18" x2="6777.79" y2="1468.18" gradientUnits="userSpaceOnUse">
<stop stop-color="#808080" stop-opacity="0.25"/>
<stop offset="0.54" stop-color="#808080" stop-opacity="0.12"/>
<stop offset="1" stop-color="#808080" stop-opacity="0.1"/>
</linearGradient>
<linearGradient id="paint5_linear_1_1724" x1="101272" y1="6087.08" x2="101272" y2="5731.48" gradientUnits="userSpaceOnUse">
<stop stop-color="#808080" stop-opacity="0.25"/>
<stop offset="0.54" stop-color="#808080" stop-opacity="0.12"/>
<stop offset="1" stop-color="#808080" stop-opacity="0.1"/>
</linearGradient>
<linearGradient id="paint6_linear_1_1724" x1="35805.1" y1="2890.27" x2="35805.1" y2="2805.1" gradientUnits="userSpaceOnUse">
<stop stop-color="#808080" stop-opacity="0.25"/>
<stop offset="0.54" stop-color="#808080" stop-opacity="0.12"/>
<stop offset="1" stop-color="#808080" stop-opacity="0.1"/>
</linearGradient>
<linearGradient id="paint7_linear_1_1724" x1="75743.3" y1="52459.8" x2="75743.3" y2="22545.7" gradientUnits="userSpaceOnUse">
<stop stop-color="#808080" stop-opacity="0.25"/>
<stop offset="0.54" stop-color="#808080" stop-opacity="0.12"/>
<stop offset="1" stop-color="#808080" stop-opacity="0.1"/>
</linearGradient>
</defs>
</svg>
