<svg width="245" height="150" viewBox="0 0 245 150" fill="none" xmlns="http://www.w3.org/2000/svg">
<path d="M32.8416 52.4468L27.3584 56.0431L84.4625 143.109L89.9457 139.513L32.8416 52.4468Z" fill="#E6E6E6"/>
<path d="M19.7878 19.6814L32.4741 39.024C32.7197 39.3986 32.8066 39.8554 32.7154 40.294C32.6243 40.7325 32.3626 41.1169 31.9881 41.3626C31.6135 41.6083 31.1566 41.6951 30.7181 41.604C30.2795 41.5128 29.8951 41.2512 29.6494 40.8766L15.065 18.64C13.0854 18.4747 11.0957 18.8015 9.2729 19.5913L25.1632 43.819C25.4087 44.1935 25.4954 44.6503 25.4042 45.0888C25.313 45.5273 25.0514 45.9116 24.6769 46.1572C24.3024 46.4028 23.8457 46.4896 23.4072 46.3986C22.9687 46.3075 22.5843 46.046 22.3385 45.6716L6.44824 21.4439C4.99759 22.801 3.90507 24.4958 3.26795 26.3774L17.8523 48.614C18.0978 48.9886 18.1845 49.4453 18.0933 49.8838C18.0021 50.3223 17.7405 50.7066 17.366 50.9522C16.9915 51.1978 16.5348 51.2846 16.0963 51.1936C15.6578 51.1025 15.2734 50.841 15.0277 50.4666L2.34142 31.124C2.01558 36.5172 3.77398 42.9096 7.62765 48.7852C14.7898 59.7053 26.4728 64.7033 33.7223 59.9486C40.9718 55.1939 41.0425 42.4869 33.8803 31.5668C30.0267 25.6911 24.8643 21.5314 19.7878 19.6814Z" fill="#E6E6E6"/>
<path d="M57.426 40.536H50.8687V144.658H57.426V40.536Z" fill="#E6E6E6"/>
<path d="M54.0478 47.292C62.7174 47.292 69.7455 36.7053 69.7455 23.646C69.7455 10.5867 62.7174 0 54.0478 0C45.3782 0 38.35 10.5867 38.35 23.646C38.35 36.7053 45.3782 47.292 54.0478 47.292Z" fill="#E6E6E6"/>
<path d="M54.0481 43.1016C61.1813 43.1016 66.9639 34.391 66.9639 23.646C66.9639 12.901 61.1813 4.19049 54.0481 4.19049C46.9148 4.19049 41.1322 12.901 41.1322 23.646C41.1322 34.391 46.9148 43.1016 54.0481 43.1016Z" fill="#CCCCCC"/>
<path d="M72.3289 150C112.275 150 144.658 148.142 144.658 145.85C144.658 143.558 112.275 141.7 72.3289 141.7C32.3827 141.7 0 143.558 0 145.85C0 148.142 32.3827 150 72.3289 150Z" fill="#E6E6E6"/>
<path d="M115.104 145.789C87.998 140.903 60.2368 140.903 33.1308 145.789C32.7003 145.867 32.2578 145.85 31.8347 145.738C31.4116 145.626 31.0182 145.423 30.6822 145.143C30.3461 144.863 30.0757 144.512 29.89 144.116C29.7043 143.719 29.6078 143.287 29.6074 142.85V105.711H118.628V142.85C118.627 143.287 118.531 143.719 118.345 144.116C118.159 144.512 117.889 144.863 117.553 145.143C117.217 145.423 116.823 145.626 116.4 145.738C115.977 145.85 115.535 145.867 115.104 145.789Z" fill="#7EC845"/>
<path d="M110.48 78.29C108.425 78.2881 106.383 78.6297 104.44 79.3007C101.607 73.1542 97.0784 67.9435 91.3872 64.2802C85.696 60.6168 79.0779 58.6528 72.3097 58.6186C65.5415 58.5844 58.9039 60.4815 53.176 64.0871C47.448 67.6928 42.8674 72.8574 39.9716 78.975C37.1201 78.1751 34.1182 78.0722 31.2187 78.6749C28.3191 79.2777 25.6069 80.5684 23.3105 82.4385C21.0141 84.3085 19.2007 86.703 18.0231 89.4204C16.8456 92.1377 16.3383 95.0982 16.544 98.0526C16.7498 101.007 17.6625 103.869 19.2054 106.396C20.7482 108.924 22.876 111.044 25.4095 112.578C27.9429 114.112 30.8079 115.014 33.763 115.209C36.7181 115.404 39.6767 114.886 42.3898 113.699C45.6506 118.668 50.1045 122.74 55.3445 125.545C60.5846 128.35 66.4438 129.797 72.387 129.754C78.3303 129.711 84.168 128.18 89.3672 125.3C94.5663 122.421 98.9611 118.284 102.15 113.269C104.642 114.527 107.386 115.204 110.176 115.249C112.967 115.295 115.731 114.708 118.263 113.533C120.794 112.357 123.026 110.624 124.792 108.462C126.557 106.301 127.81 103.767 128.457 101.052C129.104 98.3374 129.127 95.5112 128.525 92.7859C127.923 90.0606 126.712 87.507 124.982 85.3168C123.252 83.1265 121.049 81.3565 118.537 80.1395C116.026 78.9225 113.271 78.2902 110.48 78.29Z" fill="#7EC845"/>
<path d="M36.7606 94.1865H36.3632C36.3497 88.8955 37.5206 83.6685 39.7903 78.889L40.1495 79.0592C37.9051 83.7855 36.7471 88.9543 36.7606 94.1865Z" fill="#3F3D56"/>
<path d="M107.897 94.1866H107.5C107.512 89.075 106.407 84.0225 104.262 79.3828L104.623 79.2163C106.792 83.9082 107.91 89.0175 107.897 94.1866Z" fill="#3F3D56"/>
<path d="M29.6552 122.993L29.5593 122.607C29.6715 122.579 40.9657 119.806 57.5173 118.429C72.7939 117.159 95.8052 116.853 118.676 122.607L118.579 122.993C95.7642 117.252 72.8032 117.557 57.5586 118.825C41.0366 120.198 29.7671 122.965 29.6552 122.993Z" fill="#3F3D56"/>
<path d="M29.6552 128.358L29.5593 127.972C29.6715 127.945 40.9657 125.171 57.5173 123.794C72.7939 122.524 95.8052 122.218 118.676 127.973L118.579 128.358C95.7642 122.617 72.8032 122.923 57.5586 124.19C41.0366 125.563 29.7671 128.33 29.6552 128.358Z" fill="#3F3D56"/>
<path d="M29.6552 133.723L29.5593 133.337C29.6715 133.31 40.9657 130.536 57.5173 129.159C72.7939 127.889 95.8052 127.583 118.676 133.338L118.579 133.723C95.7642 127.982 72.8032 128.288 57.5586 129.555C41.0366 130.928 29.7671 133.695 29.6552 133.723Z" fill="#3F3D56"/>
<path d="M102.784 104.55L97.9693 102.913L102.591 79.3211L99.4137 79.0323C96.3151 81.4097 92.1888 82.3417 86.8955 81.6322L95.3694 94.4393L91.0485 97.4894L77.2647 80.956C76.6434 80.2108 76.3031 79.2712 76.3031 78.301C76.3031 77.4015 76.5956 76.5264 77.1365 75.8077C77.6774 75.0891 78.4373 74.5658 79.3017 74.3168L94.0212 70.0769L111.258 72.0028C113.864 75.9757 113.966 78.7388 109.999 79.5359L102.784 104.55Z" fill="#2F2E41"/>
<path d="M97.856 113.728C97.3583 113.697 96.8751 113.548 96.4455 113.295C96.016 113.042 95.6522 112.69 95.3838 112.27C95.1154 111.85 94.9499 111.372 94.9007 110.876C94.8515 110.38 94.9201 109.879 95.1009 109.414L97.4945 103.259C98.7103 100.956 100.379 101.244 102.349 103.259L103.312 106.084C103.392 106.316 103.423 106.562 103.405 106.807C103.387 107.052 103.319 107.291 103.206 107.51L100.873 112.02C100.59 112.567 100.154 113.02 99.6185 113.323C99.0828 113.626 98.4704 113.767 97.856 113.728Z" fill="#2F2E41"/>
<path d="M91.6337 105.668C91.136 105.636 90.6527 105.488 90.2232 105.235C89.7936 104.981 89.4298 104.63 89.1614 104.21C88.893 103.79 88.7275 103.312 88.6783 102.816C88.6292 102.319 88.6978 101.819 88.8785 101.354L91.2721 95.1988C92.488 92.8956 94.1566 93.1839 96.127 95.1988L97.09 98.0234C97.1693 98.256 97.2007 98.5022 97.1825 98.7473C97.1642 98.9923 97.0966 99.2311 96.9837 99.4494L94.6506 103.96C94.3678 104.507 93.9319 104.959 93.3962 105.263C92.8605 105.566 92.2481 105.707 91.6337 105.668Z" fill="#2F2E41"/>
<path d="M94.6953 47.544C97.6735 47.544 100.088 45.1297 100.088 42.1515C100.088 39.1733 97.6735 36.759 94.6953 36.759C91.7171 36.759 89.3028 39.1733 89.3028 42.1515C89.3028 45.1297 91.7171 47.544 94.6953 47.544Z" fill="#FFB9B9"/>
<path d="M103.072 49.7589L95.6578 53.6106L94.117 46.6773L99.2206 43.4996L103.072 49.7589Z" fill="#FFB9B9"/>
<path d="M112.028 72.9658C104.629 70.7311 97.9164 69.5733 93.0581 71.3288C94.7327 66.6178 91.6419 59.424 88.2434 52.07C89.7098 50.1531 92.0478 49.4106 94.6951 49.0848C97.5916 51.188 99.6113 49.8381 101.147 46.5812C104.496 46.4468 107.723 47.6327 110.873 49.6626C108.411 57.5484 108.854 65.3138 112.028 72.9658Z" fill="#3F3D56"/>
<path d="M92.9621 72.4843C91.7938 73.1729 90.7155 74.3329 89.6881 75.7583C87.9517 74.6954 86.4237 73.4853 85.22 72.0459C84.3774 71.0254 83.8028 69.8107 83.5485 68.5119C83.2941 67.2132 83.368 65.8715 83.7634 64.6085L87.0541 53.9138C87.3274 53.0256 87.8584 52.2385 88.5797 51.6525L89.014 51.2996L93.3472 59.4846L89.014 67.5733C89.5635 69.0466 91.1828 70.7484 92.9621 72.4843Z" fill="#3F3D56"/>
<path d="M94.4534 80.6382C94.0605 80.8173 93.6314 80.9025 93.1999 80.8872C92.7684 80.8718 92.3464 80.7562 91.9673 80.5496C91.5882 80.343 91.2624 80.051 91.0156 79.6967C90.7688 79.3424 90.6079 78.9356 90.5455 78.5083L89.8293 73.6054L92.3329 72.2573L95.5104 76.4169C95.7642 76.7491 95.9399 77.1343 96.0244 77.5438C96.1089 77.9533 96.1 78.3765 95.9985 78.7821C95.8969 79.1877 95.7053 79.5652 95.4378 79.8865C95.1703 80.2079 94.8338 80.4648 94.4534 80.6382Z" fill="#FFB9B9"/>
<path d="M100.136 41.9157L99.215 41.943L96.6611 38.3251C93.3885 38.6634 90.7069 40.0853 88.4376 42.2631L88.2075 40.7292C87.9881 39.2664 88.3376 37.7751 89.1841 36.5621C90.0306 35.3491 91.3097 34.5066 92.7584 34.2079H92.7584C93.5194 34.051 94.3041 34.049 95.0658 34.2022C95.8276 34.3553 96.5506 34.6603 97.1918 35.0991C97.833 35.5379 98.3792 36.1013 98.7978 36.7559C99.2164 37.4104 99.4988 38.1426 99.6281 38.9087L100.136 41.9157Z" fill="#2F2E41"/>
<path d="M89.7812 75.7602C89.6021 75.3674 89.5168 74.9382 89.5322 74.5067C89.5476 74.0753 89.6632 73.6533 89.8698 73.2742C90.0764 72.8951 90.3684 72.5692 90.7227 72.3225C91.077 72.0757 91.4838 71.9147 91.911 71.8523L96.814 71.1362L98.1621 73.6398L94.0025 76.8173C93.6703 77.0711 93.2851 77.2468 92.8756 77.3313C92.4661 77.4158 92.0429 77.4069 91.6373 77.3053C91.2317 77.2038 90.8542 77.0121 90.5329 76.7446C90.2115 76.4771 89.9546 76.1407 89.7812 75.7602Z" fill="#FFB9B9"/>
<path d="M112.962 71.3004C108.298 71.6626 103.205 73.1172 97.873 75.1805C97.8068 73.5978 97.2328 72.0784 96.236 70.8473C101.078 69.5718 105.473 68.075 108.176 65.7437L106.539 53.418L110.102 49.3737L110.717 49.6943C111.227 49.9595 111.676 50.3291 112.035 50.779C112.393 51.2289 112.653 51.7491 112.797 52.3059C114.301 58.1576 114.97 63.7643 114.51 69.0405C114.57 69.5407 114.445 70.0455 114.161 70.4611C113.876 70.8767 113.45 71.1749 112.962 71.3004Z" fill="#3F3D56"/>
<path d="M19.0529 144.68C14.7147 147.393 10.3765 147.392 6.03828 144.677C5.90095 144.592 5.78941 144.471 5.7158 144.328C5.64219 144.184 5.60932 144.023 5.62075 143.863L6.97441 126.265H17.9232L19.4697 143.856C19.483 144.019 19.4512 144.182 19.3776 144.327C19.3041 144.472 19.1917 144.595 19.0529 144.68Z" fill="#3F3D56"/>
<path d="M12.3984 128.455C15.4497 128.455 17.9233 127.563 17.9233 126.464C17.9233 125.365 15.4497 124.473 12.3984 124.473C9.34711 124.473 6.87354 125.365 6.87354 126.464C6.87354 127.563 9.34711 128.455 12.3984 128.455Z" fill="#3F3D56"/>
<path d="M16.7291 125.792C13.8501 127.817 11.0632 127.817 8.36816 125.792V122.607H16.7291V125.792Z" fill="#7EC845"/>
<path d="M12.5486 124.2C14.8574 124.2 16.7291 123.487 16.7291 122.607C16.7291 121.727 14.8574 121.014 12.5486 121.014C10.2398 121.014 8.36816 121.727 8.36816 122.607C8.36816 123.487 10.2398 124.2 12.5486 124.2Z" fill="#7EC845"/>
<path d="M12.7474 122.607C12.9673 122.607 13.1455 122.518 13.1455 122.408C13.1455 122.298 12.9673 122.209 12.7474 122.209C12.5275 122.209 12.3492 122.298 12.3492 122.408C12.3492 122.518 12.5275 122.607 12.7474 122.607Z" fill="#E6E6E6"/>
<path d="M14.6275 122.607C14.8474 122.607 15.0256 122.518 15.0256 122.408C15.0256 122.298 14.8474 122.209 14.6275 122.209C14.4076 122.209 14.2294 122.298 14.2294 122.408C14.2294 122.518 14.4076 122.607 14.6275 122.607Z" fill="#E6E6E6"/>
<path d="M13.6877 123.077C13.9076 123.077 14.0858 122.988 14.0858 122.878C14.0858 122.768 13.9076 122.679 13.6877 122.679C13.4678 122.679 13.2896 122.768 13.2896 122.878C13.2896 122.988 13.4678 123.077 13.6877 123.077Z" fill="#E6E6E6"/>
<path d="M9.92731 123.077C10.1472 123.077 10.3254 122.988 10.3254 122.878C10.3254 122.768 10.1472 122.679 9.92731 122.679C9.70743 122.679 9.52917 122.768 9.52917 122.878C9.52917 122.988 9.70743 123.077 9.92731 123.077Z" fill="#E6E6E6"/>
<path d="M10.8677 122.607C11.0876 122.607 11.2659 122.518 11.2659 122.408C11.2659 122.298 11.0876 122.209 10.8677 122.209C10.6479 122.209 10.4696 122.298 10.4696 122.408C10.4696 122.518 10.6479 122.607 10.8677 122.607Z" fill="#E6E6E6"/>
<path d="M11.8077 123.312C12.0276 123.312 12.2058 123.223 12.2058 123.113C12.2058 123.003 12.0276 122.914 11.8077 122.914C11.5878 122.914 11.4095 123.003 11.4095 123.113C11.4095 123.223 11.5878 123.312 11.8077 123.312Z" fill="#E6E6E6"/>
<path d="M139.27 144.68C134.932 147.393 130.593 147.392 126.255 144.677C126.118 144.592 126.006 144.471 125.933 144.328C125.859 144.184 125.826 144.023 125.838 143.863L127.191 126.265H138.14L139.687 143.856C139.7 144.019 139.668 144.182 139.594 144.327C139.521 144.472 139.409 144.595 139.27 144.68Z" fill="#3F3D56"/>
<path d="M132.615 128.455C135.667 128.455 138.14 127.563 138.14 126.464C138.14 125.365 135.667 124.473 132.615 124.473C129.564 124.473 127.09 125.365 127.09 126.464C127.09 127.563 129.564 128.455 132.615 128.455Z" fill="#3F3D56"/>
<path d="M136.946 125.792C134.067 127.817 131.28 127.817 128.585 125.792V122.607H136.946V125.792Z" fill="#7EC845"/>
<path d="M132.765 124.2C135.074 124.2 136.946 123.487 136.946 122.607C136.946 121.727 135.074 121.014 132.765 121.014C130.456 121.014 128.585 121.727 128.585 122.607C128.585 123.487 130.456 124.2 132.765 124.2Z" fill="#7EC845"/>
<path d="M132.964 122.607C133.184 122.607 133.363 122.518 133.363 122.408C133.363 122.298 133.184 122.209 132.964 122.209C132.745 122.209 132.566 122.298 132.566 122.408C132.566 122.518 132.745 122.607 132.964 122.607Z" fill="#E6E6E6"/>
<path d="M134.845 122.607C135.064 122.607 135.243 122.518 135.243 122.408C135.243 122.298 135.064 122.209 134.845 122.209C134.625 122.209 134.446 122.298 134.446 122.408C134.446 122.518 134.625 122.607 134.845 122.607Z" fill="#E6E6E6"/>
<path d="M133.904 123.077C134.124 123.077 134.303 122.988 134.303 122.878C134.303 122.768 134.124 122.679 133.904 122.679C133.685 122.679 133.506 122.768 133.506 122.878C133.506 122.988 133.685 123.077 133.904 123.077Z" fill="#E6E6E6"/>
<path d="M130.144 123.077C130.364 123.077 130.543 122.988 130.543 122.878C130.543 122.768 130.364 122.679 130.144 122.679C129.925 122.679 129.746 122.768 129.746 122.878C129.746 122.988 129.925 123.077 130.144 123.077Z" fill="#E6E6E6"/>
<path d="M131.085 122.607C131.304 122.607 131.483 122.518 131.483 122.408C131.483 122.298 131.304 122.209 131.085 122.209C130.865 122.209 130.686 122.298 130.686 122.408C130.686 122.518 130.865 122.607 131.085 122.607Z" fill="#E6E6E6"/>
<path d="M132.025 123.312C132.244 123.312 132.423 123.223 132.423 123.113C132.423 123.003 132.244 122.914 132.025 122.914C131.805 122.914 131.626 123.003 131.626 123.113C131.626 123.223 131.805 123.312 132.025 123.312Z" fill="#E6E6E6"/>
<path d="M149.639 146.075C151.023 148.642 153.962 149.745 153.962 149.745C153.962 149.745 154.656 146.684 153.271 144.116C151.886 141.548 148.948 140.445 148.948 140.445C148.948 140.445 148.254 143.507 149.639 146.075Z" fill="#2F2E41"/>
<path d="M150.59 145.23C153.09 146.734 154.053 149.721 154.053 149.721C154.053 149.721 150.963 150.27 148.463 148.766C145.963 147.262 145 144.275 145 144.275C145 144.275 148.09 143.726 150.59 145.23Z" fill="#7EC845"/>
<path d="M206.639 70.6673H191.041V70.8901H206.639V70.6673Z" fill="#F2F2F2"/>
<path d="M202.405 70.8344H202.182V72.8955H202.405V70.8344Z" fill="#F2F2F2"/>
<path d="M195.609 70.8344H195.386V72.8955H195.609V70.8344Z" fill="#F2F2F2"/>
<path d="M214.549 81.3629H198.952V81.5857H214.549V81.3629Z" fill="#F2F2F2"/>
<path d="M203.408 79.3575H203.185V81.4186H203.408V79.3575Z" fill="#F2F2F2"/>
<path d="M210.204 79.3575H209.981V81.4186H210.204V79.3575Z" fill="#F2F2F2"/>
<path d="M235.272 86.3764H219.674V86.5992H235.272V86.3764Z" fill="#F2F2F2"/>
<path d="M224.13 84.371H223.908V86.4321H224.13V84.371Z" fill="#F2F2F2"/>
<path d="M230.927 84.371H230.704V86.4321H230.927V84.371Z" fill="#F2F2F2"/>
<path d="M233.712 138.072H218.114V138.295H233.712V138.072Z" fill="#F2F2F2"/>
<path d="M222.571 136.066H222.348V138.128H222.571V136.066Z" fill="#F2F2F2"/>
<path d="M229.367 136.066H229.144V138.128H229.367V136.066Z" fill="#F2F2F2"/>
<path d="M207.084 102.309H191.487V102.531H207.084V102.309Z" fill="#F2F2F2"/>
<path d="M195.943 100.303H195.72V102.364H195.943V100.303Z" fill="#F2F2F2"/>
<path d="M202.739 100.303H202.516V102.364H202.739V100.303Z" fill="#F2F2F2"/>
<path d="M211.986 129.159H196.389V129.382H211.986V129.159Z" fill="#F2F2F2"/>
<path d="M200.845 127.153H200.623V129.214H200.845V127.153Z" fill="#F2F2F2"/>
<path d="M207.641 127.153H207.419V129.214H207.641V127.153Z" fill="#F2F2F2"/>
<path d="M236.943 121.026H221.345V121.249H236.943V121.026Z" fill="#F2F2F2"/>
<path d="M225.802 119.02H225.579V121.081H225.802V119.02Z" fill="#F2F2F2"/>
<path d="M232.598 119.02H232.375V121.081H232.598V119.02Z" fill="#F2F2F2"/>
<path d="M185.338 144.899H158.957V144.709H185.148V135.504H161.175L160.011 133.078L160.182 132.996L161.295 135.314H185.338V144.899Z" fill="#2F2E41"/>
<path d="M162.468 149.549C163.569 149.549 164.461 148.657 164.461 147.556C164.461 146.455 163.569 145.563 162.468 145.563C161.368 145.563 160.475 146.455 160.475 147.556C160.475 148.657 161.368 149.549 162.468 149.549Z" fill="#3F3D56"/>
<path d="M182.112 149.549C183.212 149.549 184.104 148.657 184.104 147.556C184.104 146.455 183.212 145.563 182.112 145.563C181.011 145.563 180.119 146.455 180.119 147.556C180.119 148.657 181.011 149.549 182.112 149.549Z" fill="#3F3D56"/>
<path d="M205.266 106.466C205.947 106.466 206.5 105.914 206.5 105.233C206.5 104.551 205.947 103.999 205.266 103.999C204.585 103.999 204.032 104.551 204.032 105.233C204.032 105.914 204.585 106.466 205.266 106.466Z" fill="#3F3D56"/>
<path d="M188.16 132.373H158.507L152.091 111.401H194.767L194.728 111.524L188.16 132.373ZM158.648 132.183H188.02L194.508 111.59H152.348L158.648 132.183Z" fill="#2F2E41"/>
<path d="M185.845 131.281H159.8L154.165 112.682H191.649L191.614 112.791L185.845 131.281Z" fill="#F2F2F2"/>
<path d="M195.299 109.527L195.115 109.478L196.368 104.758H203.653V104.948H196.514L195.299 109.527Z" fill="#2F2E41"/>
<path d="M192.635 117.759H154.165V117.948H192.635V117.759Z" fill="#2F2E41"/>
<path d="M190.431 124.751H156.304V124.941H190.431V124.751Z" fill="#2F2E41"/>
<path d="M173.524 111.496H173.334V132.278H173.524V111.496Z" fill="#2F2E41"/>
<path d="M182.021 111.489L180.658 132.271L180.848 132.283L182.21 111.502L182.021 111.489Z" fill="#2F2E41"/>
<path d="M164.84 111.489L164.651 111.502L166.005 132.284L166.195 132.271L164.84 111.489Z" fill="#2F2E41"/>
<path d="M244.826 149.669H145V149.892H244.826V149.669Z" fill="#2F2E41"/>
<path d="M211.336 73.5605C211.336 73.5605 212.965 78.196 211.963 78.9092C210.96 79.6223 215.345 85.4463 215.345 85.4463L220.607 84.02L217.726 79.1469C217.726 79.1469 217.35 74.2737 217.35 73.5605C217.35 72.8474 211.336 73.5605 211.336 73.5605Z" fill="#A0616A"/>
<path opacity="0.1" d="M211.336 73.5605C211.336 73.5605 212.965 78.196 211.963 78.9092C210.96 79.6223 215.345 85.4463 215.345 85.4463L220.607 84.02L217.726 79.1469C217.726 79.1469 217.35 74.2737 217.35 73.5605C217.35 72.8474 211.336 73.5605 211.336 73.5605Z" fill="black"/>
<path d="M208.602 106.603C208.602 106.603 208.127 112.546 208.602 115.636C209.078 118.726 209.791 127.284 209.791 127.284C209.791 127.284 209.791 143.449 212.406 143.687C215.021 143.924 216.922 144.162 217.16 143.211C217.398 142.26 215.972 141.785 216.685 141.309C217.398 140.834 217.636 139.17 216.685 137.268C215.734 135.367 216.685 116.112 216.685 116.112L221.201 128.235C221.201 128.235 221.677 138.219 222.152 139.645C222.628 141.072 221.677 143.687 223.341 143.924C225.005 144.162 226.907 142.736 227.857 142.26C228.808 141.785 226.431 141.785 226.907 141.547C227.382 141.309 228.808 140.596 228.333 140.359C227.857 140.121 227.382 128.711 227.382 128.711C227.382 128.711 226.075 104.345 224.411 103.394C222.747 102.443 221.677 104.081 221.677 104.081L208.602 106.603Z" fill="#2F2E41"/>
<path d="M212.881 142.736V144.638C212.881 144.638 210.742 149.807 212.881 149.807C215.021 149.807 216.685 150.343 216.685 149.63V143.211L212.881 142.736Z" fill="#2F2E41"/>
<path d="M226.907 142.732V144.634C226.907 144.634 229.046 149.804 226.907 149.804C224.767 149.804 223.103 150.339 223.103 149.626V143.208L226.907 142.732Z" fill="#2F2E41"/>
<path d="M214.664 77.0074C217.028 77.0074 218.943 75.0916 218.943 72.7285C218.943 70.3653 217.028 68.4496 214.664 68.4496C212.301 68.4496 210.386 70.3653 210.386 72.7285C210.386 75.0916 212.301 77.0074 214.664 77.0074Z" fill="#A0616A"/>
<path d="M213.357 80.692C213.357 80.692 214.545 84.2578 216.447 83.5446L218.349 82.8315L221.677 105.652C221.677 105.652 219.062 109.456 215.258 107.078C211.455 104.701 213.357 80.692 213.357 80.692Z" fill="#7EC845"/>
<path d="M216.685 79.9788L217.754 77.7205C217.754 77.7205 224.054 80.692 225.005 81.6428C225.956 82.5937 225.956 84.02 225.956 84.02L224.292 89.9629C224.292 89.9629 224.767 103.037 224.767 103.513C224.767 103.988 226.431 106.603 225.243 105.652C224.054 104.701 223.816 103.75 222.865 105.177C221.915 106.603 219.775 108.267 219.775 108.267L216.685 79.9788Z" fill="#3F3D56"/>
<path d="M225.005 97.0944L224.292 103.75C224.292 103.75 220.013 107.554 220.964 107.792C221.915 108.029 222.39 107.078 222.39 107.078C222.39 107.078 224.054 108.742 225.005 107.792C225.956 106.841 228.333 97.8075 228.333 97.8075L225.005 97.0944Z" fill="#A0616A"/>
<path d="M214.755 66.6812C213.807 66.6473 212.792 66.6305 211.992 67.1417C211.624 67.3982 211.301 67.7142 211.037 68.0766C210.258 69.0613 209.585 70.3003 209.874 71.5221L210.21 71.391C210.21 71.7172 210.138 72.0392 209.998 72.3339C210.045 72.1963 210.204 72.4187 210.161 72.5579L209.791 73.7724C210.4 73.5493 211.157 74.001 211.249 74.6425C211.292 73.2319 211.438 71.6143 212.582 70.7884C213.159 70.3718 213.89 70.2447 214.592 70.1317C215.24 70.0276 215.92 69.9282 216.541 70.1416C217.162 70.355 217.691 70.99 217.55 71.6313C217.836 71.5327 218.156 71.7322 218.298 71.9999C218.439 72.2677 218.447 72.5835 218.451 72.8862C218.756 73.1019 219.103 72.6736 219.228 72.3213C219.52 71.4941 219.779 70.6136 219.622 69.7506C219.465 68.8877 218.761 68.063 217.884 68.0601C217.991 67.9431 218.048 67.7893 218.043 67.6313L217.32 67.5702C217.503 67.5442 217.672 67.4552 217.797 67.3184C217.507 67.6378 215.225 66.698 214.755 66.6812Z" fill="#2F2E41"/>
<path d="M214.545 79.2657C214.545 79.2657 212.61 77.3694 211.913 77.4855C211.217 77.6017 210.266 79.2657 210.266 79.2657C210.266 79.2657 204.561 81.1674 204.799 83.0692C205.036 84.9709 207.651 94.2418 207.651 94.2418C207.651 94.2418 209.791 105.414 207.889 106.603C205.987 107.792 216.922 110.882 217.16 109.456C217.398 108.029 217.873 93.7664 217.16 91.6269C216.447 89.4875 214.545 79.2657 214.545 79.2657Z" fill="#3F3D56"/>
<path d="M222.865 83.0692H225.805C225.805 83.0692 227.857 92.1024 228.095 93.0533C228.333 94.0041 228.808 98.5207 228.571 98.5207C228.333 98.5207 223.579 97.5699 223.579 98.283L222.865 83.0692Z" fill="#3F3D56"/>
<path d="M222.766 105.438H211.513C210.415 100.387 210.323 95.5063 211.513 90.8433H222.766C220.95 95.4224 220.836 100.27 222.766 105.438Z" fill="#F2F2F2"/>
<path d="M206.938 99.2337L210.266 100.66C210.266 100.66 216.685 101.611 216.685 98.996C216.685 96.3811 210.266 97.8074 210.266 97.8074L208.127 97.1234L206.938 99.2337Z" fill="#A0616A"/>
<path d="M207.652 81.6428L204.799 82.356L202.66 94.9549C202.66 94.9549 201.946 98.2829 203.135 98.5206C204.324 98.7584 207.652 100.66 207.652 100.66C207.652 100.66 208.127 97.0943 209.078 97.0943L206.701 95.1926L208.127 86.8726L207.652 81.6428Z" fill="#3F3D56"/>
<path d="M167.31 105.985H151.712V106.208H167.31V105.985Z" fill="#F2F2F2"/>
<path d="M156.169 103.98H155.946V106.041H156.169V103.98Z" fill="#F2F2F2"/>
<path d="M162.965 103.98H162.742V106.041H162.965V103.98Z" fill="#F2F2F2"/>
<path d="M172.769 73.007H157.172V73.2298H172.769V73.007Z" fill="#F2F2F2"/>
<path d="M168.536 73.1741H168.313V75.2352H168.536V73.1741Z" fill="#F2F2F2"/>
<path d="M161.74 73.1741H161.517V75.2352H161.74V73.1741Z" fill="#F2F2F2"/>
<path d="M188.479 94.9552H172.881V95.178H188.479V94.9552Z" fill="#F2F2F2"/>
<path d="M184.245 95.1223H184.022V97.1834H184.245V95.1223Z" fill="#F2F2F2"/>
<path d="M177.449 95.1223H177.226V97.1834H177.449V95.1223Z" fill="#F2F2F2"/>
<path d="M161.962 94.8439H146.365V95.0668H161.962V94.8439Z" fill="#F2F2F2"/>
<path d="M157.729 95.0109H157.506V97.0721H157.729V95.0109Z" fill="#F2F2F2"/>
<path d="M150.932 95.0109H150.71V97.0721H150.932V95.0109Z" fill="#F2F2F2"/>
<path d="M180.68 83.7026H165.082V83.9254H180.68V83.7026Z" fill="#F2F2F2"/>
<path d="M169.538 81.6971H169.316V83.7583H169.538V81.6971Z" fill="#F2F2F2"/>
<path d="M176.335 81.6971H176.112V83.7583H176.335V81.6971Z" fill="#F2F2F2"/>
</svg>
