<svg width="1440" height="750" viewBox="0 0 1440 750" fill="none" xmlns="http://www.w3.org/2000/svg">
<mask id="mask0_1_760" style="mask-type:alpha" maskUnits="userSpaceOnUse" x="0" y="0" width="1440" height="750">
<path d="M0 0H1440V750C1440 750 1008 634.415 728.5 655.754C542.756 669.935 440.946 731.8 264 689.98C153.99 663.981 0 571.925 0 571.925V0Z" fill="#0F487A"/>
</mask>
<g mask="url(#mask0_1_760)">
<path d="M0 0H1440V750C1440 750 1008 634.415 728.5 655.754C542.756 669.935 440.946 731.8 264 689.98C153.99 663.981 0 571.925 0 571.925V0Z" fill="#0F487A"/>
<path d="M1016.34 111.401C1341.22 -213.993 1395.89 -798.806 1766.99 -669.691C2211.41 -515.069 1786.94 383.327 1404.63 698.969C1099.58 950.818 537.453 1234.01 463.427 795.148C401.582 428.505 801.122 326.962 1016.34 111.401Z" fill="url(#paint0_linear_1_760)"/>
<circle cx="837" cy="215" r="149.5" stroke="#BED441" stroke-opacity="0.25"/>
<circle cx="837" cy="215" r="134.5" stroke="#BED441" stroke-opacity="0.25"/>
<circle cx="837" cy="215" r="119.5" stroke="#BED441" stroke-opacity="0.25"/>
<circle cx="837" cy="215" r="104.5" stroke="#BED441" stroke-opacity="0.25"/>
<circle cx="837" cy="215" r="89.5" stroke="#BED441" stroke-opacity="0.25"/>
<circle cx="837" cy="215" r="74.5" stroke="#BED441" stroke-opacity="0.25"/>
<circle cx="837" cy="215" r="59.5" stroke="#BED441" stroke-opacity="0.25"/>
<circle cx="837" cy="215" r="44.5" stroke="#BED441" stroke-opacity="0.25"/>
<circle cx="837" cy="215" r="29.5" stroke="#BED441" stroke-opacity="0.25"/>
<circle cx="837" cy="215" r="14.5" stroke="#BED441" stroke-opacity="0.25"/>
<circle cx="56.9231" cy="541.923" r="1.92308" fill="#BED441" fill-opacity="0.25"/>
<circle cx="64.6155" cy="541.923" r="1.92308" fill="#BED441" fill-opacity="0.25"/>
<circle cx="72.3076" cy="541.923" r="1.92308" fill="#BED441" fill-opacity="0.25"/>
<circle cx="80" cy="541.923" r="1.92308" fill="#BED441" fill-opacity="0.25"/>
<circle cx="87.6924" cy="541.923" r="1.92308" fill="#BED441" fill-opacity="0.25"/>
<circle cx="95.3845" cy="541.923" r="1.92308" fill="#BED441" fill-opacity="0.25"/>
<circle cx="103.077" cy="541.923" r="1.92308" fill="#BED441" fill-opacity="0.25"/>
<circle cx="110.769" cy="541.923" r="1.92308" fill="#BED441" fill-opacity="0.25"/>
<circle cx="118.462" cy="541.923" r="1.92308" fill="#BED441" fill-opacity="0.25"/>
<circle cx="126.154" cy="541.923" r="1.92308" fill="#BED441" fill-opacity="0.25"/>
<circle cx="133.846" cy="541.923" r="1.92308" fill="#BED441" fill-opacity="0.25"/>
<circle cx="141.539" cy="541.923" r="1.92308" fill="#BED441" fill-opacity="0.25"/>
<circle cx="149.231" cy="541.923" r="1.92308" fill="#BED441" fill-opacity="0.25"/>
<circle cx="156.923" cy="541.923" r="1.92308" fill="#BED441" fill-opacity="0.25"/>
<circle cx="164.615" cy="541.923" r="1.92308" fill="#BED441" fill-opacity="0.25"/>
<circle cx="172.308" cy="541.923" r="1.92308" fill="#BED441" fill-opacity="0.25"/>
<circle cx="180" cy="541.923" r="1.92308" fill="#BED441" fill-opacity="0.25"/>
<circle cx="187.692" cy="541.923" r="1.92308" fill="#BED441" fill-opacity="0.25"/>
<circle cx="195.385" cy="541.923" r="1.92308" fill="#BED441" fill-opacity="0.25"/>
<circle cx="203.077" cy="541.923" r="1.92308" fill="#BED441" fill-opacity="0.25"/>
<circle cx="56.9231" cy="549.615" r="1.92308" fill="#BED441" fill-opacity="0.25"/>
<circle cx="64.6155" cy="549.615" r="1.92308" fill="#BED441" fill-opacity="0.25"/>
<circle cx="72.3076" cy="549.615" r="1.92308" fill="#BED441" fill-opacity="0.25"/>
<circle cx="80" cy="549.615" r="1.92308" fill="#BED441" fill-opacity="0.25"/>
<circle cx="87.6924" cy="549.615" r="1.92308" fill="#BED441" fill-opacity="0.25"/>
<circle cx="95.3845" cy="549.615" r="1.92308" fill="#BED441" fill-opacity="0.25"/>
<circle cx="103.077" cy="549.615" r="1.92308" fill="#BED441" fill-opacity="0.25"/>
<circle cx="110.769" cy="549.615" r="1.92308" fill="#BED441" fill-opacity="0.25"/>
<circle cx="118.462" cy="549.615" r="1.92308" fill="#BED441" fill-opacity="0.25"/>
<circle cx="126.154" cy="549.615" r="1.92308" fill="#BED441" fill-opacity="0.25"/>
<circle cx="133.846" cy="549.615" r="1.92308" fill="#BED441" fill-opacity="0.25"/>
<circle cx="141.539" cy="549.615" r="1.92308" fill="#BED441" fill-opacity="0.25"/>
<circle cx="149.231" cy="549.615" r="1.92308" fill="#BED441" fill-opacity="0.25"/>
<circle cx="156.923" cy="549.615" r="1.92308" fill="#BED441" fill-opacity="0.25"/>
<circle cx="164.615" cy="549.615" r="1.92308" fill="#BED441" fill-opacity="0.25"/>
<circle cx="172.308" cy="549.615" r="1.92308" fill="#BED441" fill-opacity="0.25"/>
<circle cx="180" cy="549.615" r="1.92308" fill="#BED441" fill-opacity="0.25"/>
<circle cx="187.692" cy="549.615" r="1.92308" fill="#BED441" fill-opacity="0.25"/>
<circle cx="195.385" cy="549.615" r="1.92308" fill="#BED441" fill-opacity="0.25"/>
<circle cx="203.077" cy="549.615" r="1.92308" fill="#BED441" fill-opacity="0.25"/>
<circle cx="56.9231" cy="557.308" r="1.92308" fill="#BED441" fill-opacity="0.25"/>
<circle cx="64.6155" cy="557.308" r="1.92308" fill="#BED441" fill-opacity="0.25"/>
<circle cx="72.3076" cy="557.308" r="1.92308" fill="#BED441" fill-opacity="0.25"/>
<circle cx="80" cy="557.308" r="1.92308" fill="#BED441" fill-opacity="0.25"/>
<circle cx="87.6924" cy="557.308" r="1.92308" fill="#BED441" fill-opacity="0.25"/>
<circle cx="95.3845" cy="557.308" r="1.92308" fill="#BED441" fill-opacity="0.25"/>
<circle cx="103.077" cy="557.308" r="1.92308" fill="#BED441" fill-opacity="0.25"/>
<circle cx="110.769" cy="557.308" r="1.92308" fill="#BED441" fill-opacity="0.25"/>
<circle cx="118.462" cy="557.308" r="1.92308" fill="#BED441" fill-opacity="0.25"/>
<circle cx="126.154" cy="557.308" r="1.92308" fill="#BED441" fill-opacity="0.25"/>
<circle cx="133.846" cy="557.308" r="1.92308" fill="#BED441" fill-opacity="0.25"/>
<circle cx="141.539" cy="557.308" r="1.92308" fill="#BED441" fill-opacity="0.25"/>
<circle cx="149.231" cy="557.308" r="1.92308" fill="#BED441" fill-opacity="0.25"/>
<circle cx="156.923" cy="557.308" r="1.92308" fill="#BED441" fill-opacity="0.25"/>
<circle cx="164.615" cy="557.308" r="1.92308" fill="#BED441" fill-opacity="0.25"/>
<circle cx="172.308" cy="557.308" r="1.92308" fill="#BED441" fill-opacity="0.25"/>
<circle cx="180" cy="557.308" r="1.92308" fill="#BED441" fill-opacity="0.25"/>
<circle cx="187.692" cy="557.308" r="1.92308" fill="#BED441" fill-opacity="0.25"/>
<circle cx="195.385" cy="557.308" r="1.92308" fill="#BED441" fill-opacity="0.25"/>
<circle cx="203.077" cy="557.308" r="1.92308" fill="#BED441" fill-opacity="0.25"/>
<circle cx="56.9231" cy="565" r="1.92308" fill="#BED441" fill-opacity="0.25"/>
<circle cx="64.6155" cy="565" r="1.92308" fill="#BED441" fill-opacity="0.25"/>
<circle cx="72.3076" cy="565" r="1.92308" fill="#BED441" fill-opacity="0.25"/>
<circle cx="80" cy="565" r="1.92308" fill="#BED441" fill-opacity="0.25"/>
<circle cx="87.6924" cy="565" r="1.92308" fill="#BED441" fill-opacity="0.25"/>
<circle cx="95.3845" cy="565" r="1.92308" fill="#BED441" fill-opacity="0.25"/>
<circle cx="103.077" cy="565" r="1.92308" fill="#BED441" fill-opacity="0.25"/>
<circle cx="110.769" cy="565" r="1.92308" fill="#BED441" fill-opacity="0.25"/>
<circle cx="118.462" cy="565" r="1.92308" fill="#BED441" fill-opacity="0.25"/>
<circle cx="126.154" cy="565" r="1.92308" fill="#BED441" fill-opacity="0.25"/>
<circle cx="133.846" cy="565" r="1.92308" fill="#BED441" fill-opacity="0.25"/>
<circle cx="141.539" cy="565" r="1.92308" fill="#BED441" fill-opacity="0.25"/>
<circle cx="149.231" cy="565" r="1.92308" fill="#BED441" fill-opacity="0.25"/>
<circle cx="156.923" cy="565" r="1.92308" fill="#BED441" fill-opacity="0.25"/>
<circle cx="164.615" cy="565" r="1.92308" fill="#BED441" fill-opacity="0.25"/>
<circle cx="172.308" cy="565" r="1.92308" fill="#BED441" fill-opacity="0.25"/>
<circle cx="180" cy="565" r="1.92308" fill="#BED441" fill-opacity="0.25"/>
<circle cx="187.692" cy="565" r="1.92308" fill="#BED441" fill-opacity="0.25"/>
<circle cx="195.385" cy="565" r="1.92308" fill="#BED441" fill-opacity="0.25"/>
<circle cx="203.077" cy="565" r="1.92308" fill="#BED441" fill-opacity="0.25"/>
<circle cx="56.9231" cy="572.692" r="1.92308" fill="#BED441" fill-opacity="0.25"/>
<circle cx="64.6155" cy="572.692" r="1.92308" fill="#BED441" fill-opacity="0.25"/>
<circle cx="72.3076" cy="572.692" r="1.92308" fill="#BED441" fill-opacity="0.25"/>
<circle cx="80" cy="572.692" r="1.92308" fill="#BED441" fill-opacity="0.25"/>
<circle cx="87.6924" cy="572.692" r="1.92308" fill="#BED441" fill-opacity="0.25"/>
<circle cx="95.3845" cy="572.692" r="1.92308" fill="#BED441" fill-opacity="0.25"/>
<circle cx="103.077" cy="572.692" r="1.92308" fill="#BED441" fill-opacity="0.25"/>
<circle cx="110.769" cy="572.692" r="1.92308" fill="#BED441" fill-opacity="0.25"/>
<circle cx="118.462" cy="572.692" r="1.92308" fill="#BED441" fill-opacity="0.25"/>
<circle cx="126.154" cy="572.692" r="1.92308" fill="#BED441" fill-opacity="0.25"/>
<circle cx="133.846" cy="572.692" r="1.92308" fill="#BED441" fill-opacity="0.25"/>
<circle cx="141.539" cy="572.692" r="1.92308" fill="#BED441" fill-opacity="0.25"/>
<circle cx="149.231" cy="572.692" r="1.92308" fill="#BED441" fill-opacity="0.25"/>
<circle cx="156.923" cy="572.692" r="1.92308" fill="#BED441" fill-opacity="0.25"/>
<circle cx="164.615" cy="572.692" r="1.92308" fill="#BED441" fill-opacity="0.25"/>
<circle cx="172.308" cy="572.692" r="1.92308" fill="#BED441" fill-opacity="0.25"/>
<circle cx="180" cy="572.692" r="1.92308" fill="#BED441" fill-opacity="0.25"/>
<circle cx="187.692" cy="572.692" r="1.92308" fill="#BED441" fill-opacity="0.25"/>
<circle cx="195.385" cy="572.692" r="1.92308" fill="#BED441" fill-opacity="0.25"/>
<circle cx="203.077" cy="572.692" r="1.92308" fill="#BED441" fill-opacity="0.25"/>
<circle cx="56.9231" cy="580.385" r="1.92308" fill="#BED441" fill-opacity="0.25"/>
<circle cx="64.6155" cy="580.385" r="1.92308" fill="#BED441" fill-opacity="0.25"/>
<circle cx="72.3076" cy="580.385" r="1.92308" fill="#BED441" fill-opacity="0.25"/>
<circle cx="80" cy="580.385" r="1.92308" fill="#BED441" fill-opacity="0.25"/>
<circle cx="87.6924" cy="580.385" r="1.92308" fill="#BED441" fill-opacity="0.25"/>
<circle cx="95.3845" cy="580.385" r="1.92308" fill="#BED441" fill-opacity="0.25"/>
<circle cx="103.077" cy="580.385" r="1.92308" fill="#BED441" fill-opacity="0.25"/>
<circle cx="110.769" cy="580.385" r="1.92308" fill="#BED441" fill-opacity="0.25"/>
<circle cx="118.462" cy="580.385" r="1.92308" fill="#BED441" fill-opacity="0.25"/>
<circle cx="126.154" cy="580.385" r="1.92308" fill="#BED441" fill-opacity="0.25"/>
<circle cx="133.846" cy="580.385" r="1.92308" fill="#BED441" fill-opacity="0.25"/>
<circle cx="141.539" cy="580.385" r="1.92308" fill="#BED441" fill-opacity="0.25"/>
<circle cx="149.231" cy="580.385" r="1.92308" fill="#BED441" fill-opacity="0.25"/>
<circle cx="156.923" cy="580.385" r="1.92308" fill="#BED441" fill-opacity="0.25"/>
<circle cx="164.615" cy="580.385" r="1.92308" fill="#BED441" fill-opacity="0.25"/>
<circle cx="172.308" cy="580.385" r="1.92308" fill="#BED441" fill-opacity="0.25"/>
<circle cx="180" cy="580.385" r="1.92308" fill="#BED441" fill-opacity="0.25"/>
<circle cx="187.692" cy="580.385" r="1.92308" fill="#BED441" fill-opacity="0.25"/>
<circle cx="195.385" cy="580.385" r="1.92308" fill="#BED441" fill-opacity="0.25"/>
<circle cx="203.077" cy="580.385" r="1.92308" fill="#BED441" fill-opacity="0.25"/>
<circle cx="56.9231" cy="588.077" r="1.92308" fill="#BED441" fill-opacity="0.25"/>
<circle cx="64.6155" cy="588.077" r="1.92308" fill="#BED441" fill-opacity="0.25"/>
<circle cx="72.3076" cy="588.077" r="1.92308" fill="#BED441" fill-opacity="0.25"/>
<circle cx="80" cy="588.077" r="1.92308" fill="#BED441" fill-opacity="0.25"/>
<circle cx="87.6924" cy="588.077" r="1.92308" fill="#BED441" fill-opacity="0.25"/>
<circle cx="95.3845" cy="588.077" r="1.92308" fill="#BED441" fill-opacity="0.25"/>
<circle cx="103.077" cy="588.077" r="1.92308" fill="#BED441" fill-opacity="0.25"/>
<circle cx="110.769" cy="588.077" r="1.92308" fill="#BED441" fill-opacity="0.25"/>
<circle cx="118.462" cy="588.077" r="1.92308" fill="#BED441" fill-opacity="0.25"/>
<circle cx="126.154" cy="588.077" r="1.92308" fill="#BED441" fill-opacity="0.25"/>
<circle cx="133.846" cy="588.077" r="1.92308" fill="#BED441" fill-opacity="0.25"/>
<circle cx="141.539" cy="588.077" r="1.92308" fill="#BED441" fill-opacity="0.25"/>
<circle cx="149.231" cy="588.077" r="1.92308" fill="#BED441" fill-opacity="0.25"/>
<circle cx="156.923" cy="588.077" r="1.92308" fill="#BED441" fill-opacity="0.25"/>
<circle cx="164.615" cy="588.077" r="1.92308" fill="#BED441" fill-opacity="0.25"/>
<circle cx="172.308" cy="588.077" r="1.92308" fill="#BED441" fill-opacity="0.25"/>
<circle cx="180" cy="588.077" r="1.92308" fill="#BED441" fill-opacity="0.25"/>
<circle cx="187.692" cy="588.077" r="1.92308" fill="#BED441" fill-opacity="0.25"/>
<circle cx="195.385" cy="588.077" r="1.92308" fill="#BED441" fill-opacity="0.25"/>
<circle cx="203.077" cy="588.077" r="1.92308" fill="#BED441" fill-opacity="0.25"/>
<circle cx="56.9231" cy="595.769" r="1.92308" fill="#BED441" fill-opacity="0.25"/>
<circle cx="64.6155" cy="595.769" r="1.92308" fill="#BED441" fill-opacity="0.25"/>
<circle cx="72.3076" cy="595.769" r="1.92308" fill="#BED441" fill-opacity="0.25"/>
<circle cx="80" cy="595.769" r="1.92308" fill="#BED441" fill-opacity="0.25"/>
<circle cx="87.6924" cy="595.769" r="1.92308" fill="#BED441" fill-opacity="0.25"/>
<circle cx="95.3845" cy="595.769" r="1.92308" fill="#BED441" fill-opacity="0.25"/>
<circle cx="103.077" cy="595.769" r="1.92308" fill="#BED441" fill-opacity="0.25"/>
<circle cx="110.769" cy="595.769" r="1.92308" fill="#BED441" fill-opacity="0.25"/>
<circle cx="118.462" cy="595.769" r="1.92308" fill="#BED441" fill-opacity="0.25"/>
<circle cx="126.154" cy="595.769" r="1.92308" fill="#BED441" fill-opacity="0.25"/>
<circle cx="133.846" cy="595.769" r="1.92308" fill="#BED441" fill-opacity="0.25"/>
<circle cx="141.539" cy="595.769" r="1.92308" fill="#BED441" fill-opacity="0.25"/>
<circle cx="149.231" cy="595.769" r="1.92308" fill="#BED441" fill-opacity="0.25"/>
<circle cx="156.923" cy="595.769" r="1.92308" fill="#BED441" fill-opacity="0.25"/>
<circle cx="164.615" cy="595.769" r="1.92308" fill="#BED441" fill-opacity="0.25"/>
<circle cx="172.308" cy="595.769" r="1.92308" fill="#BED441" fill-opacity="0.25"/>
<circle cx="180" cy="595.769" r="1.92308" fill="#BED441" fill-opacity="0.25"/>
<circle cx="187.692" cy="595.769" r="1.92308" fill="#BED441" fill-opacity="0.25"/>
<circle cx="195.385" cy="595.769" r="1.92308" fill="#BED441" fill-opacity="0.25"/>
<circle cx="203.077" cy="595.769" r="1.92308" fill="#BED441" fill-opacity="0.25"/>
<circle cx="56.9231" cy="603.462" r="1.92308" fill="#BED441" fill-opacity="0.25"/>
<circle cx="64.6155" cy="603.462" r="1.92308" fill="#BED441" fill-opacity="0.25"/>
<circle cx="72.3076" cy="603.462" r="1.92308" fill="#BED441" fill-opacity="0.25"/>
<circle cx="80" cy="603.462" r="1.92308" fill="#BED441" fill-opacity="0.25"/>
<circle cx="87.6924" cy="603.462" r="1.92308" fill="#BED441" fill-opacity="0.25"/>
<circle cx="95.3845" cy="603.462" r="1.92308" fill="#BED441" fill-opacity="0.25"/>
<circle cx="103.077" cy="603.462" r="1.92308" fill="#BED441" fill-opacity="0.25"/>
<circle cx="110.769" cy="603.462" r="1.92308" fill="#BED441" fill-opacity="0.25"/>
<circle cx="118.462" cy="603.462" r="1.92308" fill="#BED441" fill-opacity="0.25"/>
<circle cx="126.154" cy="603.462" r="1.92308" fill="#BED441" fill-opacity="0.25"/>
<circle cx="133.846" cy="603.462" r="1.92308" fill="#BED441" fill-opacity="0.25"/>
<circle cx="141.539" cy="603.462" r="1.92308" fill="#BED441" fill-opacity="0.25"/>
<circle cx="149.231" cy="603.462" r="1.92308" fill="#BED441" fill-opacity="0.25"/>
<circle cx="156.923" cy="603.462" r="1.92308" fill="#BED441" fill-opacity="0.25"/>
<circle cx="164.615" cy="603.462" r="1.92308" fill="#BED441" fill-opacity="0.25"/>
<circle cx="172.308" cy="603.462" r="1.92308" fill="#BED441" fill-opacity="0.25"/>
<circle cx="180" cy="603.462" r="1.92308" fill="#BED441" fill-opacity="0.25"/>
<circle cx="187.692" cy="603.462" r="1.92308" fill="#BED441" fill-opacity="0.25"/>
<circle cx="195.385" cy="603.462" r="1.92308" fill="#BED441" fill-opacity="0.25"/>
<circle cx="203.077" cy="603.462" r="1.92308" fill="#BED441" fill-opacity="0.25"/>
<circle cx="56.9231" cy="611.154" r="1.92308" fill="#BED441" fill-opacity="0.25"/>
<circle cx="64.6155" cy="611.154" r="1.92308" fill="#BED441" fill-opacity="0.25"/>
<circle cx="72.3076" cy="611.154" r="1.92308" fill="#BED441" fill-opacity="0.25"/>
<circle cx="80" cy="611.154" r="1.92308" fill="#BED441" fill-opacity="0.25"/>
<circle cx="87.6924" cy="611.154" r="1.92308" fill="#BED441" fill-opacity="0.25"/>
<circle cx="95.3845" cy="611.154" r="1.92308" fill="#BED441" fill-opacity="0.25"/>
<circle cx="103.077" cy="611.154" r="1.92308" fill="#BED441" fill-opacity="0.25"/>
<circle cx="110.769" cy="611.154" r="1.92308" fill="#BED441" fill-opacity="0.25"/>
<circle cx="118.462" cy="611.154" r="1.92308" fill="#BED441" fill-opacity="0.25"/>
<circle cx="126.154" cy="611.154" r="1.92308" fill="#BED441" fill-opacity="0.25"/>
<circle cx="133.846" cy="611.154" r="1.92308" fill="#BED441" fill-opacity="0.25"/>
<circle cx="141.539" cy="611.154" r="1.92308" fill="#BED441" fill-opacity="0.25"/>
<circle cx="149.231" cy="611.154" r="1.92308" fill="#BED441" fill-opacity="0.25"/>
<circle cx="156.923" cy="611.154" r="1.92308" fill="#BED441" fill-opacity="0.25"/>
<circle cx="164.615" cy="611.154" r="1.92308" fill="#BED441" fill-opacity="0.25"/>
<circle cx="172.308" cy="611.154" r="1.92308" fill="#BED441" fill-opacity="0.25"/>
<circle cx="180" cy="611.154" r="1.92308" fill="#BED441" fill-opacity="0.25"/>
<circle cx="187.692" cy="611.154" r="1.92308" fill="#BED441" fill-opacity="0.25"/>
<circle cx="195.385" cy="611.154" r="1.92308" fill="#BED441" fill-opacity="0.25"/>
<circle cx="203.077" cy="611.154" r="1.92308" fill="#BED441" fill-opacity="0.25"/>
<circle cx="56.9231" cy="618.846" r="1.92308" fill="#BED441" fill-opacity="0.25"/>
<circle cx="64.6155" cy="618.846" r="1.92308" fill="#BED441" fill-opacity="0.25"/>
<circle cx="72.3076" cy="618.846" r="1.92308" fill="#BED441" fill-opacity="0.25"/>
<circle cx="80" cy="618.846" r="1.92308" fill="#BED441" fill-opacity="0.25"/>
<circle cx="87.6924" cy="618.846" r="1.92308" fill="#BED441" fill-opacity="0.25"/>
<circle cx="95.3845" cy="618.846" r="1.92308" fill="#BED441" fill-opacity="0.25"/>
<circle cx="103.077" cy="618.846" r="1.92308" fill="#BED441" fill-opacity="0.25"/>
<circle cx="110.769" cy="618.846" r="1.92308" fill="#BED441" fill-opacity="0.25"/>
<circle cx="118.462" cy="618.846" r="1.92308" fill="#BED441" fill-opacity="0.25"/>
<circle cx="126.154" cy="618.846" r="1.92308" fill="#BED441" fill-opacity="0.25"/>
<circle cx="133.846" cy="618.846" r="1.92308" fill="#BED441" fill-opacity="0.25"/>
<circle cx="141.539" cy="618.846" r="1.92308" fill="#BED441" fill-opacity="0.25"/>
<circle cx="149.231" cy="618.846" r="1.92308" fill="#BED441" fill-opacity="0.25"/>
<circle cx="156.923" cy="618.846" r="1.92308" fill="#BED441" fill-opacity="0.25"/>
<circle cx="164.615" cy="618.846" r="1.92308" fill="#BED441" fill-opacity="0.25"/>
<circle cx="172.308" cy="618.846" r="1.92308" fill="#BED441" fill-opacity="0.25"/>
<circle cx="180" cy="618.846" r="1.92308" fill="#BED441" fill-opacity="0.25"/>
<circle cx="187.692" cy="618.846" r="1.92308" fill="#BED441" fill-opacity="0.25"/>
<circle cx="195.385" cy="618.846" r="1.92308" fill="#BED441" fill-opacity="0.25"/>
<circle cx="203.077" cy="618.846" r="1.92308" fill="#BED441" fill-opacity="0.25"/>
<circle cx="56.9231" cy="626.538" r="1.92308" fill="#BED441" fill-opacity="0.25"/>
<circle cx="64.6155" cy="626.538" r="1.92308" fill="#BED441" fill-opacity="0.25"/>
<circle cx="72.3076" cy="626.538" r="1.92308" fill="#BED441" fill-opacity="0.25"/>
<circle cx="80" cy="626.538" r="1.92308" fill="#BED441" fill-opacity="0.25"/>
<circle cx="87.6924" cy="626.538" r="1.92308" fill="#BED441" fill-opacity="0.25"/>
<circle cx="95.3845" cy="626.538" r="1.92308" fill="#BED441" fill-opacity="0.25"/>
<circle cx="103.077" cy="626.538" r="1.92308" fill="#BED441" fill-opacity="0.25"/>
<circle cx="110.769" cy="626.538" r="1.92308" fill="#BED441" fill-opacity="0.25"/>
<circle cx="118.462" cy="626.538" r="1.92308" fill="#BED441" fill-opacity="0.25"/>
<circle cx="126.154" cy="626.538" r="1.92308" fill="#BED441" fill-opacity="0.25"/>
<circle cx="133.846" cy="626.538" r="1.92308" fill="#BED441" fill-opacity="0.25"/>
<circle cx="141.539" cy="626.538" r="1.92308" fill="#BED441" fill-opacity="0.25"/>
<circle cx="149.231" cy="626.538" r="1.92308" fill="#BED441" fill-opacity="0.25"/>
<circle cx="156.923" cy="626.538" r="1.92308" fill="#BED441" fill-opacity="0.25"/>
<circle cx="164.615" cy="626.538" r="1.92308" fill="#BED441" fill-opacity="0.25"/>
<circle cx="172.308" cy="626.538" r="1.92308" fill="#BED441" fill-opacity="0.25"/>
<circle cx="180" cy="626.538" r="1.92308" fill="#BED441" fill-opacity="0.25"/>
<circle cx="187.692" cy="626.538" r="1.92308" fill="#BED441" fill-opacity="0.25"/>
<circle cx="195.385" cy="626.538" r="1.92308" fill="#BED441" fill-opacity="0.25"/>
<circle cx="203.077" cy="626.538" r="1.92308" fill="#BED441" fill-opacity="0.25"/>
<circle cx="56.9231" cy="634.231" r="1.92308" fill="#BED441" fill-opacity="0.25"/>
<circle cx="64.6155" cy="634.231" r="1.92308" fill="#BED441" fill-opacity="0.25"/>
<circle cx="72.3076" cy="634.231" r="1.92308" fill="#BED441" fill-opacity="0.25"/>
<circle cx="80" cy="634.231" r="1.92308" fill="#BED441" fill-opacity="0.25"/>
<circle cx="87.6924" cy="634.231" r="1.92308" fill="#BED441" fill-opacity="0.25"/>
<circle cx="95.3845" cy="634.231" r="1.92308" fill="#BED441" fill-opacity="0.25"/>
<circle cx="103.077" cy="634.231" r="1.92308" fill="#BED441" fill-opacity="0.25"/>
<circle cx="110.769" cy="634.231" r="1.92308" fill="#BED441" fill-opacity="0.25"/>
<circle cx="118.462" cy="634.231" r="1.92308" fill="#BED441" fill-opacity="0.25"/>
<circle cx="126.154" cy="634.231" r="1.92308" fill="#BED441" fill-opacity="0.25"/>
<circle cx="133.846" cy="634.231" r="1.92308" fill="#BED441" fill-opacity="0.25"/>
<circle cx="141.539" cy="634.231" r="1.92308" fill="#BED441" fill-opacity="0.25"/>
<circle cx="149.231" cy="634.231" r="1.92308" fill="#BED441" fill-opacity="0.25"/>
<circle cx="156.923" cy="634.231" r="1.92308" fill="#BED441" fill-opacity="0.25"/>
<circle cx="164.615" cy="634.231" r="1.92308" fill="#BED441" fill-opacity="0.25"/>
<circle cx="172.308" cy="634.231" r="1.92308" fill="#BED441" fill-opacity="0.25"/>
<circle cx="180" cy="634.231" r="1.92308" fill="#BED441" fill-opacity="0.25"/>
<circle cx="187.692" cy="634.231" r="1.92308" fill="#BED441" fill-opacity="0.25"/>
<circle cx="195.385" cy="634.231" r="1.92308" fill="#BED441" fill-opacity="0.25"/>
<circle cx="203.077" cy="634.231" r="1.92308" fill="#BED441" fill-opacity="0.25"/>
<circle cx="56.9231" cy="641.923" r="1.92308" fill="#BED441" fill-opacity="0.25"/>
<circle cx="64.6155" cy="641.923" r="1.92308" fill="#BED441" fill-opacity="0.25"/>
<circle cx="72.3076" cy="641.923" r="1.92308" fill="#BED441" fill-opacity="0.25"/>
<circle cx="80" cy="641.923" r="1.92308" fill="#BED441" fill-opacity="0.25"/>
<circle cx="87.6924" cy="641.923" r="1.92308" fill="#BED441" fill-opacity="0.25"/>
<circle cx="95.3845" cy="641.923" r="1.92308" fill="#BED441" fill-opacity="0.25"/>
<circle cx="103.077" cy="641.923" r="1.92308" fill="#BED441" fill-opacity="0.25"/>
<circle cx="110.769" cy="641.923" r="1.92308" fill="#BED441" fill-opacity="0.25"/>
<circle cx="118.462" cy="641.923" r="1.92308" fill="#BED441" fill-opacity="0.25"/>
<circle cx="126.154" cy="641.923" r="1.92308" fill="#BED441" fill-opacity="0.25"/>
<circle cx="133.846" cy="641.923" r="1.92308" fill="#BED441" fill-opacity="0.25"/>
<circle cx="141.539" cy="641.923" r="1.92308" fill="#BED441" fill-opacity="0.25"/>
<circle cx="149.231" cy="641.923" r="1.92308" fill="#BED441" fill-opacity="0.25"/>
<circle cx="156.923" cy="641.923" r="1.92308" fill="#BED441" fill-opacity="0.25"/>
<circle cx="164.615" cy="641.923" r="1.92308" fill="#BED441" fill-opacity="0.25"/>
<circle cx="172.308" cy="641.923" r="1.92308" fill="#BED441" fill-opacity="0.25"/>
<circle cx="180" cy="641.923" r="1.92308" fill="#BED441" fill-opacity="0.25"/>
<circle cx="187.692" cy="641.923" r="1.92308" fill="#BED441" fill-opacity="0.25"/>
<circle cx="195.385" cy="641.923" r="1.92308" fill="#BED441" fill-opacity="0.25"/>
<circle cx="203.077" cy="641.923" r="1.92308" fill="#BED441" fill-opacity="0.25"/>
<circle cx="56.9231" cy="649.615" r="1.92308" fill="#BED441" fill-opacity="0.25"/>
<circle cx="64.6155" cy="649.615" r="1.92308" fill="#BED441" fill-opacity="0.25"/>
<circle cx="72.3076" cy="649.615" r="1.92308" fill="#BED441" fill-opacity="0.25"/>
<circle cx="80" cy="649.615" r="1.92308" fill="#BED441" fill-opacity="0.25"/>
<circle cx="87.6924" cy="649.615" r="1.92308" fill="#BED441" fill-opacity="0.25"/>
<circle cx="95.3845" cy="649.615" r="1.92308" fill="#BED441" fill-opacity="0.25"/>
<circle cx="103.077" cy="649.615" r="1.92308" fill="#BED441" fill-opacity="0.25"/>
<circle cx="110.769" cy="649.615" r="1.92308" fill="#BED441" fill-opacity="0.25"/>
<circle cx="118.462" cy="649.615" r="1.92308" fill="#BED441" fill-opacity="0.25"/>
<circle cx="126.154" cy="649.615" r="1.92308" fill="#BED441" fill-opacity="0.25"/>
<circle cx="133.846" cy="649.615" r="1.92308" fill="#BED441" fill-opacity="0.25"/>
<circle cx="141.539" cy="649.615" r="1.92308" fill="#BED441" fill-opacity="0.25"/>
<circle cx="149.231" cy="649.615" r="1.92308" fill="#BED441" fill-opacity="0.25"/>
<circle cx="156.923" cy="649.615" r="1.92308" fill="#BED441" fill-opacity="0.25"/>
<circle cx="164.615" cy="649.615" r="1.92308" fill="#BED441" fill-opacity="0.25"/>
<circle cx="172.308" cy="649.615" r="1.92308" fill="#BED441" fill-opacity="0.25"/>
<circle cx="180" cy="649.615" r="1.92308" fill="#BED441" fill-opacity="0.25"/>
<circle cx="187.692" cy="649.615" r="1.92308" fill="#BED441" fill-opacity="0.25"/>
<circle cx="195.385" cy="649.615" r="1.92308" fill="#BED441" fill-opacity="0.25"/>
<circle cx="203.077" cy="649.615" r="1.92308" fill="#BED441" fill-opacity="0.25"/>
<circle cx="56.9231" cy="657.308" r="1.92308" fill="#BED441" fill-opacity="0.25"/>
<circle cx="64.6155" cy="657.308" r="1.92308" fill="#BED441" fill-opacity="0.25"/>
<circle cx="72.3076" cy="657.308" r="1.92308" fill="#BED441" fill-opacity="0.25"/>
<circle cx="80" cy="657.308" r="1.92308" fill="#BED441" fill-opacity="0.25"/>
<circle cx="87.6924" cy="657.308" r="1.92308" fill="#BED441" fill-opacity="0.25"/>
<circle cx="95.3845" cy="657.308" r="1.92308" fill="#BED441" fill-opacity="0.25"/>
<circle cx="103.077" cy="657.308" r="1.92308" fill="#BED441" fill-opacity="0.25"/>
<circle cx="110.769" cy="657.308" r="1.92308" fill="#BED441" fill-opacity="0.25"/>
<circle cx="118.462" cy="657.308" r="1.92308" fill="#BED441" fill-opacity="0.25"/>
<circle cx="126.154" cy="657.308" r="1.92308" fill="#BED441" fill-opacity="0.25"/>
<circle cx="133.846" cy="657.308" r="1.92308" fill="#BED441" fill-opacity="0.25"/>
<circle cx="141.539" cy="657.308" r="1.92308" fill="#BED441" fill-opacity="0.25"/>
<circle cx="149.231" cy="657.308" r="1.92308" fill="#BED441" fill-opacity="0.25"/>
<circle cx="156.923" cy="657.308" r="1.92308" fill="#BED441" fill-opacity="0.25"/>
<circle cx="164.615" cy="657.308" r="1.92308" fill="#BED441" fill-opacity="0.25"/>
<circle cx="172.308" cy="657.308" r="1.92308" fill="#BED441" fill-opacity="0.25"/>
<circle cx="180" cy="657.308" r="1.92308" fill="#BED441" fill-opacity="0.25"/>
<circle cx="187.692" cy="657.308" r="1.92308" fill="#BED441" fill-opacity="0.25"/>
<circle cx="195.385" cy="657.308" r="1.92308" fill="#BED441" fill-opacity="0.25"/>
<circle cx="203.077" cy="657.308" r="1.92308" fill="#BED441" fill-opacity="0.25"/>
<circle cx="56.9231" cy="665" r="1.92308" fill="#BED441" fill-opacity="0.25"/>
<circle cx="64.6155" cy="665" r="1.92308" fill="#BED441" fill-opacity="0.25"/>
<circle cx="72.3076" cy="665" r="1.92308" fill="#BED441" fill-opacity="0.25"/>
<circle cx="80" cy="665" r="1.92308" fill="#BED441" fill-opacity="0.25"/>
<circle cx="87.6924" cy="665" r="1.92308" fill="#BED441" fill-opacity="0.25"/>
<circle cx="95.3845" cy="665" r="1.92308" fill="#BED441" fill-opacity="0.25"/>
<circle cx="103.077" cy="665" r="1.92308" fill="#BED441" fill-opacity="0.25"/>
<circle cx="110.769" cy="665" r="1.92308" fill="#BED441" fill-opacity="0.25"/>
<circle cx="118.462" cy="665" r="1.92308" fill="#BED441" fill-opacity="0.25"/>
<circle cx="126.154" cy="665" r="1.92308" fill="#BED441" fill-opacity="0.25"/>
<circle cx="133.846" cy="665" r="1.92308" fill="#BED441" fill-opacity="0.25"/>
<circle cx="141.539" cy="665" r="1.92308" fill="#BED441" fill-opacity="0.25"/>
<circle cx="149.231" cy="665" r="1.92308" fill="#BED441" fill-opacity="0.25"/>
<circle cx="156.923" cy="665" r="1.92308" fill="#BED441" fill-opacity="0.25"/>
<circle cx="164.615" cy="665" r="1.92308" fill="#BED441" fill-opacity="0.25"/>
<circle cx="172.308" cy="665" r="1.92308" fill="#BED441" fill-opacity="0.25"/>
<circle cx="180" cy="665" r="1.92308" fill="#BED441" fill-opacity="0.25"/>
<circle cx="187.692" cy="665" r="1.92308" fill="#BED441" fill-opacity="0.25"/>
<circle cx="195.385" cy="665" r="1.92308" fill="#BED441" fill-opacity="0.25"/>
<circle cx="203.077" cy="665" r="1.92308" fill="#BED441" fill-opacity="0.25"/>
<circle cx="56.9231" cy="672.692" r="1.92308" fill="#BED441" fill-opacity="0.25"/>
<circle cx="64.6155" cy="672.692" r="1.92308" fill="#BED441" fill-opacity="0.25"/>
<circle cx="72.3076" cy="672.692" r="1.92308" fill="#BED441" fill-opacity="0.25"/>
<circle cx="80" cy="672.692" r="1.92308" fill="#BED441" fill-opacity="0.25"/>
<circle cx="87.6924" cy="672.692" r="1.92308" fill="#BED441" fill-opacity="0.25"/>
<circle cx="95.3845" cy="672.692" r="1.92308" fill="#BED441" fill-opacity="0.25"/>
<circle cx="103.077" cy="672.692" r="1.92308" fill="#BED441" fill-opacity="0.25"/>
<circle cx="110.769" cy="672.692" r="1.92308" fill="#BED441" fill-opacity="0.25"/>
<circle cx="118.462" cy="672.692" r="1.92308" fill="#BED441" fill-opacity="0.25"/>
<circle cx="126.154" cy="672.692" r="1.92308" fill="#BED441" fill-opacity="0.25"/>
<circle cx="133.846" cy="672.692" r="1.92308" fill="#BED441" fill-opacity="0.25"/>
<circle cx="141.539" cy="672.692" r="1.92308" fill="#BED441" fill-opacity="0.25"/>
<circle cx="149.231" cy="672.692" r="1.92308" fill="#BED441" fill-opacity="0.25"/>
<circle cx="156.923" cy="672.692" r="1.92308" fill="#BED441" fill-opacity="0.25"/>
<circle cx="164.615" cy="672.692" r="1.92308" fill="#BED441" fill-opacity="0.25"/>
<circle cx="172.308" cy="672.692" r="1.92308" fill="#BED441" fill-opacity="0.25"/>
<circle cx="180" cy="672.692" r="1.92308" fill="#BED441" fill-opacity="0.25"/>
<circle cx="187.692" cy="672.692" r="1.92308" fill="#BED441" fill-opacity="0.25"/>
<circle cx="195.385" cy="672.692" r="1.92308" fill="#BED441" fill-opacity="0.25"/>
<circle cx="203.077" cy="672.692" r="1.92308" fill="#BED441" fill-opacity="0.25"/>
<circle cx="56.9231" cy="680.385" r="1.92308" fill="#BED441" fill-opacity="0.25"/>
<circle cx="64.6155" cy="680.385" r="1.92308" fill="#BED441" fill-opacity="0.25"/>
<circle cx="72.3076" cy="680.385" r="1.92308" fill="#BED441" fill-opacity="0.25"/>
<circle cx="80" cy="680.385" r="1.92308" fill="#BED441" fill-opacity="0.25"/>
<circle cx="87.6924" cy="680.385" r="1.92308" fill="#BED441" fill-opacity="0.25"/>
<circle cx="95.3845" cy="680.385" r="1.92308" fill="#BED441" fill-opacity="0.25"/>
<circle cx="103.077" cy="680.385" r="1.92308" fill="#BED441" fill-opacity="0.25"/>
<circle cx="110.769" cy="680.385" r="1.92308" fill="#BED441" fill-opacity="0.25"/>
<circle cx="118.462" cy="680.385" r="1.92308" fill="#BED441" fill-opacity="0.25"/>
<circle cx="126.154" cy="680.385" r="1.92308" fill="#BED441" fill-opacity="0.25"/>
<circle cx="133.846" cy="680.385" r="1.92308" fill="#BED441" fill-opacity="0.25"/>
<circle cx="141.539" cy="680.385" r="1.92308" fill="#BED441" fill-opacity="0.25"/>
<circle cx="149.231" cy="680.385" r="1.92308" fill="#BED441" fill-opacity="0.25"/>
<circle cx="156.923" cy="680.385" r="1.92308" fill="#BED441" fill-opacity="0.25"/>
<circle cx="164.615" cy="680.385" r="1.92308" fill="#BED441" fill-opacity="0.25"/>
<circle cx="172.308" cy="680.385" r="1.92308" fill="#BED441" fill-opacity="0.25"/>
<circle cx="180" cy="680.385" r="1.92308" fill="#BED441" fill-opacity="0.25"/>
<circle cx="187.692" cy="680.385" r="1.92308" fill="#BED441" fill-opacity="0.25"/>
<circle cx="195.385" cy="680.385" r="1.92308" fill="#BED441" fill-opacity="0.25"/>
<circle cx="203.077" cy="680.385" r="1.92308" fill="#BED441" fill-opacity="0.25"/>
<circle cx="56.9231" cy="688.077" r="1.92308" fill="#BED441" fill-opacity="0.25"/>
<circle cx="64.6155" cy="688.077" r="1.92308" fill="#BED441" fill-opacity="0.25"/>
<circle cx="72.3076" cy="688.077" r="1.92308" fill="#BED441" fill-opacity="0.25"/>
<circle cx="80" cy="688.077" r="1.92308" fill="#BED441" fill-opacity="0.25"/>
<circle cx="87.6924" cy="688.077" r="1.92308" fill="#BED441" fill-opacity="0.25"/>
<circle cx="95.3845" cy="688.077" r="1.92308" fill="#BED441" fill-opacity="0.25"/>
<circle cx="103.077" cy="688.077" r="1.92308" fill="#BED441" fill-opacity="0.25"/>
<circle cx="110.769" cy="688.077" r="1.92308" fill="#BED441" fill-opacity="0.25"/>
<circle cx="118.462" cy="688.077" r="1.92308" fill="#BED441" fill-opacity="0.25"/>
<circle cx="126.154" cy="688.077" r="1.92308" fill="#BED441" fill-opacity="0.25"/>
<circle cx="133.846" cy="688.077" r="1.92308" fill="#BED441" fill-opacity="0.25"/>
<circle cx="141.539" cy="688.077" r="1.92308" fill="#BED441" fill-opacity="0.25"/>
<circle cx="149.231" cy="688.077" r="1.92308" fill="#BED441" fill-opacity="0.25"/>
<circle cx="156.923" cy="688.077" r="1.92308" fill="#BED441" fill-opacity="0.25"/>
<circle cx="164.615" cy="688.077" r="1.92308" fill="#BED441" fill-opacity="0.25"/>
<circle cx="172.308" cy="688.077" r="1.92308" fill="#BED441" fill-opacity="0.25"/>
<circle cx="180" cy="688.077" r="1.92308" fill="#BED441" fill-opacity="0.25"/>
<circle cx="187.692" cy="688.077" r="1.92308" fill="#BED441" fill-opacity="0.25"/>
<circle cx="195.385" cy="688.077" r="1.92308" fill="#BED441" fill-opacity="0.25"/>
<circle cx="203.077" cy="688.077" r="1.92308" fill="#BED441" fill-opacity="0.25"/>
<rect x="140" y="686.066" width="150" height="150" transform="rotate(-45 140 686.066)" fill="#BED441" fill-opacity="0.25"/>
</g>
<defs>
<linearGradient id="paint0_linear_1_760" x1="1158.17" y1="-133.419" x2="1158.17" y2="698.968" gradientUnits="userSpaceOnUse">
<stop stop-color="#0F487A"/>
<stop offset="1" stop-opacity="0"/>
</linearGradient>
</defs>
</svg>
