<svg width="686" height="554" viewBox="0 0 686 554" fill="none" xmlns="http://www.w3.org/2000/svg">
<g filter="url(#filter0_d_1_1198)">
<path d="M615.254 51.8171V404.96C615.254 415.47 605.124 424 592.611 424H113.477C100.97 424 90.8403 415.458 90.8403 404.96V51.8171C90.8403 41.3075 100.97 30.5703 113.477 30.5703L592.588 31.738C605.094 31.7322 615.254 41.2959 615.254 51.8171Z" fill="#F1F1F1"/>
<path d="M615.254 51.9222V68.2703H90.8403V51.9222C90.8403 46.2593 93.0899 40.8284 97.0941 36.8241C101.098 32.8199 106.529 30.5703 112.192 30.5703H593.878C596.684 30.568 599.463 31.1186 602.056 32.1905C604.649 33.2624 607.005 34.8347 608.99 36.8176C610.975 38.8004 612.55 41.155 613.624 43.7467C614.699 46.3384 615.253 49.1164 615.254 51.9222V51.9222Z" fill="#65617D"/>
<path opacity="0.8" d="M116.244 56.9608C120.41 56.9608 123.788 53.5834 123.788 49.4173C123.788 45.2511 120.41 41.8738 116.244 41.8738C112.078 41.8738 108.701 45.2511 108.701 49.4173C108.701 53.5834 112.078 56.9608 116.244 56.9608Z" fill="#FA5959"/>
<path opacity="0.8" d="M138.203 56.9608C142.369 56.9608 145.746 53.5834 145.746 49.4173C145.746 45.2511 142.369 41.8738 138.203 41.8738C134.037 41.8738 130.659 45.2511 130.659 49.4173C130.659 53.5834 134.037 56.9608 138.203 56.9608Z" fill="#FED253"/>
<path opacity="0.8" d="M160.156 56.9608C164.323 56.9608 167.7 53.5834 167.7 49.4173C167.7 45.2511 164.323 41.8738 160.156 41.8738C155.99 41.8738 152.613 45.2511 152.613 49.4173C152.613 53.5834 155.99 56.9608 160.156 56.9608Z" fill="#8CCF4D"/>
<path d="M198.382 184.348H150.079C149.86 184.335 149.64 184.366 149.433 184.441C149.226 184.516 149.037 184.633 148.877 184.783C148.717 184.934 148.59 185.116 148.503 185.317C148.415 185.519 148.37 185.737 148.37 185.956C148.37 186.176 148.415 186.394 148.503 186.595C148.59 186.797 148.717 186.979 148.877 187.13C149.037 187.28 149.226 187.397 149.433 187.472C149.64 187.546 149.86 187.578 150.079 187.565H198.382C198.601 187.578 198.821 187.546 199.028 187.472C199.234 187.397 199.423 187.28 199.583 187.13C199.743 186.979 199.871 186.797 199.958 186.595C200.045 186.394 200.09 186.176 200.09 185.956C200.09 185.737 200.045 185.519 199.958 185.317C199.871 185.116 199.743 184.934 199.583 184.783C199.423 184.633 199.234 184.516 199.028 184.441C198.821 184.366 198.601 184.335 198.382 184.348V184.348ZM198.382 189.865H150.079C149.652 189.865 149.242 190.035 148.939 190.337C148.637 190.64 148.467 191.049 148.467 191.477C148.467 191.904 148.637 192.314 148.939 192.616C149.242 192.919 149.652 193.088 150.079 193.088H198.382C198.809 193.088 199.219 192.919 199.521 192.616C199.823 192.314 199.993 191.904 199.993 191.477C199.993 191.049 199.823 190.64 199.521 190.337C199.219 190.035 198.809 189.865 198.382 189.865V189.865ZM195.959 152.627H152.508C151.438 152.628 150.412 153.054 149.655 153.81C148.897 154.566 148.471 155.591 148.467 156.661V177.096C148.471 178.166 148.897 179.192 149.655 179.948C150.412 180.704 151.438 181.129 152.508 181.131H195.959C197.028 181.128 198.052 180.702 198.808 179.946C199.564 179.19 199.99 178.165 199.993 177.096V156.661C199.99 155.592 199.564 154.568 198.808 153.812C198.052 153.056 197.028 152.63 195.959 152.627V152.627ZM157.897 177.47H153.757C153.33 177.47 152.92 177.3 152.618 176.998C152.316 176.696 152.146 176.286 152.146 175.859C152.146 175.431 152.316 175.021 152.618 174.719C152.92 174.417 153.33 174.247 153.757 174.247H157.897C158.324 174.247 158.734 174.417 159.036 174.719C159.338 175.021 159.508 175.431 159.508 175.859C159.508 176.286 159.338 176.696 159.036 176.998C158.734 177.3 158.324 177.47 157.897 177.47V177.47ZM157.897 159.528H153.757C153.33 159.528 152.92 159.358 152.618 159.056C152.316 158.754 152.146 158.344 152.146 157.916C152.146 157.489 152.316 157.079 152.618 156.777C152.92 156.475 153.33 156.305 153.757 156.305H157.897C158.324 156.305 158.734 156.475 159.036 156.777C159.338 157.079 159.508 157.489 159.508 157.916C159.508 158.344 159.338 158.754 159.036 159.056C158.734 159.358 158.324 159.528 157.897 159.528ZM174.245 176.086C172.425 176.086 170.646 175.547 169.133 174.536C167.62 173.524 166.44 172.087 165.744 170.406C165.047 168.725 164.865 166.874 165.22 165.089C165.575 163.305 166.452 161.665 167.738 160.378C169.025 159.091 170.665 158.215 172.45 157.86C174.235 157.505 176.085 157.687 177.766 158.383C179.448 159.08 180.885 160.259 181.896 161.772C182.907 163.286 183.447 165.065 183.447 166.885C183.444 169.326 182.471 171.667 180.744 173.392C179.016 175.117 176.675 176.086 174.233 176.086H174.245ZM194.721 177.47H190.581C190.154 177.47 189.744 177.3 189.442 176.998C189.14 176.696 188.97 176.286 188.97 175.859C188.97 175.431 189.14 175.021 189.442 174.719C189.744 174.417 190.154 174.247 190.581 174.247H194.721C195.148 174.247 195.558 174.417 195.86 174.719C196.163 175.021 196.332 175.431 196.332 175.859C196.332 176.286 196.163 176.696 195.86 176.998C195.558 177.3 195.148 177.47 194.721 177.47V177.47ZM194.721 159.528H190.581C190.154 159.528 189.744 159.358 189.442 159.056C189.14 158.754 188.97 158.344 188.97 157.916C188.97 157.489 189.14 157.079 189.442 156.777C189.744 156.475 190.154 156.305 190.581 156.305H194.721C195.148 156.305 195.558 156.475 195.86 156.777C196.163 157.079 196.332 157.489 196.332 157.916C196.332 158.344 196.163 158.754 195.86 159.056C195.558 159.358 195.148 159.528 194.721 159.528V159.528Z" fill="#7EC845"/>
<path d="M174.233 173.202C177.599 173.202 180.328 170.473 180.328 167.107C180.328 163.74 177.599 161.011 174.233 161.011C170.866 161.011 168.137 163.74 168.137 167.107C168.137 170.473 170.866 173.202 174.233 173.202Z" fill="white"/>
<path opacity="0.2" d="M485.921 111.961H266.57V233.743H485.921V111.961Z" fill="#7EC845"/>
<path opacity="0.2" d="M485.921 260.986H266.57V382.768H485.921V260.986Z" fill="#7EC845"/>
<path d="M316.345 196.761H309.706V219.006H316.345V196.761Z" fill="white"/>
<path d="M328.986 169.22H322.347V219.006H328.986V169.22Z" fill="white"/>
<path d="M341.632 144.406H334.994V219.006H341.632V144.406Z" fill="#DFE3EF"/>
<path d="M354.279 126.703H347.641V219.006H354.279V126.703Z" fill="white"/>
<path d="M341.632 126.703H334.994V219.006H341.632V126.703Z" fill="#7EC845"/>
<path d="M366.919 168.268H360.281V219.006H366.919V168.268Z" fill="#7EC845"/>
<path opacity="0.2" d="M379.565 155.155H372.927V219.006H379.565V155.155Z" fill="#7EC845"/>
<path d="M392.206 135.239H385.568V219.006H392.206V135.239Z" fill="#7EC845"/>
<path opacity="0.2" d="M404.853 181.703H398.214V219.006H404.853V181.703Z" fill="#7EC845"/>
<path d="M417.499 164.479H410.86V219.006H417.499V164.479Z" fill="#7EC845"/>
<path opacity="0.2" d="M430.14 144.406H423.501V219.006H430.14V144.406Z" fill="#7EC845"/>
<path d="M442.787 144.406H436.148V219.006H442.787V144.406Z" fill="#7EC845"/>
<path d="M199.975 307.152C199.972 306.177 199.584 305.243 198.895 304.554C198.206 303.865 197.272 303.476 196.297 303.473H152.151C151.176 303.476 150.242 303.865 149.552 304.554C148.862 305.243 148.472 306.176 148.467 307.152V312.675H199.975V307.152ZM148.45 336.596C148.453 337.572 148.842 338.507 149.532 339.197C150.222 339.888 151.158 340.277 152.134 340.28H196.297C197.273 340.277 198.207 339.888 198.897 339.197C199.586 338.507 199.974 337.571 199.975 336.596V318.216H148.467L148.45 336.596ZM164.798 331.078H183.662C183.882 331.065 184.101 331.097 184.308 331.172C184.515 331.247 184.704 331.363 184.864 331.514C185.024 331.664 185.151 331.846 185.239 332.048C185.326 332.25 185.371 332.467 185.371 332.687C185.371 332.907 185.326 333.124 185.239 333.326C185.151 333.528 185.024 333.709 184.864 333.86C184.704 334.011 184.515 334.127 184.308 334.202C184.101 334.277 183.882 334.309 183.662 334.295H164.798C164.388 334.271 164.003 334.09 163.721 333.791C163.44 333.493 163.283 333.097 163.283 332.687C163.283 332.276 163.44 331.881 163.721 331.582C164.003 331.283 164.388 331.103 164.798 331.078V331.078ZM156.519 331.078H157.896C158.116 331.065 158.336 331.097 158.542 331.172C158.749 331.247 158.938 331.363 159.098 331.514C159.258 331.664 159.386 331.846 159.473 332.048C159.56 332.25 159.605 332.467 159.605 332.687C159.605 332.907 159.56 333.124 159.473 333.326C159.386 333.528 159.258 333.709 159.098 333.86C158.938 334.011 158.749 334.127 158.542 334.202C158.336 334.277 158.116 334.309 157.896 334.295H156.519C156.299 334.309 156.079 334.277 155.873 334.202C155.666 334.127 155.477 334.011 155.317 333.86C155.157 333.709 155.029 333.528 154.942 333.326C154.855 333.124 154.81 332.907 154.81 332.687C154.81 332.467 154.855 332.25 154.942 332.048C155.029 331.846 155.157 331.664 155.317 331.514C155.477 331.363 155.666 331.247 155.873 331.172C156.079 331.097 156.299 331.065 156.519 331.078V331.078Z" fill="#7EC845"/>
<path d="M316.345 345.78H309.706V368.025H316.345V345.78Z" fill="white"/>
<path d="M328.986 318.239H322.347V368.025H328.986V318.239Z" fill="white"/>
<path d="M341.632 293.425H334.994V368.025H341.632V293.425Z" fill="#DFE3EF"/>
<path d="M354.279 275.722H347.641V368.025H354.279V275.722Z" fill="white"/>
<path d="M341.632 275.722H334.994V368.025H341.632V275.722Z" fill="#7EC845"/>
<path d="M366.919 317.287H360.281V368.025H366.919V317.287Z" fill="#7EC845"/>
<path d="M379.565 304.174H372.927V368.025H379.565V304.174Z" fill="white"/>
<path d="M392.206 284.258H385.568V368.025H392.206V284.258Z" fill="white"/>
<path opacity="0.2" d="M404.853 330.722H398.214V368.025H404.853V330.722Z" fill="#7EC845"/>
<path opacity="0.2" d="M417.499 313.498H410.86V368.025H417.499V313.498Z" fill="#7EC845"/>
<path opacity="0.2" d="M430.14 293.425H423.501V368.025H430.14V293.425Z" fill="#7EC845"/>
<path opacity="0.2" d="M442.787 293.425H436.148V368.025H442.787V293.425Z" fill="#7EC845"/>
</g>
<defs>
<filter id="filter0_d_1_1198" x="0.840332" y="0.570312" width="684.413" height="553.43" filterUnits="userSpaceOnUse" color-interpolation-filters="sRGB">
<feFlood flood-opacity="0" result="BackgroundImageFix"/>
<feColorMatrix in="SourceAlpha" type="matrix" values="0 0 0 0 0 0 0 0 0 0 0 0 0 0 0 0 0 0 127 0" result="hardAlpha"/>
<feOffset dx="-10" dy="50"/>
<feGaussianBlur stdDeviation="40"/>
<feColorMatrix type="matrix" values="0 0 0 0 0 0 0 0 0 0 0 0 0 0 0 0 0 0 0.25 0"/>
<feBlend mode="normal" in2="BackgroundImageFix" result="effect1_dropShadow_1_1198"/>
<feBlend mode="normal" in="SourceGraphic" in2="effect1_dropShadow_1_1198" result="shape"/>
</filter>
</defs>
</svg>
