<svg width="24" height="10" viewBox="0 0 24 10" fill="none" xmlns="http://www.w3.org/2000/svg">
<path d="M17.2834 0.11868C17.0348 0.286105 16.9181 0.594382 16.9902 0.887376L17.4743 2.85719L0.703132 2.85719C0.314488 2.85719 0 3.17666 0 3.57146L0 6.42854C0 6.82334 0.314488 7.14281 0.703132 7.14281L17.4743 7.14281L16.9902 9.11262C16.9181 9.40418 17.0348 9.71251 17.2834 9.88131C17.5313 10.0473 17.8561 10.039 18.0937 9.8576L23.7187 5.57198C24.094 5.28532 24.0935 4.71434 23.7187 4.42806L18.0937 0.142441C17.8561 -0.0389833 17.5313 -0.0473156 17.2834 0.11868Z" fill="#FA5959"/>
</svg>
