<svg width="1440" height="754" viewBox="0 0 1440 754" fill="none" xmlns="http://www.w3.org/2000/svg">
<path d="M-78.9018 298.999C112.099 -229.926 1476.1 73.7012 1536.6 223C1569.64 304.535 1535.84 375.419 1476.1 439.999C1357.5 568.201 226.598 856.5 19.5981 715C-91.2869 639.202 -147.874 490 -78.9018 298.999Z" fill="#F9F9F9"/>
<path d="M-51.5 200C11.5 293 36.7507 175.134 98.5 175.5C159.135 175.859 182.5 288.5 239.5 200" stroke="#D1C1B4" stroke-opacity="0.5" stroke-width="2" stroke-linecap="round"/>
<path d="M-51 167.501C12 260.501 37.2507 142.635 99 143.001C159.635 143.36 183 256.001 240 167.501" stroke="#D1C1B4" stroke-opacity="0.5" stroke-width="2" stroke-linecap="round"/>
<path d="M-52 129.501C11 222.501 36.2507 104.635 98 105.001C158.635 105.36 182 218.001 239 129.501" stroke="#D1C1B4" stroke-opacity="0.5" stroke-width="2" stroke-linecap="round"/>
<path d="M-51 97.5009C12 190.501 37.2507 72.6349 99 73.0009C159.635 73.3602 183 186.001 240 97.5009" stroke="#D1C1B4" stroke-opacity="0.5" stroke-width="2" stroke-linecap="round"/>
<path d="M-51 113.501C12 206.501 37.2507 88.6349 99 89.0009C159.635 89.3602 183 202.001 240 113.501" stroke="#D1C1B4" stroke-opacity="0.5" stroke-width="2" stroke-linecap="round"/>
<path d="M-51 147.501C12 240.501 37.2507 122.635 99 123.001C159.635 123.36 183 236.001 240 147.501" stroke="#D1C1B4" stroke-opacity="0.5" stroke-width="2" stroke-linecap="round"/>
<path d="M-51 180.501C12 273.501 37.2507 155.635 99 156.001C159.635 156.36 183 269.001 240 180.501" stroke="#D1C1B4" stroke-opacity="0.5" stroke-width="2" stroke-linecap="round"/>
<path d="M-51 83.5009C12 176.501 37.2507 58.6349 99 59.0009C159.635 59.3602 183 172.001 240 83.5009" stroke="#D1C1B4" stroke-opacity="0.5" stroke-width="2" stroke-linecap="round"/>
<path d="M-51 67.5009C12 160.501 37.2507 42.6349 99 43.0009C159.635 43.3602 183 156.001 240 67.5009" stroke="#D1C1B4" stroke-opacity="0.5" stroke-width="2" stroke-linecap="round"/>
</svg>
