<svg width="175" height="198" viewBox="0 0 175 198" fill="none" xmlns="http://www.w3.org/2000/svg">
<g filter="url(#filter0_d_1_2324)">
<path d="M161 9H21V159H161V9Z" fill="#F1F1F1"/>
<path d="M43.5914 125.098H40.402V124.566H43.5914V125.098ZM37.2126 125.098H34.0232V124.566H37.2126V125.098ZM30.8338 125.098H27.6445V124.566H30.8338V125.098ZM24.4551 125.098H21.2657V124.566H24.4551V125.098Z" fill="#E6E6E6"/>
<path d="M88.2428 99.8975H85.0534V99.366H88.2428V99.8975ZM81.864 99.8975H78.6746V99.366H81.864V99.8975ZM75.4852 99.8975H72.2959V99.366H75.4852V99.8975ZM69.1065 99.8975H65.9171V99.366H69.1065V99.8975ZM62.7277 99.8975H59.5383V99.366H62.7277V99.8975ZM56.3489 99.8975H53.1595V99.366H56.3489V99.8975ZM49.9702 99.8975H46.7808V99.366H49.9702V99.8975ZM43.5914 99.8975H40.402V99.366H43.5914V99.8975ZM37.2126 99.8975H34.0232V99.366H37.2126V99.8975ZM30.8338 99.8975H27.6445V99.366H30.8338V99.8975ZM24.4551 99.8975H21.2657V99.366H24.4551V99.8975Z" fill="#E6E6E6"/>
<path d="M152.031 84.2163H148.841V83.6847H152.031V84.2163ZM145.652 84.2163H142.462V83.6847H145.652V84.2163ZM139.273 84.2163H136.084V83.6847H139.273V84.2163ZM132.894 84.2163H129.705V83.6847H132.894V84.2163ZM126.515 84.2163H123.326V83.6847H126.515V84.2163ZM120.137 84.2163H116.947V83.6847H120.137V84.2163ZM113.758 84.2163H110.568V83.6847H113.758V84.2163ZM107.379 84.2163H104.19V83.6847H107.379V84.2163ZM101 84.2163H97.8109V83.6847H101V84.2163ZM94.6216 84.2163H91.4322V83.6847H94.6216V84.2163ZM88.2428 84.2163H85.0534V83.6847H88.2428V84.2163ZM81.864 84.2163H78.6746V83.6847H81.864V84.2163ZM75.4852 84.2163H72.2959V83.6847H75.4852V84.2163ZM69.1065 84.2163H65.9171V83.6847H69.1065V84.2163ZM62.7277 84.2163H59.5383V83.6847H62.7277V84.2163ZM56.3489 84.2163H53.1595V83.6847H56.3489V84.2163ZM49.9702 84.2163H46.7808V83.6847H49.9702V84.2163ZM43.5914 84.2163H40.402V83.6847H43.5914V84.2163ZM37.2126 84.2163H34.0232V83.6847H37.2126V84.2163ZM30.8338 84.2163H27.6445V83.6847H30.8338V84.2163ZM24.4551 84.2163H21.2657V83.6847H24.4551V84.2163Z" fill="#E6E6E6"/>
<path d="M45.4519 9.20618H44.9203V10.8009H45.4519V9.20618Z" fill="#E6E6E6"/>
<path d="M45.4519 129.984H44.9203V126.847H45.4519V129.984ZM45.4519 123.711H44.9203V120.575H45.4519V123.711ZM45.4519 117.438H44.9203V114.302H45.4519V117.438ZM45.4519 111.165H44.9203V108.029H45.4519V111.165ZM45.4519 104.893H44.9203V101.756H45.4519V104.893ZM45.4519 98.6198H44.9203V95.4836H45.4519V98.6198ZM45.4519 92.3471H44.9203V89.2107H45.4519V92.3471ZM45.4519 86.0743H44.9203V82.9378H45.4519V86.0743ZM45.4519 79.8014H44.9203V76.6652H45.4519V79.8014ZM45.4519 73.5288H44.9203V70.3923H45.4519V73.5288ZM45.4519 67.2559H44.9203V64.1196H45.4519V67.2559ZM45.4519 60.9832H44.9203V57.8467H45.4519V60.9832ZM45.4519 54.7104H44.9203V51.574H45.4519V54.7104ZM45.4519 48.4375H44.9203V45.3012H45.4519V48.4375ZM45.4519 42.1648H44.9203V39.0284H45.4519V42.1648ZM45.4519 35.8921H44.9203V32.7556H45.4519V35.8921ZM45.4519 29.6192H44.9203V26.4829H45.4519V29.6192ZM45.4519 23.3464H44.9203V20.21H45.4519V23.3464ZM45.4519 17.0737H44.9203V13.9373H45.4519V17.0737Z" fill="#E6E6E6"/>
<path d="M45.4519 133.12H44.9203V134.715H45.4519V133.12Z" fill="#E6E6E6"/>
<path d="M91.6983 9.20618H91.1667V10.8009H91.6983V9.20618Z" fill="#E6E6E6"/>
<path d="M91.6983 105.769H91.1667V102.603H91.6983V105.769ZM91.6983 99.4373H91.1667V96.2718H91.6983V99.4373ZM91.6983 93.1061H91.1667V89.9406H91.6983V93.1061ZM91.6983 86.775H91.1667V83.6093H91.6983V86.775ZM91.6983 80.4438H91.1667V77.2783H91.6983V80.4438ZM91.6983 74.1126H91.1667V70.947H91.6983V74.1126ZM91.6983 67.7815H91.1667V64.6158H91.6983V67.7815ZM91.6983 61.4502H91.1667V58.2847H91.6983V61.4502ZM91.6983 55.1191H91.1667V51.9534H91.6983V55.1191ZM91.6983 48.7879H91.1667V45.6223H91.6983V48.7879ZM91.6983 42.4568H91.1667V39.2911H91.6983V42.4568ZM91.6983 36.1255H91.1667V32.96H91.6983V36.1255ZM91.6983 29.7944H91.1667V26.6287H91.6983V29.7944ZM91.6983 23.4632H91.1667V20.2976H91.6983V23.4632ZM91.6983 17.1321H91.1667V13.9664H91.6983V17.1321Z" fill="#E6E6E6"/>
<path d="M91.6983 108.934H91.1667V110.529H91.6983V108.934Z" fill="#E6E6E6"/>
<path d="M21.6497 158.401L45.7886 134.187L56.797 145.23L91.6792 110.239L114.227 132.857L154.812 92.1451V158.401H21.6497Z" fill="#7EC845"/>
<path d="M161 159H21V9H161V159ZM21.5556 158.468H160.444V9.53191H21.5556V158.468Z" fill="#3F3D56"/>
<path d="M45.1862 127.805C47.0944 127.805 48.6414 126.258 48.6414 124.349C48.6414 122.441 47.0944 120.894 45.1862 120.894C43.2779 120.894 41.731 122.441 41.731 124.349C41.731 126.258 43.2779 127.805 45.1862 127.805Z" fill="#3F3D56"/>
<path d="M91.4324 103.087C93.3406 103.087 94.8876 101.54 94.8876 99.6317C94.8876 97.7234 93.3406 96.1765 91.4324 96.1765C89.5242 96.1765 87.9772 97.7234 87.9772 99.6317C87.9772 101.54 89.5242 103.087 91.4324 103.087Z" fill="#3F3D56"/>
<path d="M154.689 87.4058C156.597 87.4058 158.144 85.8589 158.144 83.9507C158.144 82.0424 156.597 80.4955 154.689 80.4955C152.78 80.4955 151.233 82.0424 151.233 83.9507C151.233 85.8589 152.78 87.4058 154.689 87.4058Z" fill="#3F3D56"/>
<path d="M130.502 30.2626C128.956 30.7111 126.882 31.0576 125.346 30.9349L127.35 32.2658L33.0676 102.076L33.3837 102.503L127.666 32.6929L128.355 34.998C128.685 33.4936 129.622 31.611 130.502 30.2626Z" fill="#3F3D56"/>
</g>
<defs>
<filter id="filter0_d_1_2324" x="0" y="0" width="188" height="198" filterUnits="userSpaceOnUse" color-interpolation-filters="sRGB">
<feFlood flood-opacity="0" result="BackgroundImageFix"/>
<feColorMatrix in="SourceAlpha" type="matrix" values="0 0 0 0 0 0 0 0 0 0 0 0 0 0 0 0 0 0 127 0" result="hardAlpha"/>
<feOffset dx="3" dy="15"/>
<feGaussianBlur stdDeviation="12"/>
<feColorMatrix type="matrix" values="0 0 0 0 0 0 0 0 0 0 0 0 0 0 0 0 0 0 0.25 0"/>
<feBlend mode="normal" in2="BackgroundImageFix" result="effect1_dropShadow_1_2324"/>
<feBlend mode="normal" in="SourceGraphic" in2="effect1_dropShadow_1_2324" result="shape"/>
</filter>
</defs>
</svg>
